<?xml version="1.0" encoding="UTF-8"?> <svg xmlns="http://www.w3.org/2000/svg" width="241" height="48" viewBox="0 0 241 48" fill="none"><path d="M17.4741 34.938C26.7527 34.938 34.2744 27.3964 34.2744 18.0933C34.2744 8.79028 26.7527 1.24866 17.4741 1.24866C8.19558 1.24866 0.673828 8.79028 0.673828 18.0933C0.673828 27.3964 8.19558 34.938 17.4741 34.938Z" fill="#3C3C3C"></path><path fill-rule="evenodd" clip-rule="evenodd" d="M17.474 0.572998C7.82882 0.572998 0 8.42401 0 18.0946C0 27.7653 7.82882 35.6167 17.474 35.6167C27.1191 35.6167 34.9517 27.7653 34.9517 18.0946C34.9517 8.42401 27.1191 0.572998 17.474 0.572998ZM20.1745 31.8297C19.644 31.8297 19.2129 32.2619 19.2129 32.7945C19.2129 33.3268 19.644 33.759 20.1745 33.759C20.705 33.759 21.1361 33.3268 21.1361 32.7945C21.1361 32.2619 20.705 31.8297 20.1745 31.8297ZM17.4556 31.8297C16.9214 31.8297 16.4903 32.2619 16.4903 32.7945C16.4903 33.3268 16.9214 33.759 17.4556 33.759C17.9861 33.759 18.4171 33.3268 18.4171 32.7945C18.4171 32.2619 17.9861 31.8297 17.4556 31.8297ZM14.7329 31.8297C14.2024 31.8297 13.7714 32.2619 13.7714 32.7945C13.7714 33.3268 14.2024 33.759 14.7329 33.759H14.7367C15.2672 33.759 15.6982 33.3268 15.6982 32.7945C15.6982 32.2619 15.2672 31.8297 14.7367 31.8297H14.7329ZM12.4819 31.8297C12.7546 31.8297 12.9719 32.0502 12.9719 32.3217C12.9719 32.5936 12.7546 32.8141 12.4819 32.8141C12.2093 32.8141 11.992 32.5936 11.992 32.3217C11.992 32.0502 12.2093 31.8297 12.4819 31.8297ZM22.4255 31.8297C22.6945 31.8297 22.9155 32.0502 22.9155 32.3217C22.9155 32.5936 22.6945 32.8141 22.4255 32.8141C22.1529 32.8141 21.9355 32.5936 21.9355 32.3217C21.9355 32.0502 22.1529 31.8297 22.4255 31.8297ZM25.616 29.1826C25.0855 29.1826 24.6544 29.6148 24.6544 30.1475C24.6544 30.6798 25.0855 31.112 25.616 31.112C26.1502 31.112 26.5813 30.6798 26.5813 30.1475C26.5813 29.6148 26.1502 29.1826 25.616 29.1826ZM9.28778 29.1826C9.8183 29.1826 10.2493 29.6148 10.2493 30.1475C10.2493 30.6798 9.8183 31.112 9.28778 31.112C8.75726 31.112 8.32622 30.6798 8.32622 30.1475C8.32622 29.6148 8.75726 29.1826 9.28778 29.1826ZM17.4556 29.1826C16.9214 29.1826 16.4903 29.6148 16.4903 30.1475C16.4903 30.6798 16.9214 31.112 17.4556 31.112C17.9861 31.112 18.4171 30.6798 18.4171 30.1475C18.4171 29.6148 17.9861 29.1826 17.4556 29.1826ZM14.7329 29.1826C15.2635 29.1826 15.6946 29.6148 15.6946 30.1475C15.6946 30.6798 15.2635 31.112 14.7329 31.112C14.2024 31.112 13.7714 30.6798 13.7714 30.1475C13.7714 29.6148 14.2024 29.1826 14.7329 29.1826ZM20.1745 29.1826C19.644 29.1826 19.2129 29.6148 19.2129 30.1475C19.2129 30.6798 19.644 31.112 20.1745 31.112C20.705 31.112 21.1361 30.6798 21.1361 30.1475C21.1361 29.6148 20.705 29.1826 20.1745 29.1826ZM22.8971 29.1826C22.3666 29.1826 21.9355 29.6148 21.9355 30.1475C21.9355 30.6798 22.3666 31.112 22.8971 31.112C23.4276 31.112 23.8587 30.6798 23.8587 30.1475C23.8587 29.6148 23.4276 29.1826 22.8971 29.1826ZM12.0104 29.1826C12.5409 29.1826 12.9719 29.6148 12.9719 30.1475C12.9719 30.6798 12.5409 31.112 12.0104 31.112C11.4799 31.112 11.0488 30.6798 11.0488 30.1475C11.0488 29.6148 11.4799 29.1826 12.0104 29.1826ZM7.03677 29.1826C7.30939 29.1826 7.53039 29.4032 7.53039 29.6747C7.53039 29.9465 7.30939 30.1671 7.03677 30.1671C6.76782 30.1671 6.54674 29.9465 6.54674 29.6747C6.54674 29.4032 6.76782 29.1826 7.03677 29.1826ZM27.867 29.1826C28.1396 29.1826 28.3607 29.4032 28.3607 29.6747C28.3607 29.9465 28.1396 30.1671 27.867 30.1671C27.5981 30.1671 27.3771 29.9465 27.3771 29.6747C27.3771 29.4032 27.5981 29.1826 27.867 29.1826ZM6.56883 26.5356C7.09935 26.5356 7.53039 26.9678 7.53039 27.5001C7.53039 28.0327 7.09935 28.4649 6.56883 28.4649C6.03463 28.4649 5.60361 28.0327 5.60361 27.5001C5.60361 26.9678 6.03463 26.5356 6.56883 26.5356ZM28.3386 26.5356C27.8081 26.5356 27.3771 26.9678 27.3771 27.5001C27.3771 28.0327 27.8081 28.4649 28.3386 28.4649C28.8691 28.4649 29.3002 28.0327 29.3002 27.5001C29.3002 26.9678 28.8691 26.5356 28.3386 26.5356ZM20.1745 26.5356C19.644 26.5356 19.2129 26.9678 19.2129 27.5001C19.2129 28.0327 19.644 28.4649 20.1745 28.4649C20.705 28.4649 21.1361 28.0327 21.1361 27.5001C21.1361 26.9678 20.705 26.5356 20.1745 26.5356ZM22.8971 26.5356C22.3666 26.5356 21.9355 26.9678 21.9355 27.5001C21.9355 28.0327 22.3666 28.4649 22.8971 28.4649C23.4276 28.4649 23.8587 28.0327 23.8587 27.5001C23.8587 26.9678 23.4276 26.5356 22.8971 26.5356ZM25.616 26.5356C25.0855 26.5356 24.6544 26.9678 24.6544 27.5001C24.6544 28.0327 25.0855 28.4649 25.616 28.4649C26.1502 28.4649 26.5813 28.0327 26.5813 27.5001C26.5813 26.9678 26.1502 26.5356 25.616 26.5356ZM9.28778 26.5356C9.8183 26.5356 10.2493 26.9678 10.2493 27.5001C10.2493 28.0327 9.8183 28.4649 9.28778 28.4649C8.75726 28.4649 8.32622 28.0327 8.32622 27.5001C8.32622 26.9678 8.75726 26.5356 9.28778 26.5356ZM17.4556 26.5356C16.9214 26.5356 16.4903 26.9678 16.4903 27.5001C16.4903 28.0327 16.9214 28.4649 17.4556 28.4649C17.9861 28.4649 18.4171 28.0327 18.4171 27.5001C18.4171 26.9678 17.9861 26.5356 17.4556 26.5356ZM12.0104 26.5356C12.5409 26.5356 12.9719 26.9678 12.9719 27.5001C12.9719 28.0327 12.5409 28.4649 12.0104 28.4649C11.4799 28.4649 11.0488 28.0327 11.0488 27.5001C11.0488 26.9678 11.4799 26.5356 12.0104 26.5356ZM14.7329 26.5356C15.2635 26.5356 15.6946 26.9678 15.6946 27.5001C15.6946 28.0327 15.2635 28.4649 14.7329 28.4649C14.2024 28.4649 13.7714 28.0327 13.7714 27.5001C13.7714 26.9678 14.2024 26.5356 14.7329 26.5356ZM20.1745 23.8885C19.644 23.8885 19.2129 24.3207 19.2129 24.853C19.2129 25.3857 19.644 25.8179 20.1745 25.8179C20.705 25.8179 21.1361 25.3857 21.1361 24.853C21.1361 24.3207 20.705 23.8885 20.1745 23.8885ZM14.7329 23.8885C15.2635 23.8885 15.6946 24.3207 15.6946 24.853C15.6946 25.3857 15.2635 25.8179 14.7329 25.8179C14.2024 25.8179 13.7714 25.3857 13.7714 24.853C13.7714 24.3207 14.2024 23.8885 14.7329 23.8885ZM17.4556 23.8885C16.9214 23.8885 16.4903 24.3207 16.4903 24.853C16.4903 25.3857 16.9214 25.8179 17.4556 25.8179C17.9861 25.8179 18.4171 25.3857 18.4171 24.853C18.4171 24.3207 17.9861 23.8885 17.4556 23.8885ZM12.0104 23.8885C12.5409 23.8885 12.9719 24.3207 12.9719 24.853C12.9719 25.3857 12.5409 25.8179 12.0104 25.8179C11.4799 25.8179 11.0488 25.3857 11.0488 24.853C11.0488 24.3207 11.4799 23.8885 12.0104 23.8885ZM22.8971 23.8885C22.3666 23.8885 21.9355 24.3207 21.9355 24.853C21.9355 25.3857 22.3666 25.8179 22.8971 25.8179C23.4276 25.8179 23.8587 25.3857 23.8587 24.853C23.8587 24.3207 23.4276 23.8885 22.8971 23.8885ZM25.1481 24.8334C24.8755 24.8334 24.6544 25.054 24.6544 25.3255C24.6544 25.5973 24.8755 25.8179 25.1481 25.8179C25.4171 25.8179 25.6381 25.5973 25.6381 25.3255C25.6381 25.054 25.4171 24.8334 25.1481 24.8334ZM9.75931 24.8334C10.0319 24.8334 10.2493 25.054 10.2493 25.3255C10.2493 25.5973 10.0319 25.8179 9.75931 25.8179C9.49037 25.8179 9.26936 25.5973 9.26936 25.3255C9.26936 25.054 9.49037 24.8334 9.75931 24.8334ZM17.474 21.2415C16.9435 21.2415 16.5124 21.6737 16.5124 22.206C16.5124 22.7383 16.9435 23.1708 17.474 23.1708C18.0045 23.1708 18.4355 22.7383 18.4355 22.206C18.4355 21.6737 18.0045 21.2415 17.474 21.2415ZM14.7145 21.2415C15.245 21.2415 15.6761 21.6737 15.6761 22.206C15.6761 22.7383 15.245 23.1708 14.7145 23.1708C14.1803 23.1708 13.7493 22.7383 13.7493 22.206C13.7493 21.6737 14.1803 21.2415 14.7145 21.2415ZM20.1929 21.2415C19.6624 21.2415 19.2314 21.6737 19.2314 22.206C19.2314 22.7383 19.6624 23.1708 20.1929 23.1708C20.7234 23.1708 21.1545 22.7383 21.1545 22.206C21.1545 21.6737 20.7234 21.2415 20.1929 21.2415ZM22.4439 22.2255C22.1713 22.2255 21.9539 22.005 21.9539 21.7335C21.9539 21.462 22.1713 21.2415 22.4439 21.2415C22.7166 21.2415 22.934 21.462 22.934 21.7335C22.934 22.005 22.7166 22.2255 22.4439 22.2255ZM12.4635 22.2255C12.7324 22.2255 12.9535 22.005 12.9535 21.7335C12.9535 21.462 12.7324 21.2415 12.4635 21.2415C12.1909 21.2415 11.9698 21.462 11.9698 21.7335C11.9698 22.005 12.1909 22.2255 12.4635 22.2255ZM22.9155 18.5944C22.385 18.5944 21.9539 19.0266 21.9539 19.5589C21.9539 20.0912 22.385 20.5238 22.9155 20.5238C23.4461 20.5238 23.8771 20.0912 23.8771 19.5589C23.8771 19.0266 23.4461 18.5944 22.9155 18.5944ZM17.4776 18.5944C16.9471 18.5944 16.5124 19.0266 16.5124 19.5589C16.5124 20.0912 16.9471 20.5238 17.4776 20.5238C18.0082 20.5238 18.4393 20.0912 18.4393 19.5589C18.4393 19.0266 18.0082 18.5944 17.4776 18.5944ZM20.1966 18.5944C19.6624 18.5944 19.2314 19.0266 19.2314 19.5589C19.2314 20.0912 19.6624 20.5238 20.1966 20.5238C20.7271 20.5238 21.1581 20.0912 21.1581 19.5589C21.1581 19.0266 20.7271 18.5944 20.1966 18.5944ZM14.7108 18.5944C15.2414 18.5944 15.6724 19.0266 15.6724 19.5589C15.6724 20.0912 15.2414 20.5238 14.7108 20.5238C14.1803 20.5238 13.7493 20.0912 13.7493 19.5589C13.7493 19.0266 14.1803 18.5944 14.7108 18.5944ZM11.992 18.5944C12.5225 18.5944 12.9535 19.0266 12.9535 19.5589C12.9535 20.0912 12.5225 20.5238 11.992 20.5238C11.4615 20.5238 11.0303 20.0912 11.0303 19.5589C11.0303 19.0266 11.4615 18.5944 11.992 18.5944ZM9.74089 19.5785C10.0098 19.5785 10.2309 19.358 10.2309 19.0865C10.2309 18.815 10.0098 18.5944 9.74089 18.5944C9.46826 18.5944 9.25094 18.815 9.25094 19.0865C9.25094 19.358 9.46826 19.5785 9.74089 19.5785ZM25.1666 19.5785C24.8939 19.5785 24.6765 19.358 24.6765 19.0865C24.6765 18.815 24.8939 18.5944 25.1666 18.5944C25.4355 18.5944 25.6565 18.815 25.6565 19.0865C25.6565 19.358 25.4355 19.5785 25.1666 19.5785ZM22.9155 15.9474C22.385 15.9474 21.9539 16.3796 21.9539 16.9119C21.9539 17.4442 22.385 17.8767 22.9155 17.8767C23.4461 17.8767 23.8771 17.4442 23.8771 16.9119C23.8771 16.3796 23.4461 15.9474 22.9155 15.9474ZM11.992 15.9474C12.5225 15.9474 12.9535 16.3796 12.9535 16.9119C12.9535 17.4442 12.5225 17.8767 11.992 17.8767C11.4615 17.8767 11.0303 17.4442 11.0303 16.9119C11.0303 16.3796 11.4615 15.9474 11.992 15.9474ZM9.26936 15.9474C9.79988 15.9474 10.2309 16.3796 10.2309 16.9119C10.2309 17.4442 9.79988 17.8767 9.26936 17.8767C8.73884 17.8767 8.3078 17.4442 8.3078 16.9119C8.3078 16.3796 8.73884 15.9474 9.26936 15.9474ZM17.474 15.9474C16.9435 15.9474 16.5124 16.3796 16.5124 16.9119C16.5124 17.4442 16.9435 17.8767 17.474 17.8767C18.0045 17.8767 18.4355 17.4442 18.4355 16.9119C18.4355 16.3796 18.0045 15.9474 17.474 15.9474ZM14.7145 15.9474C15.245 15.9474 15.6761 16.3796 15.6761 16.9119C15.6761 17.4442 15.245 17.8767 14.7145 17.8767C14.1803 17.8767 13.7493 17.4442 13.7493 16.9119C13.7493 16.3796 14.1803 15.9474 14.7145 15.9474ZM25.6381 15.9474C25.1076 15.9474 24.6765 16.3796 24.6765 16.9119C24.6765 17.4442 25.1076 17.8767 25.6381 17.8767C26.1686 17.8767 26.5997 17.4442 26.5997 16.9119C26.5997 16.3796 26.1686 15.9474 25.6381 15.9474ZM20.1929 15.9474C19.6624 15.9474 19.2314 16.3796 19.2314 16.9119C19.2314 17.4442 19.6624 17.8767 20.1929 17.8767C20.7234 17.8767 21.1545 17.4442 21.1545 16.9119C21.1545 16.3796 20.7234 15.9474 20.1929 15.9474ZM25.6381 13.3C25.1076 13.3 24.6765 13.7325 24.6765 14.2648C24.6765 14.7971 25.1076 15.2293 25.6381 15.2293C26.1686 15.2293 26.5997 14.7971 26.5997 14.2648C26.5997 13.7325 26.1686 13.3 25.6381 13.3ZM22.9155 13.3C22.385 13.3 21.9539 13.7325 21.9539 14.2648C21.9539 14.7971 22.385 15.2293 22.9155 15.2293C23.4461 15.2293 23.8771 14.7971 23.8771 14.2648C23.8771 13.7325 23.4461 13.3 22.9155 13.3ZM20.1929 13.3C19.6624 13.3 19.2314 13.7325 19.2314 14.2648C19.2314 14.7971 19.6624 15.2293 20.1929 15.2293C20.7234 15.2293 21.1545 14.7971 21.1545 14.2648C21.1545 13.7325 20.7234 13.3 20.1929 13.3ZM17.474 13.3C16.9435 13.3 16.5124 13.7325 16.5124 14.2648C16.5124 14.7971 16.9435 15.2293 17.474 15.2293C18.0045 15.2293 18.4355 14.7971 18.4355 14.2648C18.4355 13.7325 18.0045 13.3 17.474 13.3ZM14.7551 13.3C14.2246 13.3 13.7935 13.7325 13.7935 14.2648C13.7935 14.7971 14.2246 15.2293 14.7551 15.2293C15.2856 15.2293 15.7167 14.7971 15.7167 14.2648C15.7167 13.7325 15.2856 13.3 14.7551 13.3ZM9.26936 13.3C9.79988 13.3 10.2309 13.7325 10.2309 14.2648C10.2309 14.7971 9.79988 15.2293 9.26936 15.2293C8.73884 15.2293 8.3078 14.7971 8.3078 14.2648C8.3078 13.7325 8.73884 13.3 9.26936 13.3ZM11.992 13.3C12.5225 13.3 12.9535 13.7325 12.9535 14.2648C12.9535 14.7971 12.5225 15.2293 11.992 15.2293C11.4615 15.2293 11.0303 14.7971 11.0303 14.2648C11.0303 13.7325 11.4615 13.3 11.992 13.3ZM14.7145 10.6529C15.245 10.6529 15.6761 11.0855 15.6761 11.6178C15.6761 12.1501 15.245 12.5822 14.7145 12.5822C14.1803 12.5822 13.7493 12.1501 13.7493 11.6178C13.7493 11.0855 14.1803 10.6529 14.7145 10.6529ZM11.992 10.6529C12.5225 10.6529 12.9535 11.0855 12.9535 11.6178C12.9535 12.1501 12.5225 12.5822 11.992 12.5822C11.4615 12.5822 11.0303 12.1501 11.0303 11.6178C11.0303 11.0855 11.4615 10.6529 11.992 10.6529ZM9.26936 10.6529C9.79988 10.6529 10.2309 11.0855 10.2309 11.6178C10.2309 12.1501 9.79988 12.5822 9.26936 12.5822C8.73884 12.5822 8.3078 12.1501 8.3078 11.6178C8.3078 11.0855 8.73884 10.6529 9.26936 10.6529ZM25.6381 10.6529C25.1076 10.6529 24.6765 11.0855 24.6765 11.6178C24.6765 12.1501 25.1076 12.5822 25.6381 12.5822C26.1686 12.5822 26.5997 12.1501 26.5997 11.6178C26.5997 11.0855 26.1686 10.6529 25.6381 10.6529ZM22.9155 10.6529C22.385 10.6529 21.9539 11.0855 21.9539 11.6178C21.9539 12.1501 22.385 12.5822 22.9155 12.5822C23.4461 12.5822 23.8771 12.1501 23.8771 11.6178C23.8771 11.0855 23.4461 10.6529 22.9155 10.6529ZM17.474 10.6529C16.9435 10.6529 16.5124 11.0855 16.5124 11.6178C16.5124 12.1501 16.9435 12.5822 17.474 12.5822C18.0045 12.5822 18.4355 12.1501 18.4355 11.6178C18.4355 11.0855 18.0045 10.6529 17.474 10.6529ZM20.1929 10.6529C19.6624 10.6529 19.2314 11.0855 19.2314 11.6178C19.2314 12.1501 19.6624 12.5822 20.1929 12.5822C20.7234 12.5822 21.1545 12.1501 21.1545 11.6178C21.1545 11.0855 20.7234 10.6529 20.1929 10.6529ZM9.74089 8.95113C10.0098 8.95113 10.2309 9.17166 10.2309 9.44316C10.2309 9.71466 10.0098 9.93519 9.74089 9.93519C9.46826 9.93519 9.25094 9.71466 9.25094 9.44316C9.25094 9.17166 9.46826 8.95113 9.74089 8.95113ZM25.1666 8.95113C24.8939 8.95113 24.6765 9.17166 24.6765 9.44316C24.6765 9.71466 24.8939 9.93519 25.1666 9.93519C25.4355 9.93519 25.6565 9.71466 25.6565 9.44316C25.6565 9.17166 25.4355 8.95113 25.1666 8.95113ZM17.474 8.00587C16.9435 8.00587 16.5124 8.43805 16.5124 8.97071C16.5124 9.503 16.9435 9.93519 17.474 9.93519C18.0045 9.93519 18.4355 9.503 18.4355 8.97071C18.4355 8.43805 18.0045 8.00587 17.474 8.00587ZM14.7145 8.00587C15.245 8.00587 15.6761 8.43805 15.6761 8.97071C15.6761 9.503 15.245 9.93519 14.7145 9.93519C14.1803 9.93519 13.7493 9.503 13.7493 8.97071C13.7493 8.43805 14.1803 8.00587 14.7145 8.00587ZM20.1929 8.00587C19.6624 8.00587 19.2314 8.43805 19.2314 8.97071C19.2314 9.503 19.6624 9.93519 20.1929 9.93519C20.7234 9.93519 21.1545 9.503 21.1545 8.97071C21.1545 8.43805 20.7234 8.00587 20.1929 8.00587ZM11.992 8.00587C12.5225 8.00587 12.9535 8.43805 12.9535 8.97071C12.9535 9.503 12.5225 9.93519 11.992 9.93519C11.4615 9.93519 11.0303 9.503 11.0303 8.97071C11.0303 8.43805 11.4615 8.00587 11.992 8.00587ZM22.9155 8.00587C22.385 8.00587 21.9539 8.43805 21.9539 8.97071C21.9539 9.503 22.385 9.93519 22.9155 9.93519C23.4461 9.93519 23.8771 9.503 23.8771 8.97071C23.8771 8.43805 23.4461 8.00587 22.9155 8.00587ZM17.474 5.35881C16.9435 5.35881 16.5124 5.791 16.5124 6.32366C16.5124 6.85595 16.9435 7.28814 17.474 7.28814C18.0045 7.28814 18.4355 6.85595 18.4355 6.32366C18.4355 5.791 18.0045 5.35881 17.474 5.35881ZM14.7145 5.35881C15.245 5.35881 15.6761 5.791 15.6761 6.32366C15.6761 6.85595 15.245 7.28814 14.7145 7.28814C14.1803 7.28814 13.7493 6.85595 13.7493 6.32366C13.7493 5.791 14.1803 5.35881 14.7145 5.35881ZM20.1929 5.35881C19.6624 5.35881 19.2314 5.791 19.2314 6.32366C19.2314 6.85595 19.6624 7.28814 20.1929 7.28814C20.7234 7.28814 21.1545 6.85595 21.1545 6.32366C21.1545 5.791 20.7234 5.35881 20.1929 5.35881ZM12.4635 6.30408C12.7324 6.30408 12.9535 6.52424 12.9535 6.79611C12.9535 7.06762 12.7324 7.28814 12.4635 7.28814C12.1909 7.28814 11.9698 7.06762 11.9698 6.79611C11.9698 6.52424 12.1909 6.30408 12.4635 6.30408ZM22.4439 6.30408C22.1713 6.30408 21.9539 6.52424 21.9539 6.79611C21.9539 7.06762 22.1713 7.28814 22.4439 7.28814C22.7166 7.28814 22.934 7.06762 22.934 6.79611C22.934 6.52424 22.7166 6.30408 22.4439 6.30408Z" fill="#FFC003"></path><path fill-rule="evenodd" clip-rule="evenodd" d="M236.912 1.95374H237.961V2.23514H237.622L237.627 3.41019H237.242L237.251 2.23514H236.912V1.95374ZM240.022 1.95372V3.41017H239.671L239.662 2.42537L239.239 3.41017H238.977L238.556 2.40474V3.41017H238.21V1.95372H238.708L239.119 2.97571L239.551 1.95372H240.022Z" fill="#3C3C3C"></path><path fill-rule="evenodd" clip-rule="evenodd" d="M39.3435 18.6251C39.3435 15.3458 40.0817 12.4088 41.5583 9.81408C43.0349 7.21931 45.0513 5.19756 47.6073 3.74905C50.1636 2.30031 53.0292 1.57605 56.2047 1.57605C59.9198 1.57605 63.1745 2.53114 65.9689 4.44133C68.7633 6.35175 70.7162 8.99413 71.8275 12.3689H64.1589C63.3968 10.7771 62.3252 9.58324 60.9439 8.78733C59.5625 7.99142 57.967 7.59346 56.157 7.59346C54.22 7.59346 52.4973 8.04697 50.9891 8.95445C49.4808 9.8617 48.3059 11.1433 47.4644 12.7989C46.6231 14.4544 46.2022 16.3963 46.2022 18.6251C46.2022 20.8219 46.6231 22.7559 47.4644 24.4273C48.3059 26.0989 49.4808 27.3883 50.9891 28.2957C52.4973 29.2031 54.22 29.6567 56.157 29.6567C57.967 29.6567 59.5625 29.2508 60.9439 28.439C62.3252 27.6271 63.3968 26.4252 64.1589 24.8335H71.8275C70.7162 28.24 68.7712 30.8904 65.9926 32.7848C63.2143 34.6791 59.9515 35.6263 56.2047 35.6263C53.0292 35.6263 50.1636 34.902 47.6073 33.4534C45.0513 32.0048 43.0349 29.991 41.5583 27.4122C40.0817 24.8335 39.3435 21.9042 39.3435 18.6251Z" fill="#3C3C3C"></path><path fill-rule="evenodd" clip-rule="evenodd" d="M101.835 8.88281L85.4974 47.8519H78.4003L84.116 34.6711L73.5422 8.88281H81.0202L87.8314 27.3645L94.7378 8.88281H101.835Z" fill="#3C3C3C"></path><path fill-rule="evenodd" clip-rule="evenodd" d="M110.646 12.7509C111.504 11.4775 112.686 10.4428 114.195 9.64686C115.703 8.85095 117.426 8.45276 119.363 8.45276C121.617 8.45276 123.657 9.01013 125.483 10.1244C127.309 11.2387 128.754 12.8226 129.817 14.8761C130.881 16.9296 131.413 19.3094 131.413 22.0157C131.413 24.7218 130.881 27.1176 129.817 29.203C128.754 31.2883 127.309 32.9041 125.483 34.0502C123.657 35.1964 121.617 35.7694 119.363 35.7694C117.394 35.7694 115.671 35.3794 114.195 34.5994C112.718 33.8194 111.535 32.8085 110.646 31.5669V35.3396H103.978V0H110.646V12.7509ZM124.602 22.0157C124.602 20.4239 124.277 19.0468 123.626 17.8847C122.975 16.7228 122.117 15.8391 121.054 15.2344C119.99 14.6294 118.839 14.3269 117.601 14.3269C116.394 14.3269 115.259 14.6373 114.195 15.2582C113.131 15.879 112.274 16.7783 111.623 17.9563C110.972 19.1343 110.646 20.5193 110.646 22.1112C110.646 23.703 110.972 25.088 111.623 26.266C112.274 27.4439 113.131 28.3434 114.195 28.9642C115.259 29.585 116.394 29.8954 117.601 29.8954C118.839 29.8954 119.99 29.5771 121.054 28.9403C122.117 28.3036 122.975 27.3962 123.626 26.2182C124.277 25.0402 124.602 23.6393 124.602 22.0157Z" fill="#3C3C3C"></path><path fill-rule="evenodd" clip-rule="evenodd" d="M159.849 21.5381C159.849 22.4932 159.785 23.3529 159.658 24.1168H140.368C140.527 26.0271 141.193 27.5235 142.368 28.606C143.543 29.6885 144.988 30.2297 146.702 30.2297C149.179 30.2297 150.942 29.1632 151.99 27.03H159.182C158.42 29.577 156.959 31.6703 154.8 33.31C152.64 34.9496 149.989 35.7694 146.845 35.7694C144.305 35.7694 142.027 35.2043 140.01 34.0741C137.994 32.9438 136.422 31.344 135.295 29.2746C134.168 27.2051 133.604 24.8172 133.604 22.1111C133.604 19.3731 134.16 16.9695 135.271 14.8999C136.383 12.8305 137.939 11.2387 139.939 10.1244C141.94 9.01012 144.242 8.45276 146.845 8.45276C149.354 8.45276 151.601 8.99402 153.585 10.0766C155.57 11.1591 157.11 12.6951 158.205 14.6851C159.301 16.6749 159.849 18.9592 159.849 21.5381ZM152.942 19.6276C152.91 17.9086 152.291 16.5315 151.084 15.4968C149.878 14.4621 148.401 13.9446 146.655 13.9446C145.004 13.9446 143.614 14.4462 142.487 15.4489C141.36 16.4519 140.669 17.8448 140.415 19.6276H152.942Z" fill="#3C3C3C"></path><path fill-rule="evenodd" clip-rule="evenodd" d="M168.993 12.9897C169.851 11.5888 170.97 10.4904 172.351 9.69448C173.733 8.89857 175.313 8.50061 177.091 8.50061V15.5207H175.328C173.233 15.5207 171.653 16.0144 170.589 17.0012C169.525 17.9883 168.993 19.7073 168.993 22.159V35.3396H162.325V8.88269H168.993V12.9897Z" fill="#3C3C3C"></path><path fill-rule="evenodd" clip-rule="evenodd" d="M192.094 35.674C189.776 35.674 187.689 35.276 185.831 34.4801C183.973 33.6842 182.505 32.538 181.425 31.0416C180.345 29.5453 179.79 27.7783 179.758 25.7407H186.903C186.998 27.1097 187.482 28.1922 188.355 28.9881C189.228 29.7841 190.427 30.182 191.951 30.182C193.507 30.182 194.73 29.808 195.619 29.0598C196.508 28.3116 196.953 27.3326 196.953 26.1228C196.953 25.1357 196.651 24.3239 196.048 23.6872C195.444 23.0505 194.69 22.5491 193.785 22.1829C192.88 21.8167 191.634 21.4108 190.046 20.965C187.887 20.3283 186.133 19.6995 184.783 19.0786C183.433 18.458 182.275 17.5188 181.306 16.2612C180.337 15.0036 179.853 13.324 179.853 11.2229C179.853 9.249 180.345 7.52974 181.33 6.06512C182.314 4.60073 183.695 3.4783 185.474 2.69826C187.252 1.91822 189.284 1.5282 191.57 1.5282C195 1.5282 197.786 2.36402 199.929 4.03543C202.073 5.70708 203.256 8.03903 203.478 11.0317H196.143C196.079 9.88573 195.595 8.93857 194.69 8.19027C193.785 7.44221 192.586 7.06806 191.094 7.06806C189.792 7.06806 188.752 7.4023 187.974 8.071C187.196 8.73948 186.807 9.71044 186.807 10.9841C186.807 11.8755 187.101 12.6156 187.689 13.2047C188.276 13.7936 189.006 14.2712 189.879 14.6374C190.753 15.0036 191.983 15.4254 193.571 15.9029C195.73 16.5396 197.492 17.1764 198.858 17.8131C200.223 18.4498 201.398 19.4051 202.382 20.6786C203.367 21.9521 203.859 23.6235 203.859 25.693C203.859 27.4759 203.399 29.1314 202.478 30.6596C201.557 32.1878 200.207 33.4056 198.429 34.313C196.651 35.2203 194.539 35.674 192.094 35.674Z" fill="#3C3C3C"></path><path fill-rule="evenodd" clip-rule="evenodd" d="M235.677 35.3395H229.008L213.909 12.4641V35.3395H207.241V1.95789H213.909L229.008 24.8808V1.95789H235.677V35.3395Z" fill="#3C3C3C"></path></svg> 