<?xml version="1.0" encoding="utf-8"?>
<!-- Generator: Adobe Illustrator 26.5.0, SVG Export Plug-In . SVG Version: 6.00 Build 0)  -->
<svg version="1.1" id="Layer_1" xmlns="http://www.w3.org/2000/svg" xmlns:xlink="http://www.w3.org/1999/xlink" x="0px" y="0px"
	 viewBox="0 0 372 56" style="enable-background:new 0 0 372 56;" xml:space="preserve">
<style type="text/css">
	.st0{fill:none;}
	.st1{fill:#FF7A8F;}
</style>
<g>
	<rect y="0" class="st0" width="372" height="55.7"/>
	<path class="st1" d="M19.2,19.7H0V35h19.2V19.7z"/>
	<path d="M34.6,35H19.2v19.2h15.3V35z"/>
	<path d="M53.8,0.6v19.2H34.6h-0.1V0.6H19.2v19.2h15.3V35h0.1h19.2v19.2h15.3V0.6H53.8z"/>
	<path d="M107.8,31.3c0,7.4-2.4,10.5-8.2,10.5c-5.7,0-8.1-3.1-8.1-10.5V0.4H76.6v30.9c0,15.7,8.2,24.4,23,24.4
		c14.9,0,23.1-8.7,23.1-24.4V0.4h-14.9L107.8,31.3L107.8,31.3z"/>
	<path d="M162.7,28.2L143.9,0.4h-13v54.9h14.7V27.6l18.8,27.7h13V0.4h-14.8V28.2z"/>
	<path d="M183.1,13.7h14.8v41.6h14.9V13.7h14.8V0.4h-44.5V13.7z"/>
	<path d="M248.3,34.1h19.1V21.3h-19.1v-7.6h23.5V0.4h-38.4v54.9h39.2V42h-24.3V34.1z"/>
	<path d="M322.6,19.3c0-11.3-8.4-18.9-20.8-18.9H279v54.9h14.9V38.2h6.2l8.6,17.1h16.6l-10.7-20.8C319.6,31.3,322.6,25.8,322.6,19.3
		z M301,25.2h-7.1V13.4h7.1c4.1,0,6.6,2.2,6.6,5.9C307.5,23,305.1,25.2,301,25.2z"/>
	<path d="M353.9,21.3c-8.8-1.6-11-2.4-11-4.7c0-3.4,3.8-4,6.1-4c4.2,0,6.9,2.1,7.2,5.5l0.1,0.5H371l0-0.8C370.7,7.5,361.5,0,349.1,0
		C336.9,0,328,7.3,328,17.4c0,13.3,12.1,15.5,17.9,16.6c8.9,1.7,11.2,2.5,11.2,5c0,3.1-3.5,4.3-6.9,4.3c-5.1,0-8.4-2.5-8.7-6.6
		l0-0.6h-14.6l0,0.6c0.2,11.1,9.9,19.1,23.2,19.1c12.6,0,21.9-7.6,22-18C372.1,24.6,360.3,22.5,353.9,21.3z"/>
</g>
</svg>
