<?xml version="1.0" encoding="utf-8"?>
<!-- Generator: Adobe Illustrator 27.5.0, SVG Export Plug-In . SVG Version: 6.00 Build 0)  -->
<svg version="1.1" id="Layer_1" xmlns="http://www.w3.org/2000/svg" xmlns:xlink="http://www.w3.org/1999/xlink" x="0px" y="0px"
	 viewBox="0 0 576 576" style="enable-background:new 0 0 576 576;" xml:space="preserve">
<style type="text/css">
	.st0{fill:#010101;}
	.st1{fill:#FFFFFF;}
</style>
<rect x="-0.44" y="0.55" class="st0" width="576.21" height="575.22"/>
<g>
	<g>
		<path class="st1" d="M330.66,252.42v-4.01c0-3.42-1.97-5.47-6.32-5.47c-4.36,0-8.97,1.79-14.61,4.53l-4.44-9.22
			c6.15-3.07,13.32-5.21,19.56-5.21c13.15,0,18.28,6.41,18.28,15.8v19.13c0,2.48,1.45,3.59,3.76,3.59v8.62
			c-8.63,0-12.21-1.28-14.78-5.64c-3.84,4.1-8.11,6.41-14.26,6.41c-8.02,0-13.66-4.87-13.66-12.13
			C304.19,258.82,313.66,253.62,330.66,252.42z M321.95,271.98c3.84,0,6.75-1.62,8.71-3.84v-8.8c-7.09,0.43-14,2.22-14,8.03
			C316.66,270.1,318.79,271.98,321.95,271.98z"/>
		<path class="st1" d="M354.62,234.06h11.79l0.6,5.29c3.33-3.5,8.2-6.41,13.92-6.41c10.25,0,14.6,6.32,14.6,16.65v30.32h-12.55
			v-30.66c0-4.1-1.71-6.92-5.98-6.92c-3.84,0-7.17,1.96-9.91,5.38v32.2h-12.47V234.06z"/>
		<g>
			<path class="st1" d="M282.62,220.14v39.8c0,6.15-2.99,9.65-8.2,9.65c-3.49,0-6.24-1.71-8.38-4.62l-8.57,7.76
				c4.42,5.33,10.41,8.22,17.64,8.22c12.47,0,20.41-7.09,20.41-20.75v-40.06H282.62z"/>
		</g>
		<path class="st1" d="M281.28,318.72c-6.56-1.66-12.22-3.09-12.22-7.96c0-4.07,3.88-6.8,9.66-6.8c5.42,0,11,1.33,16.16,3.84
			l4.5-9.56c-7.06-3.3-14.02-4.9-21.27-4.9c-12.85,0-21.83,7.23-21.83,17.59c0,13.15,10.77,15.95,20.28,18.43
			c6.66,1.73,12.42,3.23,12.42,8.22c0,4.37-3.84,6.98-10.26,6.98c-5.56,0-11.83-1.88-17.68-5.31l-5.81,9.53
			c6.38,3.89,15.59,6.39,23.58,6.39c14.16,0,22.96-6.81,22.96-17.77C301.76,323.9,290.4,321.03,281.28,318.72z"/>
		<path class="st1" d="M311.87,317.15h-7.26v-8.88h7.26v-11.44h12.55v11.44h10.26v8.88h-10.26v22.8c0,3.42,1.28,5.12,4.19,5.12
			c2.31,0,4.44-0.77,6.23-2.05l4.61,7.52c-3.5,2.73-8.37,4.61-13.41,4.61c-9.57,0-14.18-4.7-14.18-14.95V317.15z"/>
		<path class="st1" d="M345.15,308.27h11.53l0.85,7.09c3.51-6.15,7.86-8.37,13.07-8.37c2.13,0,4.1,0.34,5.64,0.94l-1.8,11.44
			c-1.62-0.6-3.59-1.03-6.15-1.03c-4.7,0-7.86,2.91-10.67,8.2v27.58h-12.47V308.27z"/>
		<path class="st1" d="M479.13,317.15h-7.26v-8.88h7.26v-11.44h12.55v11.44h10.26v8.88h-10.26v22.8c0,3.42,1.28,5.12,4.18,5.12
			c2.31,0,4.44-0.77,6.23-2.05l4.61,7.52c-3.5,2.73-8.37,4.61-13.41,4.61c-9.57,0-14.18-4.7-14.18-14.95V317.15z"/>
		<path class="st1" d="M426.01,232.84c-12.72,0-22.97,9.05-22.97,23.74c0,15.37,9.56,24.34,23.06,24.34
			c6.83,0,13.24-2.05,18.88-5.98l-5.21-7.94c-3.84,2.39-8.11,3.93-12.72,3.93c-6.34,0-9.95-3.24-11.03-9.76h29.57
			c0.34-1.95,0.85-4,0.85-7.4C446.42,241.47,439.17,232.84,426.01,232.84z M426.35,241.89c5.98,0,8.2,4.44,8.2,10.25h-18.53
			C417.22,245.48,421.23,241.89,426.35,241.89z"/>
		<path class="st1" d="M447.85,307.07c-12.73,0-22.98,9.06-22.98,23.75c0,15.37,9.57,24.34,23.06,24.34
			c6.83,0,13.24-2.05,18.88-5.98l-5.21-7.94c-3.84,2.39-8.11,3.93-12.73,3.93c-6.34,0-9.95-3.24-11.03-9.76h29.57
			c0.34-1.95,0.85-4.01,0.85-7.4C468.26,315.7,461,307.07,447.85,307.07z M448.19,316.13c5.98,0,8.2,4.44,8.2,10.25h-18.53
			C439.05,319.72,443.07,316.13,448.19,316.13z"/>
		<path class="st1" d="M399.91,307.07c-12.72,0-22.97,9.06-22.97,23.75c0,15.37,9.56,24.34,23.06,24.34
			c6.83,0,13.24-2.05,18.88-5.98l-5.21-7.94c-3.84,2.39-8.11,3.93-12.72,3.93c-6.34,0-9.95-3.24-11.03-9.76h29.57
			c0.34-1.95,0.85-4.01,0.85-7.4C420.32,315.7,413.07,307.07,399.91,307.07z M400.25,316.13c5.98,0,8.2,4.44,8.2,10.25h-18.53
			C391.11,319.72,395.13,316.13,400.25,316.13z"/>
	</g>
	<g>
		<path class="st1" d="M74.61,322.12c12.3,20.98,35.1,35.07,61.12,35c38.93-0.11,70.51-31.86,70.41-70.79
			c-0.11-38.93-31.86-70.51-70.79-70.41c-38.93,0.11-70.51,31.86-70.41,70.79c0.01,4.73,0.51,9.36,1.42,13.83
			c0.15,0.58,0.74,0.89,1.29,0.75l9.83-2.45c0.56-0.14,0.96-0.69,0.82-1.29h0c-0.68-3.53-1.05-7.16-1.06-10.88
			c-0.09-32.14,25.99-58.37,58.14-58.46c32.15-0.09,58.37,25.99,58.46,58.14c0.09,32.15-25.99,58.37-58.14,58.46
			c-21.29,0.06-39.97-11.37-50.19-28.43l0,0c-0.28-0.51-0.91-0.75-1.45-0.48l-8.99,4.75C74.55,320.93,74.32,321.6,74.61,322.12z"/>
		<path class="st1" d="M172.7,301.77l8.97,4.81c0.53,0.28,1.23,0.11,1.46-0.45c2.46-5.92,3.85-12.4,3.91-19.18
			c0.24-28.39-22.67-51.68-51.06-51.92l-0.44,0c-28.15,0-51.25,22.91-51.49,51.06c-0.24,28.39,22.67,51.69,51.06,51.93l0.44,0
			c13.45,0,25.73-5.23,34.93-13.76c0.45-0.39,0.54-1.09,0.12-1.54l-7.65-6.9c-0.44-0.4-1.11-0.33-1.53,0.05l0,0
			c-6.92,6.11-15.98,9.84-25.88,9.84l-0.33,0c-21.61-0.18-39.04-17.91-38.86-39.52c0.18-21.43,17.76-38.86,39.18-38.86l0.33,0
			c21.61,0.18,39.04,17.91,38.86,39.52c-0.04,4.73-0.94,9.25-2.52,13.45h0C171.97,300.88,172.18,301.46,172.7,301.77z"/>
		<path class="st1" d="M187.4,213.36c-0.48-0.33-1.15-0.23-1.48,0.26l-5.74,8.32c-0.33,0.48-0.29,1.16,0.2,1.51l0,0
			c19.71,14.05,32.61,37.07,32.6,63.07c0,42.68-34.73,77.4-77.41,77.39c-42.69,0-77.41-34.73-77.4-77.42
			c0.01-42.67,34.73-77.39,77.42-77.38c9.29-0.01,18.2,1.66,26.46,4.68v-0.01c0.53,0.2,1.14-0.06,1.37-0.62l3.62-9.49
			c0.2-0.53-0.05-1.14-0.58-1.37c-9.63-3.54-20.02-5.5-30.87-5.5c-49.46-0.01-89.71,40.23-89.72,89.7
			c0,49.46,40.24,89.71,89.71,89.72c49.46,0,89.71-40.24,89.72-89.7C225.28,256.36,210.31,229.63,187.4,213.36z"/>
	</g>
	<g>
		<path class="st1" d="M530.98,298.89c0,5.39-4.24,9.63-9.75,9.63c-5.45,0-9.8-4.23-9.8-9.63c0-5.28,4.35-9.51,9.8-9.51
			C526.75,289.38,530.98,293.61,530.98,298.89z M513.87,298.89c0,4.23,3.13,7.6,7.42,7.6c4.17,0,7.25-3.36,7.25-7.54
			c0-4.24-3.07-7.66-7.31-7.66C517,291.29,513.87,294.72,513.87,298.89z M519.73,303.88h-2.2v-9.51c0.87-0.17,2.09-0.29,3.66-0.29
			c1.8,0,2.61,0.29,3.31,0.7c0.52,0.41,0.93,1.16,0.93,2.09c0,1.04-0.81,1.86-1.97,2.21v0.12c0.93,0.35,1.45,1.04,1.74,2.32
			c0.29,1.45,0.47,2.03,0.7,2.38h-2.38c-0.29-0.35-0.46-1.22-0.75-2.32c-0.17-1.04-0.76-1.51-1.97-1.51h-1.05V303.88z
			 M519.79,298.49h1.04c1.22,0,2.21-0.41,2.21-1.39c0-0.87-0.64-1.45-2.03-1.45c-0.58,0-0.99,0.06-1.22,0.12V298.49z"/>
	</g>
</g>
</svg>
