<svg width="580" height="288" viewBox="0 0 580 288" fill="none" xmlns="http://www.w3.org/2000/svg">
<path d="M184.597 119.881C186.091 118.487 187.636 117.191 189.23 115.996C190.824 114.8 192.518 113.804 194.311 113.007C196.154 112.16 198.122 111.512 200.214 111.064C202.356 110.566 204.672 110.317 207.163 110.317C211.398 110.317 215.134 111.064 218.372 112.559C221.659 114.003 224.424 116.046 226.666 118.686C228.908 121.276 230.601 124.39 231.747 128.026C232.893 131.613 233.466 135.523 233.466 139.758V189H210.302V139.758C210.302 135.972 209.43 133.033 207.686 130.94C205.943 128.798 203.377 127.727 199.99 127.727C197.449 127.727 195.058 128.275 192.816 129.371C190.625 130.417 188.483 131.862 186.39 133.705V189H163.226V111.512H177.573C180.462 111.512 182.355 112.808 183.252 115.398L184.597 119.881ZM317.949 111.512V189H303.602C300.713 189 298.82 187.705 297.923 185.114L296.578 180.631C295.084 182.076 293.54 183.396 291.946 184.591C290.352 185.737 288.633 186.733 286.79 187.58C284.996 188.377 283.029 189 280.887 189.448C278.794 189.946 276.503 190.196 274.012 190.196C269.778 190.196 266.017 189.473 262.729 188.029C259.491 186.534 256.751 184.467 254.509 181.827C252.268 179.186 250.574 176.073 249.428 172.486C248.283 168.9 247.71 164.964 247.71 160.68V111.512H270.874V160.68C270.874 164.516 271.746 167.48 273.489 169.572C275.233 171.664 277.798 172.71 281.186 172.71C283.726 172.71 286.092 172.187 288.284 171.141C290.526 170.045 292.693 168.576 294.785 166.733V111.512H317.949ZM356.852 77.14V189H333.688V77.14H356.852ZM395.672 77.14V189H372.508V77.14H395.672ZM435.016 111.512V189H411.852V111.512H435.016ZM437.407 90.2912C437.407 92.1344 437.034 93.8779 436.287 95.5218C435.539 97.1159 434.518 98.5356 433.223 99.781C431.928 100.977 430.408 101.948 428.665 102.695C426.971 103.393 425.153 103.741 423.21 103.741C421.317 103.741 419.549 103.393 417.905 102.695C416.261 101.948 414.791 100.977 413.496 99.781C412.251 98.5356 411.255 97.1159 410.507 95.5218C409.81 93.8779 409.461 92.1344 409.461 90.2912C409.461 88.3982 409.81 86.6298 410.507 84.9859C411.255 83.342 412.251 81.8973 413.496 80.652C414.791 79.4066 416.261 78.4352 417.905 77.7378C419.549 77.0404 421.317 76.6917 423.21 76.6917C425.153 76.6917 426.971 77.0404 428.665 77.7378C430.408 78.4352 431.928 79.4066 433.223 80.652C434.518 81.8973 435.539 83.342 436.287 84.9859C437.034 86.6298 437.407 88.3982 437.407 90.2912ZM456.925 189V127.428L451.844 126.382C450.101 125.984 448.681 125.361 447.585 124.514C446.539 123.667 446.016 122.422 446.016 120.778V111.662H456.925V107.253C456.925 102.82 457.623 98.8096 459.018 95.2229C460.462 91.6362 462.505 88.5726 465.145 86.032C467.835 83.4914 471.098 81.5237 474.934 80.1289C478.769 78.7341 483.128 78.0367 488.01 78.0367C489.903 78.0367 491.647 78.1612 493.241 78.4103C494.835 78.6095 496.503 78.9582 498.247 79.4564L497.799 90.7395C497.749 91.5366 497.55 92.2091 497.201 92.7571C496.852 93.2552 496.379 93.6786 495.781 94.0273C495.233 94.3262 494.635 94.5504 493.988 94.6998C493.34 94.8493 492.693 94.924 492.045 94.924C490.003 94.924 488.184 95.1233 486.59 95.5218C484.996 95.9203 483.651 96.6426 482.555 97.6888C481.509 98.6851 480.712 100.03 480.164 101.724C479.616 103.368 479.342 105.46 479.342 108.001V111.662H497.5V127.503H480.089V189H456.925ZM579.502 111.512L538.106 209.1C537.408 210.645 536.561 211.766 535.565 212.463C534.569 213.21 532.975 213.584 530.783 213.584H513.447L528.392 182.2L497.457 111.512H517.931C519.724 111.512 521.094 111.911 522.04 112.708C523.037 113.505 523.759 114.452 524.207 115.548L536.91 148.949C538.106 151.987 539.077 155.101 539.824 158.289C540.372 156.695 540.92 155.101 541.468 153.507C542.016 151.913 542.589 150.343 543.187 148.799L554.694 115.548C555.143 114.402 555.94 113.455 557.085 112.708C558.231 111.911 559.476 111.512 560.821 111.512H579.502Z" fill="#1A1A1A"/>
<path d="M34.7158 78.4411L53.1397 0L87.7543 55.5508L58.4436 113.614L34.7158 78.4411Z" fill="#1A1A1A"/>
<path d="M63.4683 121.988L91.1041 66.4377L100.874 99.3773L107.853 203.5L83.8462 254.026L58.7227 237.557L63.4683 121.988Z" fill="#1A1A1A"/>
<path d="M11.5464 66.7168L41.6946 15.9115L29.1328 76.7662L3.45105 99.9356L11.5464 66.7168Z" fill="#1A1A1A"/>
<path d="M30.5286 86.2573L0.380371 111.939L4.56762 231.694L30.5286 261.563L51.1857 238.952L55.9312 123.663L30.5286 86.2573Z" fill="#1A1A1A"/>
<path d="M55.3728 246.768L35.274 266.309L57.8851 287.804L80.7754 261.563L55.3728 246.768Z" fill="#1A1A1A"/>
</svg>
