<svg width="441" height="84" viewBox="0 0 441 84" fill="none" xmlns="http://www.w3.org/2000/svg">
<path d="M118.764 58V31.32H109.564V25.8H134.22V31.32H124.744V58H118.764ZM136.333 58V33.758H141.899L141.991 41.486L141.209 39.738C141.547 38.5113 142.129 37.4073 142.957 36.426C143.785 35.4447 144.736 34.678 145.809 34.126C146.913 33.5433 148.063 33.252 149.259 33.252C149.781 33.252 150.271 33.298 150.731 33.39C151.222 33.482 151.621 33.5893 151.927 33.712L150.409 39.922C150.072 39.738 149.658 39.5847 149.167 39.462C148.677 39.3393 148.186 39.278 147.695 39.278C146.929 39.278 146.193 39.4313 145.487 39.738C144.813 40.014 144.215 40.4127 143.693 40.934C143.172 41.4553 142.758 42.0687 142.451 42.774C142.175 43.4487 142.037 44.2153 142.037 45.074V58H136.333ZM165.748 58.46C163.325 58.46 161.163 57.9233 159.262 56.85C157.36 55.746 155.858 54.2433 154.754 52.342C153.65 50.4407 153.098 48.2787 153.098 45.856C153.098 43.4333 153.65 41.2713 154.754 39.37C155.858 37.4687 157.36 35.9813 159.262 34.908C161.163 33.804 163.325 33.252 165.748 33.252C168.14 33.252 170.286 33.804 172.188 34.908C174.089 35.9813 175.576 37.4687 176.65 39.37C177.754 41.2713 178.306 43.4333 178.306 45.856C178.306 48.2787 177.754 50.4407 176.65 52.342C175.576 54.2433 174.089 55.746 172.188 56.85C170.286 57.9233 168.14 58.46 165.748 58.46ZM165.748 53.446C167.066 53.446 168.232 53.1087 169.244 52.434C170.286 51.7593 171.099 50.8547 171.682 49.72C172.295 48.5853 172.586 47.2973 172.556 45.856C172.586 44.384 172.295 43.0807 171.682 41.946C171.099 40.8113 170.286 39.922 169.244 39.278C168.232 38.6033 167.066 38.266 165.748 38.266C164.429 38.266 163.233 38.6033 162.16 39.278C161.117 39.922 160.304 40.8267 159.722 41.992C159.139 43.1267 158.848 44.4147 158.848 45.856C158.848 47.2973 159.139 48.5853 159.722 49.72C160.304 50.8547 161.117 51.7593 162.16 52.434C163.233 53.1087 164.429 53.446 165.748 53.446ZM191.785 58.46C190.037 58.46 188.519 58.0767 187.231 57.31C185.943 56.5127 184.961 55.3933 184.287 53.952C183.612 52.48 183.275 50.732 183.275 48.708V33.758H188.933V47.512C188.933 48.8 189.132 49.904 189.531 50.824C189.929 51.7133 190.512 52.4033 191.279 52.894C192.045 53.3847 192.965 53.63 194.039 53.63C194.836 53.63 195.557 53.5073 196.201 53.262C196.875 52.986 197.458 52.618 197.949 52.158C198.439 51.6673 198.823 51.1 199.099 50.456C199.375 49.7813 199.513 49.0607 199.513 48.294V33.758H205.171V58H199.651L199.559 52.94L200.571 52.388C200.203 53.5533 199.574 54.596 198.685 55.516C197.826 56.4053 196.799 57.126 195.603 57.678C194.407 58.1993 193.134 58.46 191.785 58.46ZM214.424 58V27.594H220.082V58H214.424ZM209.64 39.002V33.758H225.372V39.002H209.64Z" fill="black"/>
<path d="M253.444 58.46C251.696 58.46 250.071 58.23 248.568 57.77C247.096 57.31 245.747 56.62 244.52 55.7C243.324 54.7493 242.251 53.584 241.3 52.204L244.704 48.294C246.207 50.4407 247.648 51.928 249.028 52.756C250.408 53.584 252.049 53.998 253.95 53.998C255.115 53.998 256.173 53.814 257.124 53.446C258.075 53.078 258.826 52.572 259.378 51.928C259.93 51.284 260.206 50.548 260.206 49.72C260.206 49.168 260.114 48.6467 259.93 48.156C259.746 47.6653 259.455 47.2207 259.056 46.822C258.688 46.4233 258.197 46.0553 257.584 45.718C257.001 45.3807 256.311 45.0893 255.514 44.844C254.717 44.568 253.797 44.338 252.754 44.154C251.098 43.8167 249.657 43.372 248.43 42.82C247.203 42.268 246.176 41.578 245.348 40.75C244.52 39.922 243.907 38.9867 243.508 37.944C243.109 36.8707 242.91 35.6747 242.91 34.356C242.91 33.068 243.186 31.872 243.738 30.768C244.321 29.664 245.103 28.7133 246.084 27.916C247.096 27.088 248.277 26.4593 249.626 26.03C250.975 25.57 252.432 25.34 253.996 25.34C255.652 25.34 257.17 25.5547 258.55 25.984C259.93 26.4133 261.157 27.0573 262.23 27.916C263.303 28.744 264.193 29.7713 264.898 30.998L261.402 34.448C260.789 33.436 260.099 32.5927 259.332 31.918C258.565 31.2127 257.722 30.6913 256.802 30.354C255.882 29.986 254.901 29.802 253.858 29.802C252.662 29.802 251.619 29.986 250.73 30.354C249.841 30.722 249.135 31.2433 248.614 31.918C248.123 32.562 247.878 33.3287 247.878 34.218C247.878 34.862 248.001 35.46 248.246 36.012C248.491 36.5333 248.859 37.0087 249.35 37.438C249.871 37.8367 250.561 38.2047 251.42 38.542C252.279 38.8487 253.306 39.1247 254.502 39.37C256.189 39.738 257.691 40.2133 259.01 40.796C260.329 41.348 261.448 42.0073 262.368 42.774C263.288 43.5407 263.978 44.3993 264.438 45.35C264.929 46.3007 265.174 47.328 265.174 48.432C265.174 50.4867 264.699 52.2653 263.748 53.768C262.797 55.2707 261.448 56.436 259.7 57.264C257.952 58.0613 255.867 58.46 253.444 58.46ZM281.873 58.46C279.512 58.46 277.396 57.9233 275.525 56.85C273.685 55.746 272.228 54.2587 271.155 52.388C270.082 50.4867 269.545 48.3247 269.545 45.902C269.545 43.4793 270.082 41.3327 271.155 39.462C272.228 37.5607 273.685 36.0733 275.525 35C277.396 33.896 279.512 33.344 281.873 33.344C284.204 33.344 286.289 33.896 288.129 35C290 36.0733 291.472 37.5607 292.545 39.462C293.618 41.3327 294.155 43.4793 294.155 45.902C294.155 48.3247 293.618 50.4867 292.545 52.388C291.472 54.2587 290 55.746 288.129 56.85C286.289 57.9233 284.204 58.46 281.873 58.46ZM281.873 54.136C283.314 54.136 284.602 53.7833 285.737 53.078C286.872 52.342 287.761 51.3607 288.405 50.134C289.049 48.8767 289.356 47.466 289.325 45.902C289.356 44.3073 289.049 42.8967 288.405 41.67C287.761 40.4127 286.872 39.4313 285.737 38.726C284.602 38.0207 283.314 37.668 281.873 37.668C280.432 37.668 279.128 38.036 277.963 38.772C276.828 39.4773 275.939 40.4587 275.295 41.716C274.651 42.9427 274.344 44.338 274.375 45.902C274.344 47.466 274.651 48.8767 275.295 50.134C275.939 51.3607 276.828 52.342 277.963 53.078C279.128 53.7833 280.432 54.136 281.873 54.136ZM301.041 58V31.136C301.041 29.756 301.348 28.5293 301.961 27.456C302.575 26.3827 303.418 25.5393 304.491 24.926C305.565 24.3127 306.807 24.006 308.217 24.006C309.199 24.006 310.119 24.19 310.977 24.558C311.836 24.926 312.526 25.4167 313.047 26.03L311.437 29.664C311.039 29.296 310.594 29.0047 310.103 28.79C309.643 28.5447 309.199 28.422 308.769 28.422C308.125 28.422 307.573 28.5293 307.113 28.744C306.684 28.928 306.362 29.2347 306.147 29.664C305.933 30.0627 305.825 30.5533 305.825 31.136V58H303.433C303.035 58 302.636 58 302.237 58C301.839 58 301.44 58 301.041 58ZM297.177 38.634V34.264H311.529V38.634H297.177ZM319.603 58V27.686H324.341V58H319.603ZM314.589 38.45V33.85H329.953V38.45H314.589ZM340.201 58L331.967 33.85L336.751 33.804L342.639 51.882L341.581 51.79L347.975 37.668H350.827L357.267 51.836L356.025 51.928L361.959 33.85H366.743L358.601 58H355.335L348.619 42.636L349.677 42.774L343.421 58H340.201ZM379.676 58.46C377.683 58.46 375.858 57.908 374.202 56.804C372.577 55.7 371.274 54.1973 370.292 52.296C369.311 50.3947 368.82 48.248 368.82 45.856C368.82 43.4333 369.311 41.2867 370.292 39.416C371.304 37.5147 372.654 36.0273 374.34 34.954C376.058 33.8807 377.974 33.344 380.09 33.344C381.348 33.344 382.498 33.528 383.54 33.896C384.583 34.264 385.488 34.7853 386.254 35.46C387.052 36.104 387.696 36.8553 388.186 37.714C388.708 38.5727 389.03 39.4927 389.152 40.474L388.094 40.106V33.85H392.878V58H388.094V52.25L389.198 51.928C389.014 52.756 388.631 53.5687 388.048 54.366C387.496 55.1327 386.776 55.8227 385.886 56.436C385.028 57.0493 384.062 57.54 382.988 57.908C381.946 58.276 380.842 58.46 379.676 58.46ZM380.918 54.09C382.36 54.09 383.632 53.7373 384.736 53.032C385.84 52.3267 386.699 51.3607 387.312 50.134C387.956 48.8767 388.278 47.4507 388.278 45.856C388.278 44.292 387.956 42.8967 387.312 41.67C386.699 40.4433 385.84 39.4773 384.736 38.772C383.632 38.0667 382.36 37.714 380.918 37.714C379.508 37.714 378.25 38.0667 377.146 38.772C376.073 39.4773 375.214 40.4433 374.57 41.67C373.957 42.8967 373.65 44.292 373.65 45.856C373.65 47.4507 373.957 48.8767 374.57 50.134C375.214 51.3607 376.073 52.3267 377.146 53.032C378.25 53.7373 379.508 54.09 380.918 54.09ZM399.494 58V33.85H404.278V41.44L403.818 39.6C404.155 38.4347 404.722 37.3767 405.52 36.426C406.348 35.4753 407.283 34.724 408.326 34.172C409.399 33.62 410.503 33.344 411.638 33.344C412.159 33.344 412.65 33.39 413.11 33.482C413.6 33.574 413.984 33.6813 414.26 33.804L413.018 38.956C412.65 38.8027 412.236 38.68 411.776 38.588C411.346 38.4653 410.917 38.404 410.488 38.404C409.66 38.404 408.862 38.5727 408.096 38.91C407.36 39.2167 406.7 39.6613 406.118 40.244C405.566 40.796 405.121 41.4553 404.784 42.222C404.446 42.958 404.278 43.7707 404.278 44.66V58H399.494ZM428.283 58.46C425.799 58.46 423.591 57.9387 421.659 56.896C419.758 55.8227 418.255 54.366 417.151 52.526C416.078 50.686 415.541 48.57 415.541 46.178C415.541 44.2767 415.848 42.544 416.461 40.98C417.075 39.416 417.918 38.0667 418.991 36.932C420.095 35.7667 421.399 34.8773 422.901 34.264C424.435 33.62 426.091 33.298 427.869 33.298C429.433 33.298 430.89 33.6047 432.239 34.218C433.589 34.8007 434.754 35.6133 435.735 36.656C436.747 37.6987 437.514 38.9407 438.035 40.382C438.587 41.7927 438.848 43.3413 438.817 45.028L438.771 47.052H419.037L417.979 43.28H434.677L433.987 44.062V42.958C433.895 41.946 433.558 41.0413 432.975 40.244C432.393 39.4467 431.657 38.818 430.767 38.358C429.878 37.898 428.912 37.668 427.869 37.668C426.213 37.668 424.818 37.99 423.683 38.634C422.549 39.2473 421.69 40.1673 421.107 41.394C420.525 42.59 420.233 44.0773 420.233 45.856C420.233 47.5427 420.586 49.0147 421.291 50.272C421.997 51.4987 422.993 52.4493 424.281 53.124C425.569 53.7987 427.057 54.136 428.743 54.136C429.939 54.136 431.043 53.9367 432.055 53.538C433.098 53.1393 434.217 52.4187 435.413 51.376L437.805 54.734C437.069 55.47 436.165 56.114 435.091 56.666C434.049 57.218 432.929 57.6627 431.733 58C430.568 58.3067 429.418 58.46 428.283 58.46Z" fill="black"/>
<path d="M23.8322 25.1479C19.5652 27.0191 15.5045 26.1321 12.4535 24.5753C11.2348 23.9535 9.74591 25.0815 10.5253 26.206C13.9879 31.2018 21.0529 37.4308 33.4301 40.2744M23.8322 25.1479C19.7797 19.3955 11.4615 17.7976 10.0752 16.7324M23.8322 25.1479C25.2185 26.9943 28.3325 30.325 29.6975 28.8762C31.4038 27.0653 26.8182 15.241 10.0752 16.7324M33.4301 40.2744C37.7313 40.452 45.95 38.08 44.4143 27.1718M33.4301 40.2744C36.4444 40.967 39.3352 41.6318 42.0682 42.2991M66.7028 61.4729C63.5035 74.2559 46.2273 71.5928 35.3496 61.4729M66.7028 61.4729C68.6987 53.4981 63.5556 49.1303 54.2255 45.783M66.7028 61.4729C66.3473 67.8538 61.3919 80.6827 44.4143 80.9511M35.3496 61.4729C24.472 51.353 15.514 35.5873 6.34265 38.357C2.82506 39.4193 1.89594 41.7195 2.00896 44.855M35.3496 61.4729C34.6503 61.9196 33.7421 62.7693 32.9099 64.0295M13.4878 72.9776C14.085 78.7726 14.4476 79.5467 11.4615 80.0083C5.15229 80.9836 3.44542 79.2112 3.472 73.7233M13.4878 72.9776C13.2559 70.728 14.063 69.5058 15.4073 68.9855M13.4878 72.9776C9.30734 72.3811 5.06875 73.2262 3.472 73.7233M62.2238 81.2866C81.6329 77.9843 91.3269 68.3569 92.5 56M62.2238 81.2866C55.3427 82.4573 49.3998 82.0749 44.4143 80.9511M62.2238 81.2866C71.6392 78.1618 91.5446 63.945 84 42.2991C76.4554 20.6532 58.8695 16.2659 52.5 15.5M92.5 56C93.4623 45.8636 92.4457 36.0889 81.0392 25.1479M92.5 56C98.6853 47.2649 93.6836 38.357 93.4703 32.3916C93.3658 29.4698 94.0288 27.2773 94.779 25.829C95.2443 24.9305 94.8913 23.5964 93.8933 23.4296C88.7579 22.5715 83.3492 24.1267 81.0392 25.1479M10.0752 16.7324C8.68881 15.6671 18.5 8.95605 25.1119 7.14513C31.7238 5.3342 50.2797 3.84285 71.6084 17.7976C75.4411 20.3053 78.5404 22.7511 81.0392 25.1479M42.0682 42.2991L39.401 53.2407C39.2269 53.9549 39.6815 54.6738 40.4124 54.7514C44.9899 55.237 52.5265 54.0151 54.2255 45.783M42.0682 42.2991C46.6089 43.4078 50.7138 44.5231 54.2255 45.783M44.4143 80.9511C38.5774 79.6353 34.0527 77.3033 30.8706 75.2575M30.8706 75.2575C29.1044 74.122 27.7518 73.0748 26.8182 72.3385C25.7463 71.4932 24.2567 70.6331 22.6591 69.959M30.8706 75.2575C30.6922 74.0659 30.6226 72.9511 30.64 71.9124M32.9099 64.0295C27.289 57.8866 14.9808 45.1959 10.715 43.5767C6.4493 41.9575 3.1336 43.7542 2.00896 44.855M32.9099 64.0295C32.1515 65.178 31.4563 66.6674 31.0397 68.5036M2.00896 44.855C2.04892 45.9638 2.2192 47.177 2.45142 48.4769M31.0397 68.5036C24.2301 59.804 8.97899 43.6193 2.45142 48.4769M31.0397 68.5036C30.8066 69.531 30.6608 70.6669 30.64 71.9124M2.45142 48.4769C2.78431 50.3403 3.24449 52.3817 3.6305 54.5488M30.64 71.9124C23.6477 64.2781 8.45659 50.1173 3.6305 54.5488M3.6305 54.5488C3.95202 56.3537 4.22208 58.2458 4.32432 60.1946M4.32432 60.1946C4.4029 61.6925 4.38234 63.2239 4.20978 64.7752C4.16126 65.2114 4.11404 65.6375 4.06848 66.0535M4.32432 60.1946C8.87181 61.0229 18.9052 64.1354 22.6591 69.959M22.6591 69.959C20.0923 68.8762 17.2468 68.2737 15.4073 68.9855M4.06848 66.0535C7.13715 66.4458 13.701 67.5815 15.4073 68.9855M4.06848 66.0535C3.72916 69.1518 3.48184 71.6921 3.472 73.7233M63.6101 32.3916C57.3603 32.6854 51.1368 35.5322 47.807 37.4952C47.0921 37.9167 47.0233 38.8912 47.7003 39.3712C50.3934 41.2805 55.3036 43.4209 60.4108 41.5527C65.3929 39.7303 67.4941 36.1497 68.1622 33.7504C68.3632 33.0285 67.7737 32.3916 67.0243 32.3916H63.6101Z" stroke="black" stroke-width="3"/>
<circle cx="32.875" cy="16.1477" r="4.53409" stroke="black" stroke-width="3"/>
<path d="M32.6965 15.2401C32.6004 14.6424 32.8167 14.327 32.9369 14.244C33.7784 13.8704 36.1826 16.2363 33.7784 17.7305C31.3742 19.2247 30.2924 15.6137 30.5328 15.2401C30.7732 14.8666 31.8551 16.2363 32.3359 16.2363C32.8168 16.2363 32.8167 15.9872 32.6965 15.2401Z" fill="black"/>
</svg>
