<svg width="1543" height="471" viewBox="0 0 1543 471" fill="none" xmlns="http://www.w3.org/2000/svg">
<path d="M306.772 148.62V287.384L216.631 339.421L126.51 287.384V183.311L216.638 131.274V96.583L96.4607 165.958V304.737L216.631 374.112L336.815 304.73V165.958L306.772 148.62Z" fill="url(#paint0_linear_182_533)"/>
<path d="M186.595 252.693V218.002L216.638 200.656V165.965L156.553 200.656V270.039L216.638 304.73L276.73 270.039L276.723 131.274L246.687 113.929V252.693L216.638 270.039L186.595 252.693Z" fill="url(#paint1_linear_182_533)"/>
<path d="M390.835 304.497V164.64H444.279C455.2 164.64 464.347 166.21 471.718 169.349C479.227 172.353 485.233 176.789 489.738 182.659C494.243 188.529 497.451 195.628 499.362 203.955C501.41 212.283 502.434 221.77 502.434 232.418C502.434 243.203 501.478 252.963 499.567 261.7C497.792 270.437 494.721 278.013 490.352 284.429C485.984 290.845 480.114 295.828 472.742 299.377C465.371 302.79 456.156 304.497 445.098 304.497H390.835ZM419.093 280.744H443.46C449.876 280.744 455.064 279.515 459.023 277.058C462.982 274.6 465.985 271.188 468.033 266.819C470.217 262.314 471.65 257.195 472.333 251.462C473.152 245.592 473.561 239.244 473.561 232.418C473.561 225.866 473.152 219.927 472.333 214.603C471.514 209.143 470.012 204.501 467.828 200.679C465.78 196.72 462.777 193.717 458.818 191.669C454.996 189.485 449.876 188.393 443.46 188.393H419.093V280.744Z" fill="black"/>
<path d="M524.024 304.497V201.703H551.258V213.784C553.579 212.009 556.446 210.167 559.858 208.255C563.271 206.208 566.957 204.365 570.916 202.727C575.011 200.952 578.902 199.792 582.588 199.246V225.661C579.038 226.207 575.284 227.162 571.326 228.527C567.367 229.756 563.613 231.121 560.063 232.623C556.65 234.125 553.715 235.49 551.258 236.718V304.497H524.024Z" fill="black"/>
<path d="M641.891 306.749C630.287 306.749 620.936 304.838 613.837 301.016C606.875 297.193 601.824 291.323 598.685 283.406C595.545 275.351 593.975 264.976 593.975 252.281C593.975 239.995 595.613 230.029 598.889 222.384C602.166 214.603 607.353 208.87 614.452 205.184C621.55 201.362 630.697 199.45 641.891 199.45C653.221 199.45 662.368 201.362 669.33 205.184C676.428 208.87 681.616 214.603 684.892 222.384C688.305 230.029 690.011 239.995 690.011 252.281C690.011 264.976 688.442 275.351 685.302 283.406C682.162 291.323 677.043 297.193 669.944 301.016C662.982 304.838 653.631 306.749 641.891 306.749ZM641.891 284.225C647.624 284.225 651.924 283.201 654.791 281.153C657.658 278.969 659.569 275.556 660.525 270.915C661.617 266.137 662.163 259.925 662.163 252.281C662.163 244.772 661.549 238.834 660.32 234.466C659.091 229.961 657.044 226.753 654.177 224.842C651.31 222.93 647.215 221.975 641.891 221.975C636.703 221.975 632.608 222.93 629.605 224.842C626.738 226.753 624.69 229.961 623.462 234.466C622.233 238.834 621.619 244.772 621.619 252.281C621.619 259.925 622.096 266.137 623.052 270.915C624.144 275.556 626.124 278.969 628.99 281.153C631.857 283.201 636.157 284.225 641.891 284.225Z" fill="black"/>
<path d="M710.691 347.703V201.703H737.721L737.926 208.255C739.837 207.027 742.226 205.73 745.093 204.365C748.096 203 751.304 201.839 754.717 200.884C758.13 199.928 761.474 199.45 764.75 199.45C778.538 199.45 788.435 203.887 794.442 212.76C800.448 221.497 803.452 234.807 803.452 252.69C803.452 265.522 801.95 275.897 798.947 283.815C795.943 291.733 791.097 297.535 784.408 301.22C777.856 304.906 769.187 306.749 758.403 306.749C754.99 306.749 751.304 306.476 747.345 305.93C743.386 305.384 740.246 304.838 737.926 304.292V347.703H710.691ZM754.102 284.02C759.563 284.02 763.863 282.859 767.003 280.539C770.143 278.218 772.327 274.737 773.555 270.096C774.921 265.318 775.603 259.311 775.603 252.076C775.603 240.882 774.033 233.169 770.893 228.937C767.89 224.569 763.522 222.384 757.788 222.384C755.604 222.384 753.283 222.657 750.826 223.204C748.369 223.75 745.98 224.432 743.659 225.251C741.339 226.07 739.427 226.889 737.926 227.708V282.586C739.564 282.723 741.885 282.996 744.888 283.406C748.028 283.815 751.099 284.02 754.102 284.02Z" fill="black"/>
<path d="M819.627 304.497V281.358L866.109 225.866H819.627V201.703H901.944V224.023L855.052 280.334H902.149V304.497H819.627Z" fill="black"/>
<path d="M966.185 306.749C954.582 306.749 945.231 304.838 938.132 301.016C931.17 297.193 926.119 291.323 922.979 283.406C919.839 275.351 918.269 264.976 918.269 252.281C918.269 239.995 919.907 230.029 923.184 222.384C926.46 214.603 931.648 208.87 938.746 205.184C945.845 201.362 954.991 199.45 966.185 199.45C977.516 199.45 986.662 201.362 993.624 205.184C1000.72 208.87 1005.91 214.603 1009.19 222.384C1012.6 230.029 1014.31 239.995 1014.31 252.281C1014.31 264.976 1012.74 275.351 1009.6 283.406C1006.46 291.323 1001.34 297.193 994.239 301.016C987.276 304.838 977.925 306.749 966.185 306.749ZM966.185 284.225C971.919 284.225 976.219 283.201 979.086 281.153C981.952 278.969 983.864 275.556 984.819 270.915C985.911 266.137 986.457 259.925 986.457 252.281C986.457 244.772 985.843 238.834 984.614 234.466C983.386 229.961 981.338 226.753 978.471 224.842C975.605 222.93 971.509 221.975 966.185 221.975C960.998 221.975 956.902 222.93 953.899 224.842C951.032 226.753 948.985 229.961 947.756 234.466C946.527 238.834 945.913 244.772 945.913 252.281C945.913 259.925 946.391 266.137 947.347 270.915C948.439 275.556 950.418 278.969 953.285 281.153C956.152 283.201 960.452 284.225 966.185 284.225Z" fill="black"/>
<path d="M1034.99 304.497V201.703H1062.22V208.255C1064.4 206.89 1067.07 205.593 1070.21 204.365C1073.35 203 1076.62 201.839 1080.04 200.884C1083.58 199.928 1087 199.45 1090.27 199.45C1099.83 199.45 1107.2 201.157 1112.39 204.57C1117.71 207.846 1121.47 213.306 1123.65 220.951C1125.84 228.459 1126.93 238.561 1126.93 251.257V304.497H1099.49V252.69C1099.49 245.592 1099.08 239.926 1098.26 235.694C1097.44 231.326 1095.87 228.186 1093.55 226.275C1091.23 224.364 1087.82 223.408 1083.31 223.408C1080.85 223.408 1078.26 223.681 1075.53 224.227C1072.94 224.637 1070.41 225.251 1067.95 226.07C1065.63 226.889 1063.72 227.708 1062.22 228.527V304.497H1034.99Z" fill="black"/>
<path d="M1191.78 306.749C1180.45 306.749 1171.44 304.838 1164.75 301.016C1158.2 297.193 1153.49 291.391 1150.63 283.61C1147.76 275.829 1146.33 266.068 1146.33 254.328C1146.33 241.633 1148.1 231.258 1151.65 223.204C1155.34 215.149 1160.66 209.211 1167.62 205.389C1174.58 201.43 1183.18 199.45 1193.42 199.45C1208.58 199.45 1219.97 203.273 1227.62 210.917C1235.4 218.562 1239.29 230.643 1239.29 247.161L1238.06 262.314H1173.76C1173.9 269.959 1175.47 275.693 1178.47 279.515C1181.48 283.337 1186.67 285.248 1194.04 285.248C1198.27 285.248 1202.91 285.18 1207.96 285.044C1213.01 284.771 1217.99 284.498 1222.91 284.225C1227.96 283.952 1232.26 283.679 1235.81 283.406L1236.42 302.449C1233.01 302.995 1228.71 303.609 1223.52 304.292C1218.34 304.974 1212.94 305.521 1207.35 305.93C1201.89 306.476 1196.7 306.749 1191.78 306.749ZM1173.76 244.909H1212.06C1212.06 235.626 1210.55 229.142 1207.55 225.456C1204.68 221.77 1199.98 219.927 1193.42 219.927C1187.01 219.927 1182.09 221.838 1178.68 225.661C1175.4 229.483 1173.76 235.899 1173.76 244.909Z" fill="black"/>
<path d="M1280.41 304.497L1316.04 164.64H1365.39L1400.81 304.497H1372.55L1364.77 276.239H1315.83L1308.46 304.497H1280.41ZM1320.34 253.509H1360.68L1344.91 187.574H1336.31L1320.34 253.509Z" fill="black"/>
<path d="M1418.28 304.497V164.64H1446.54V304.497H1418.28Z" fill="black"/>
<defs>
<linearGradient id="paint0_linear_182_533" x1="235.504" y1="96.583" x2="329.82" y2="384.289" gradientUnits="userSpaceOnUse">
<stop stop-color="#7745AF"/>
<stop offset="0.984375" stop-color="#2885B5"/>
</linearGradient>
<linearGradient id="paint1_linear_182_533" x1="235.504" y1="96.583" x2="329.82" y2="384.289" gradientUnits="userSpaceOnUse">
<stop stop-color="#7745AF"/>
<stop offset="0.984375" stop-color="#2885B5"/>
</linearGradient>
</defs>
</svg>
