<?xml version="1.0" encoding="UTF-8"?>
<svg id="Layer_1" data-name="Layer 1" xmlns="http://www.w3.org/2000/svg" viewBox="0 0 500 200">
  <defs>
    <style>
      .cls-1, .cls-2 {
        stroke-width: 0px;
      }

      .cls-2 {
        fill: #3769fe;
      }
    </style>
  </defs>
  <path class="cls-1" d="m469.72,142.1h0c-5.8,0-10.45-1.41-13.94-4.21-3.49-2.86-5.25-7.85-5.25-15.06v-24.06h-9.43v-11.93h9.43l1.71-14.82h12.55v14.82h14.91v11.93h-14.91v24.15c0,2.72.55,4.54,1.66,5.63,1.2.94,3.23,1.44,6.04,1.44h6.9v12.12h-9.66Z"/>
  <path class="cls-1" d="m398.29,142.1h0v-55.3h12.7l1.32,10.34c1.99-3.56,4.69-6.36,8.1-8.47,3.49-2.16,7.59-3.23,12.28-3.23v15.07h-4.06c-3.07,0-5.88.48-8.32,1.46-2.44.97-4.36,2.62-5.78,5-1.34,2.38-1.99,5.72-1.99,9.95v25.19h-14.25Z"/>
  <path class="cls-1" d="m357.3,132.32h0c4.08,0,7.22-1.36,9.46-4.03,2.31-2.67,3.73-5.99,4.33-9.93h-12.14c-3.78,0-6.49.71-8.11,2.11-1.66,1.31-2.47,3-2.47,5.02,0,2.14.82,3.83,2.47,5,1.62,1.22,3.78,1.84,6.45,1.84m-3.23,11.12h0c-4.73,0-8.64-.75-11.69-2.24-3.04-1.53-5.33-3.59-6.81-6.12-1.47-2.53-2.21-5.29-2.21-8.38,0-5.1,1.97-9.27,5.97-12.47,4.05-3.2,10.03-4.78,18.04-4.78h14.03v-1.36c0-3.79-1.05-6.6-3.21-8.37-2.18-1.79-4.83-2.67-8.01-2.67-2.89,0-5.43.7-7.59,2.11-2.12,1.34-3.44,3.37-4,6.02h-13.91c.37-4.01,1.71-7.48,4.01-10.48,2.39-2.99,5.43-5.24,9.11-6.78,3.73-1.64,7.86-2.48,12.46-2.48,7.87,0,14.1,1.97,18.59,5.95,4.57,3.93,6.81,9.49,6.81,16.7v34.02h-12.14l-1.34-8.9c-1.6,2.94-3.91,5.43-6.9,7.35-2.89,1.92-6.62,2.89-11.22,2.89"/>
  <path class="cls-1" d="m295.71,131.5h0c4.55,0,8.28-1.55,11.22-4.64,2.99-3.08,4.46-7.11,4.46-11.97s-1.47-8.92-4.46-12.1c-2.94-3.13-6.67-4.73-11.22-4.73s-8.33,1.6-11.32,4.73c-2.89,3.1-4.33,7.11-4.33,11.97s1.44,8.93,4.33,12.1c2.99,3.09,6.75,4.64,11.32,4.64m-29.62,34.29h0v-79h12.64l1.57,8.01c1.75-2.48,4.1-4.69,6.99-6.56,2.94-1.87,6.77-2.8,11.47-2.8,5.15,0,9.8,1.26,13.84,3.84,4.1,2.57,7.31,6.04,9.66,10.47,2.39,4.46,3.58,9.5,3.58,15.15s-1.19,10.66-3.58,15.11c-2.36,4.39-5.57,7.85-9.66,10.39-4.05,2.47-8.69,3.74-13.84,3.74-4.2,0-7.79-.8-10.92-2.4-3.13-1.53-5.6-3.77-7.54-6.63v30.68h-14.21Z"/>
  <path class="cls-1" d="m161.89,142.1h0v-55.3h12.55l1.25,7.48c1.74-2.7,4.08-4.81,6.99-6.36,2.99-1.63,6.39-2.48,10.25-2.48,8.53,0,14.59,3.33,18.13,9.93,2.02-3.04,4.68-5.44,8.01-7.26,3.44-1.78,7.12-2.67,11.13-2.67,7.22,0,12.74,2.16,16.6,6.46,3.86,4.36,5.78,10.66,5.78,19v31.21h-14.24v-29.9c0-4.73-.92-8.37-2.78-10.9-1.79-2.52-4.6-3.79-8.36-3.79s-7,1.41-9.34,4.22c-2.31,2.86-3.44,6.78-3.44,11.84v28.54h-14.26v-29.9c0-4.73-.92-8.37-2.78-10.9-1.87-2.52-4.73-3.79-8.59-3.79s-6.86,1.41-9.25,4.22c-2.31,2.86-3.46,6.78-3.46,11.84v28.54h-14.21Z"/>
  <path class="cls-1" d="m133.44,142.1h0v-48.05c0-4.03,3.18-7.26,7.13-7.26s7.15,3.23,7.15,7.26v48.05h-14.28Z"/>
  <path class="cls-1" d="m148.02,70.91h0c0,4.4-3.49,7.9-7.77,7.9s-7.77-3.5-7.77-7.9,3.49-7.9,7.77-7.9,7.77,3.55,7.77,7.9"/>
  <path class="cls-2" d="m93.63,63.09h0v7.84c0,4.39-3.5,7.89-7.78,7.89s-7.76-3.5-7.76-7.89v-7.84h15.53Z"/>
  <path class="cls-2" d="m78.1,142.1h0v-43.44c0-4.35,3.5-7.9,7.76-7.9s7.77,3.55,7.77,7.9v43.44h-15.53Z"/>
  <path class="cls-2" d="m39.17,63.09h0v43.46c0,4.35-3.44,7.89-7.77,7.89s-7.77-3.54-7.77-7.89v-43.46h15.53Z"/>
  <path class="cls-2" d="m23.64,142.1h0v-7.9c0-4.35,3.49-7.9,7.77-7.9s7.77,3.55,7.77,7.9v7.9h-15.53Z"/>
  <path class="cls-2" d="m66.44,63.09h0v25.67c0,4.33-3.49,7.9-7.77,7.9s-7.77-3.57-7.77-7.9v-25.67h15.53Z"/>
  <path class="cls-2" d="m50.91,142.1h0v-25.68c0-4.33,3.44-7.89,7.77-7.89s7.77,3.55,7.77,7.89v25.68h-15.53Z"/>
</svg>