<svg width="167" height="48" viewBox="0 0 167 48" fill="none" xmlns="http://www.w3.org/2000/svg"><path d="M36.779 6.884c-.974-.812-2.215-1.655-3.58-2.437a1.537 1.537 0 00-1.54.008 1.514 1.514 0 00-.767 1.333v4.86c-1.204-.575-3.388-1.48-5.918-1.931a.142.142 0 01-.115-.146V2.615c0-.874-.62-1.625-1.48-1.786-3.096-.567-5.948-.567-9.052 0a1.804 1.804 0 00-1.48 1.786V8.57c0 .069-.046.13-.115.146-2.53.444-4.714 1.356-5.917 1.931v-4.86c0-.552-.284-1.05-.767-1.333a1.52 1.52 0 00-1.54-.008C3.15 5.22 1.923 6.057.942 6.869a2.6 2.6 0 00-.943 2v36.902c0 .399.176.767.49 1.02a1.288 1.288 0 001.09.253c2.015-.452 4.936-.89 8.002-1.188a1.657 1.657 0 001.502-1.648v-24c0-.507.238-.744.353-.852.583-.582 1.648-1.08 3.15-1.472 1.043-.276 2.2-.413 3.749-.467 2.706-.085 5.182.567 7.152 1.9.184.123.36.254.536.392 2.285 1.763 3.227 5.243 2.23 8.279-.95 2.912-3.686 4.292-8.6 4.346a1.078 1.078 0 00-1.058 1.073v10.187c0 .43.17.828.468 1.135a1.57 1.57 0 001.134.468h.008c6.156-.07 12.893 1.142 15.914 1.84.39.091.79 0 1.096-.246.314-.245.49-.621.49-1.02V8.893a2.59 2.59 0 00-.927-2.009z" fill="#78CBFA"/><path fill-rule="evenodd" clip-rule="evenodd" d="M147.216 26.048c-1.005-.72-2.699-1.211-5.067-1.48-1.127-.122-1.886-.245-2.262-.367-.375-.115-.567-.284-.567-.49 0-.392.483-.591 1.457-.591.697 0 1.218.153 1.563.452.192.161.414.245.675.245h4.668a.564.564 0 00.383-.13.445.445 0 00.138-.345c0-1.065-.682-2.07-2.039-3.028-1.364-.958-3.142-1.433-5.35-1.433-2.208 0-3.971.445-5.289 1.334-1.319.889-1.978 2.054-1.978 3.487 0 2.56 2.047 4.078 6.148 4.554 1.288.138 2.146.283 2.583.429.437.146.652.345.652.598 0 .406-.69.605-2.062.605-.997 0-1.702-.184-2.108-.551a1.048 1.048 0 00-.736-.269h-4.454c-.337 0-.498.161-.498.476 0 1.287.667 2.376 2.008 3.257 1.342.882 3.22 1.326 5.634 1.326 2.415 0 4.354-.444 5.818-1.341 1.464-.897 2.193-2.062 2.193-3.503-.008-1.441-.506-2.514-1.51-3.235zm-63.18 3.825h-8.662V28.51h7.252a.568.568 0 00.414-.177.568.568 0 00.176-.413v-2.821a.568.568 0 00-.176-.414.568.568 0 00-.414-.177h-7.252v-1.364h8.448a.568.568 0 00.414-.176.568.568 0 00.176-.414v-3.059a.568.568 0 00-.176-.414.568.568 0 00-.414-.176H70.315a.568.568 0 00-.414.176.569.569 0 00-.176.414v14.028c0 .16.061.299.176.414a.568.568 0 00.414.176h13.721c.161 0 .3-.061.414-.176a.568.568 0 00.177-.414v-3.059a.568.568 0 00-.177-.414.568.568 0 00-.414-.176zm-18.389-9.466c-1.204-.997-2.829-1.503-4.883-1.503H52.64a.568.568 0 00-.414.176.568.568 0 00-.177.414v14.028c0 .161.062.299.177.414a.568.568 0 00.414.176h4.668a.568.568 0 00.414-.176.568.568 0 00.176-.414v-4.17h2.867c2.43 0 4.155-.46 5.167-1.38 1.011-.92 1.517-2.161 1.517-3.725s-.605-2.844-1.801-3.84zm-4.162 4.622c-.207.207-.483.306-.813.306h-2.76v-2.391h2.76c.345 0 .621.115.828.345.2.23.307.529.307.889s-.115.651-.322.85zm41.056-.867c0 1.97-.759 3.396-2.277 4.278l2.668 5.013a.499.499 0 01.046.237c0 .1-.046.2-.138.292a.463.463 0 01-.337.138h-4.93c-.436 0-.735-.184-.911-.544l-1.91-4.3h-1.824v4.253a.568.568 0 01-.176.414.568.568 0 01-.414.177h-4.691a.568.568 0 01-.414-.176.568.568 0 01-.176-.415V19.502c0-.161.061-.3.176-.414a.568.568 0 01.414-.177h8.44c1.985 0 3.556.468 4.714 1.41 1.157.936 1.74 2.216 1.74 3.841zm-6.899 1.081c.314 0 .56-.107.736-.314.176-.207.268-.475.268-.79 0-.314-.084-.598-.253-.835-.168-.238-.421-.36-.751-.36h-2.714v2.3h2.714zm25.756-6.34h-3.97c-.407 0-.721.2-.936.591l-2.843 5.213-2.844-5.213c-.215-.39-.529-.59-.936-.59h-3.97a.568.568 0 00-.414.176.568.568 0 00-.176.414v14.028c0 .16.061.299.176.414a.568.568 0 00.414.176h3.932a.568.568 0 00.414-.176.568.568 0 00.176-.414v-6.73l1.587 3.127c.046.1.146.215.307.345.161.13.36.192.605.192h1.48c.176 0 .345-.046.521-.138a.893.893 0 00.391-.399l1.587-3.127v6.73c0 .16.061.299.176.414a.568.568 0 00.414.176h3.932a.568.568 0 00.414-.176.569.569 0 00.177-.414V19.494a.569.569 0 00-.177-.414.633.633 0 00-.437-.176zm4.331 0h4.691c.161 0 .299.062.414.177a.569.569 0 01.177.414v14.027a.569.569 0 01-.177.415.568.568 0 01-.414.176h-4.691a.568.568 0 01-.414-.176.568.568 0 01-.176-.414V19.494c0-.16.061-.299.176-.414a.568.568 0 01.414-.176zm33.192-.014c2.391 0 4.338.528 5.833 1.586S167 23.112 167 25.22v2.583c0 1.457-.368 2.668-1.088 3.642a5.84 5.84 0 01-2.844 2.077c-1.173.406-2.553.613-4.147.613-1.595 0-2.975-.2-4.147-.613-1.173-.414-2.124-1.104-2.844-2.077-.728-.974-1.089-2.208-1.089-3.688V25.26c0-2.131.744-3.726 2.246-4.784 1.503-1.058 3.442-1.587 5.834-1.587zm1.617 10.54c.399-.307.598-.744.598-1.304v-3.258c0-.56-.199-.996-.598-1.303-.399-.306-.935-.46-1.617-.46-.683 0-1.219.154-1.618.453-.398.306-.598.736-.598 1.295v3.289c0 .56.2.996.598 1.295.399.3.935.452 1.618.452.682 0 1.218-.153 1.617-.46z" fill="#78CBFA"/></svg>