<svg width="538" height="100" viewBox="0 0 538 100" fill="none" xmlns="http://www.w3.org/2000/svg">
<g clip-path="url(#clip0_1_995)">
<path d="M49.9836 85.7341C44.1278 85.7341 38.5927 84.3312 33.7427 81.8169L37.1206 75.9247C41.0014 77.8669 45.3486 78.9418 49.9836 78.9418C62.9924 78.9418 73.9861 70.3895 77.6154 58.5687H84.6591C80.8512 74.1646 66.7639 85.7341 49.9836 85.7341ZM30.6526 80.0569L34.0305 74.1646C32.1977 72.9439 30.5433 71.541 29.0347 69.996L23.8604 74.3796C25.8718 76.5368 28.1711 78.4389 30.6526 80.0569ZM34.067 25.8718L30.6526 19.9796C28.1383 21.5975 25.839 23.5361 23.7911 25.7297L29.0019 30.1133C30.5105 28.4954 32.2013 27.0597 34.067 25.8718ZM77.6191 41.4313H84.6628C80.8184 25.8354 66.7311 14.3024 49.9873 14.3024C44.1315 14.3024 38.5964 15.7053 33.7463 18.2196L37.1607 24.1118C41.0414 22.206 45.3886 21.0946 50.0237 21.0946C62.996 21.0946 73.9897 29.6469 77.6191 41.4313ZM14.306 48.2236C14.2696 48.7993 14.2696 49.4079 14.2696 50.02C14.2696 50.5958 14.2696 51.2043 14.306 51.7801C14.4481 54.8337 14.9874 57.7452 15.851 60.5473C16.2118 61.6988 16.6053 62.8102 17.0718 63.8888C18.256 66.691 19.7683 69.2782 21.5647 71.6503L26.7755 67.2667C25.4819 65.5067 24.3669 63.6009 23.4705 61.553C23.0041 60.4744 22.6069 59.363 22.2498 58.2116C21.6376 56.1637 21.244 54.0065 21.1347 51.7801C21.0983 51.2043 21.0618 50.5958 21.0618 50.02C21.0618 49.4079 21.0983 48.8358 21.1347 48.26C21.4955 42.5099 23.5069 37.1935 26.7391 32.8463L21.5283 28.4262C17.2867 33.9941 14.6668 40.8228 14.306 48.2236ZM49.9836 7.1858C70.7175 7.1858 88.0006 21.9182 91.9907 41.4641H99.2858C95.1864 17.8953 74.6675 0 49.9836 0C41.5042 0 33.5641 2.12076 26.5569 5.81934L30.1498 12.0359C36.0784 8.90938 42.8342 7.1858 49.9836 7.1858ZM49.9836 92.8506C42.8342 92.8506 36.1149 91.0906 30.1862 88.0006L26.5933 94.2171C33.5641 97.9193 41.5407 100.004 49.9836 100.004C74.6712 100.004 95.1864 82.1084 99.2457 58.5723H91.9871C87.997 78.1547 70.7139 92.8506 49.98 92.8506H49.9836ZM10.3487 66.2974L3.5929 68.7425C5.35291 73.1261 7.72511 77.1854 10.6002 80.8512L16.0988 76.2526C13.7631 73.2354 11.8245 69.894 10.3487 66.3011V66.2974ZM18.3981 78.9455L12.8995 83.5441C15.9895 86.9949 19.5824 89.9756 23.5361 92.4571L27.129 86.2406C23.8968 84.1927 20.9489 81.7476 18.3981 78.9455ZM7.1858 51.7436H0C0.142113 56.488 0.969282 61.0866 2.37219 65.3974L9.12801 62.9523C8.01297 59.3958 7.33156 55.6572 7.18945 51.74L7.1858 51.7436ZM27.0925 13.7995L23.4996 7.58299C9.84586 16.1353 0.612178 31.0462 0 48.1872H7.1858C7.76154 33.7062 15.5595 21.0946 27.0925 13.7995ZM90.4056 44.6671V47.1814H55.3365V44.6671H44.6271V55.3766H55.3365V52.8623H90.4056V55.3766H101.115V44.6671H90.4056Z" fill="url(#paint0_linear_1_995)"/>
<path d="M156.28 51.536C157.691 50.4391 158.773 49.08 159.534 47.4584C160.318 45.815 160.704 43.8509 160.704 41.5626C160.704 38.7677 160.07 36.4101 158.795 34.4934C157.523 32.5767 155.705 31.13 153.34 30.1535C150.993 29.1769 148.187 28.6886 144.922 28.6886H128.995V71.3989H137.795V55.588H144.784L152.873 71.3989H162.289V70.9908L153.045 53.4636C154.236 52.9243 155.315 52.2902 156.277 51.5432H156.28V51.536ZM137.798 35.5792H144.926C146.489 35.5792 147.79 35.8416 148.829 36.37C149.863 36.8983 150.636 37.6599 151.146 38.6584C151.656 39.6568 151.908 40.8411 151.908 42.2075C151.908 43.4975 151.645 44.6344 151.117 45.6109C150.607 46.5875 149.845 47.3491 148.829 47.8993C147.812 48.4459 146.529 48.7229 144.988 48.7229H137.802V35.5829H137.798V35.5792Z" fill="#151725"/>
<path d="M191.991 63.7357V50.1548C191.991 47.6879 191.433 45.6364 190.322 43.9966C189.225 42.3532 187.72 41.1216 185.803 40.298C183.887 39.4745 181.697 39.0664 179.233 39.0664C177.178 39.0664 175.32 39.3288 173.662 39.8608C172.018 40.3891 170.601 41.1216 169.409 42.0581C168.218 42.9763 167.307 44.0404 166.684 45.2574C166.057 46.4672 165.747 47.7499 165.747 49.0981H174.194C174.194 48.2964 174.38 47.6041 174.751 47.0138C175.123 46.4053 175.651 45.9461 176.336 45.6327C177.022 45.3011 177.83 45.1335 178.774 45.1335C179.871 45.1335 180.757 45.3376 181.445 45.7494C182.149 46.1575 182.666 46.7369 183.001 47.4802C183.333 48.2017 183.5 49.0726 183.5 50.0893V52.0533H179.718C177.291 52.0533 175.163 52.2865 173.323 52.7566C171.483 53.2048 169.949 53.8826 168.717 54.779C167.507 55.6608 166.585 56.743 165.962 58.033C165.335 59.3229 165.026 60.7987 165.026 62.464C165.026 64.3042 165.496 65.9476 166.436 67.3906C167.394 68.8153 168.684 69.9413 170.309 70.7648C171.953 71.5665 173.782 71.9673 175.797 71.9673C177.382 71.9673 178.752 71.7341 179.904 71.2641C181.059 70.7758 182.046 70.1563 182.866 69.4166C183.227 69.085 183.548 68.7425 183.85 68.389C184.062 69.5696 184.357 70.5753 184.743 71.3807H193.281V70.8814C192.873 70.0579 192.559 69.1032 192.344 68.0064C192.129 66.8914 192.02 65.4629 192.02 63.7248L192.005 63.7321L191.991 63.7357ZM183.103 63.0324C182.597 63.7758 181.872 64.4026 180.931 64.9127C179.995 65.4192 178.887 65.6743 177.619 65.6743C176.777 65.6743 176.045 65.5212 175.418 65.2042C174.791 64.8726 174.31 64.4208 173.983 63.8523C173.651 63.2657 173.483 62.6097 173.483 61.8883C173.483 61.1668 173.604 60.4999 173.837 59.895C174.092 59.2865 174.485 58.7581 175.006 58.3099C175.535 57.8399 176.209 57.4791 177.029 57.224C177.852 56.969 178.818 56.8451 179.933 56.8451H183.482V62.4166C183.373 62.617 183.249 62.8211 183.1 63.0324H183.103Z" fill="#151725"/>
<path d="M216.646 42.5391C215.837 41.588 214.907 40.8228 213.858 40.2398C212.47 39.4563 210.848 39.0664 208.99 39.0664C207.015 39.0664 205.255 39.46 203.71 40.2398C202.165 41.0232 200.864 42.1273 199.807 43.5521C198.75 44.9769 197.949 46.6895 197.402 48.6864C196.855 50.6614 196.578 52.8623 196.578 55.2855V55.9013C196.578 58.2079 196.852 60.3396 197.402 62.2964C197.949 64.2495 198.743 65.9549 199.778 67.3979C200.835 68.8445 202.125 69.9705 203.651 70.7721C205.196 71.5738 206.956 71.9746 208.931 71.9746C210.906 71.9746 212.451 71.5811 213.858 70.8013C215.097 70.1126 216.172 69.1761 217.079 68.0028L217.495 71.388H225.15V26.3309H216.646V42.5354V42.5391ZM214.652 64.3516C213.716 65.0002 212.521 65.3172 211.074 65.3172C209.959 65.3172 209.012 65.084 208.228 64.6139C207.467 64.1256 206.84 63.4479 206.351 62.5915C205.881 61.7097 205.539 60.704 205.324 59.5707C205.131 58.4338 205.029 57.2131 205.029 55.905V55.2891C205.029 53.9372 205.138 52.6874 205.353 51.5359C205.586 50.3626 205.94 49.3459 206.41 48.4859C206.898 47.6223 207.536 46.9519 208.319 46.4636C209.103 45.9534 210.039 45.702 211.136 45.702C212.233 45.702 213.14 45.8988 213.924 46.2887C214.725 46.6822 215.388 47.2251 215.917 47.9321C216.197 48.2965 216.441 48.6936 216.649 49.1309V61.9466C216.168 62.9487 215.501 63.754 214.656 64.3588H214.652V64.3516Z" fill="#151725"/>
<path d="M235.816 27.1289C234.37 27.1289 233.214 27.5297 232.354 28.3314C231.491 29.1331 231.065 30.1497 231.065 31.3814C231.065 32.613 231.495 33.6297 232.354 34.4313C233.214 35.233 234.366 35.6338 235.816 35.6338C237.266 35.6338 238.389 35.233 239.249 34.4313C240.131 33.6297 240.568 32.613 240.568 31.3814C240.568 30.1497 240.131 29.1331 239.249 28.3314C238.389 27.5297 237.245 27.1289 235.816 27.1289Z" fill="#151725"/>
<path d="M240.069 39.6567H231.593V71.3952H240.069V39.6567Z" fill="#151725"/>
<path d="M272.088 63.7357V50.1548C272.088 47.6879 271.53 45.6364 270.415 43.9966C269.318 42.3532 267.813 41.1216 265.897 40.298C263.98 39.4745 261.79 39.0664 259.323 39.0664C257.272 39.0664 255.413 39.3288 253.752 39.8608C252.108 40.3891 250.691 41.1216 249.499 42.0581C248.308 42.9763 247.397 44.0404 246.773 45.2574C246.147 46.4672 245.837 47.7499 245.837 49.0981H254.284C254.284 48.2964 254.469 47.6041 254.841 47.0138C255.213 46.4053 255.741 45.9461 256.426 45.6327C257.108 45.3011 257.92 45.1335 258.86 45.1335C259.957 45.1335 260.843 45.3376 261.531 45.7494C262.235 46.1575 262.752 46.7369 263.087 47.4802C263.423 48.2017 263.586 49.0726 263.586 50.0893V52.0533H259.804C257.377 52.0533 255.249 52.2865 253.409 52.7566C251.569 53.2048 250.035 53.8826 248.803 54.779C247.593 55.6608 246.671 56.743 246.048 58.033C245.422 59.3229 245.112 60.7987 245.112 62.464C245.112 64.3042 245.582 65.9476 246.522 67.3906C247.48 68.8153 248.77 69.9413 250.395 70.7648C252.039 71.5665 253.868 71.9673 255.883 71.9673C257.468 71.9673 258.838 71.7341 259.99 71.2641C261.145 70.7758 262.133 70.1563 262.956 69.4166C263.317 69.085 263.638 68.7425 263.94 68.3926C264.151 69.5733 264.45 70.579 264.833 71.3807H273.37V70.8814C272.962 70.0579 272.649 69.1032 272.434 68.0064C272.219 66.8914 272.11 65.4629 272.11 63.7248L272.099 63.7321L272.088 63.7357ZM263.2 63.0324C262.69 63.7758 261.969 64.4026 261.028 64.9127C260.092 65.4192 258.984 65.6743 257.716 65.6743C256.874 65.6743 256.142 65.5212 255.519 65.2042C254.892 64.8726 254.411 64.4208 254.083 63.8523C253.752 63.2657 253.584 62.6097 253.584 61.8883C253.584 61.1668 253.701 60.4999 253.937 59.895C254.192 59.2865 254.586 58.7581 255.111 58.3099C255.639 57.8399 256.313 57.4791 257.133 57.224C257.957 56.969 258.922 56.8451 260.037 56.8451H263.586V62.4166C263.477 62.617 263.353 62.8211 263.208 63.0324H263.204H263.2Z" fill="#151725"/>
<path d="M302.46 41.7629C301.582 40.8265 300.525 40.1378 299.29 39.7114C298.058 39.2814 296.699 39.0628 295.212 39.0628C293.335 39.0628 291.634 39.4272 290.111 40.1487C288.606 40.852 287.305 41.8796 286.208 43.2278C286.15 43.3007 286.095 43.3736 286.037 43.4501L285.741 39.6495H277.823V71.388H286.27V48.8759C286.39 48.6572 286.514 48.4459 286.652 48.2418C287.199 47.4402 287.884 46.8171 288.704 46.3616C289.546 45.9134 290.533 45.6874 291.67 45.6874C292.807 45.6874 293.685 45.8514 294.429 46.1867C295.19 46.5 295.766 47.0503 296.159 47.8301C296.549 48.6135 296.742 49.7067 296.742 51.1132V71.3843H305.247V51.1424C305.247 48.916 305.003 47.0248 304.515 45.4797C304.045 43.9347 303.36 42.6921 302.46 41.752V41.7593V41.7629Z" fill="#151725"/>
<path d="M326.969 65.0002C326.674 65.0585 326.316 65.1205 325.883 65.1751C325.475 65.2152 325.001 65.2334 324.473 65.2334C323.729 65.2334 323.113 65.146 322.625 64.9674C322.137 64.7743 321.765 64.4281 321.514 63.9398C321.281 63.4516 321.16 62.7483 321.16 61.8264V45.6365H326.615V39.6531H321.16V31.8187H312.714V39.6531H308.137V45.6365H312.714V62.6791C312.714 64.9055 313.085 66.7056 313.829 68.0757C314.572 69.4458 315.629 70.4442 316.999 71.0673C318.387 71.6759 320.009 71.9783 321.867 71.9783C322.884 71.9783 323.809 71.9091 324.655 71.7743C325.493 71.6358 326.28 71.45 326.998 71.2168L326.969 64.9966V65.0002Z" fill="#151725"/>
<path d="M357.549 52.5307C356.412 51.474 354.969 50.5266 353.209 49.6848C351.449 48.8431 349.361 48.0815 346.934 47.3965C345.174 46.9082 343.662 46.398 342.39 45.8733C341.14 45.3449 340.098 44.7655 339.282 44.1424C338.484 43.5157 337.882 42.8416 337.492 42.1201C337.121 41.3767 336.935 40.5568 336.935 39.6531C336.935 38.3231 337.248 37.1425 337.875 36.104C338.524 35.0691 339.5 34.2456 340.808 33.6407C342.12 33.0321 343.778 32.7333 345.793 32.7333C347.925 32.7333 349.685 33.0977 351.073 33.8192C352.462 34.5225 353.5 35.5027 354.182 36.7526C354.863 37.9842 355.209 39.4017 355.209 41.0087H360.843C360.843 38.7822 360.256 36.687 359.083 34.7302C357.909 32.7552 356.197 31.1628 353.948 29.9457C351.718 28.7141 349 28.0983 345.793 28.0983C343.603 28.0983 341.617 28.3934 339.839 28.9801C338.061 29.5668 336.527 30.3903 335.233 31.4434C333.961 32.4783 332.985 33.7026 332.3 35.1092C331.615 36.5194 331.276 38.0534 331.276 39.7151C331.276 41.3767 331.597 42.8525 332.242 44.1461C332.89 45.436 333.816 46.5839 335.025 47.5786C336.239 48.5734 337.693 49.4662 339.395 50.2496C341.093 51.0112 343.002 51.7036 345.115 52.334C347.131 52.9206 348.789 53.5 350.104 54.0648C351.43 54.6333 352.473 55.2309 353.212 55.854C353.974 56.4807 354.502 57.184 354.797 57.9675C355.111 58.729 355.267 59.6109 355.267 60.6093C355.267 61.9976 354.903 63.2001 354.182 64.2168C353.475 65.2334 352.443 66.0169 351.073 66.5635C349.707 67.11 348.034 67.387 346.056 67.387C344.689 67.387 343.37 67.2339 342.095 66.9169C340.845 66.5853 339.719 66.0752 338.72 65.3938C337.744 64.7123 336.968 63.8487 336.403 62.8139C335.834 61.7571 335.554 60.4963 335.554 59.0315H329.92C329.92 61.1632 330.379 63.0398 331.301 64.6613C332.238 66.2646 333.48 67.6165 335.025 68.7061C336.589 69.8029 338.323 70.6228 340.218 71.1694C342.135 71.716 344.081 71.9892 346.052 71.9892C348.304 71.9892 350.337 71.7269 352.152 71.1985C353.992 70.6519 355.566 69.8794 356.874 68.881C358.186 67.8862 359.192 66.6801 359.895 65.2735C360.598 63.8633 360.952 62.2928 360.952 60.551C360.952 58.8092 360.668 57.4026 360.099 56.0908C359.553 54.7608 358.704 53.5802 357.549 52.5417V52.5307Z" fill="#151725"/>
<path d="M389.152 43.5266C388.095 42.1164 386.736 41.0232 385.078 40.2434C383.431 39.46 381.478 39.0701 379.208 39.0701C377.43 39.0701 375.71 39.4345 374.045 40.156C372.383 40.8774 370.9 41.9451 369.584 43.3553C368.276 44.7655 367.241 46.4854 366.476 48.5187C365.715 50.5338 365.332 52.8295 365.332 55.4094V56.641C365.332 58.8675 365.674 60.9226 366.356 62.7993C367.041 64.6759 368.021 66.2974 369.289 67.6675C370.579 69.0376 372.113 70.1053 373.891 70.8669C375.692 71.6102 377.696 71.9819 379.908 71.9819C381.999 71.9819 383.807 71.6868 385.333 71.1001C386.878 70.5134 388.179 69.7482 389.232 68.8117C390.289 67.8752 391.16 66.8841 391.841 65.8529L388.558 63.2402C387.56 64.552 386.397 65.5978 385.071 66.3776C383.741 67.161 382.116 67.5509 380.203 67.5509C378.716 67.5509 377.382 67.2667 376.209 66.6982C375.058 66.1298 374.066 65.3464 373.25 64.3516C372.452 63.3531 371.833 62.198 371.403 60.8898C371.031 59.6837 370.834 58.401 370.801 57.0492H392.26V54.6114C392.26 52.3849 392.005 50.3298 391.495 48.4532C390.989 46.5547 390.205 44.9149 389.149 43.5266H389.152ZM386.835 52.6218H370.954C371.06 51.8056 371.206 51.044 371.406 50.3334C371.814 48.8686 372.394 47.6223 373.134 46.6057C373.881 45.589 374.77 44.8275 375.801 44.3173C376.836 43.7889 377.973 43.5266 379.204 43.5266C381.063 43.5266 382.528 43.9566 383.602 44.8165C384.681 45.6801 385.461 46.7697 385.953 48.0997C386.463 49.4297 386.754 50.7998 386.831 52.2064V52.6145L386.835 52.6218Z" fill="#151725"/>
<path d="M402.431 50.829C402.726 49.4771 403.196 48.2564 403.837 47.1632C404.504 46.0482 405.393 45.17 406.508 44.5214C407.645 43.8582 409.041 43.523 410.699 43.523C412.149 43.523 413.41 43.8473 414.485 44.4886C415.582 45.1154 416.442 45.9535 417.068 47.0102C417.71 48.0669 418.085 49.2476 418.18 50.5594H423.343C423.248 48.3694 422.658 46.4126 421.583 44.6927C420.526 42.9545 419.072 41.5844 417.214 40.586C415.356 39.5693 413.188 39.0628 410.699 39.0628C408.21 39.0628 406.235 39.4819 404.453 40.3236C402.693 41.1653 401.228 42.3168 400.051 43.7853C398.896 45.2502 398.029 46.9446 397.442 48.8577C396.874 50.7561 396.593 52.7676 396.593 54.9029V56.1346C396.593 58.2662 396.877 60.2886 397.442 62.209C398.029 64.1074 398.896 65.7873 400.051 67.2558C401.225 68.7206 402.693 69.8758 404.453 70.7175C406.231 71.5593 408.316 71.9783 410.699 71.9783C412.951 71.9783 415.013 71.49 416.89 70.5135C418.766 69.515 420.282 68.2141 421.437 66.6108C422.611 64.9856 423.248 63.2366 423.343 61.3599H418.18C418.085 62.5515 417.681 63.6192 416.977 64.5593C416.27 65.4776 415.374 66.2027 414.277 66.7311C413.188 67.2594 411.992 67.5218 410.699 67.5218C409.019 67.5218 407.616 67.1975 406.479 66.5562C405.364 65.893 404.475 65.0111 403.808 63.9143C403.159 62.8175 402.708 61.5968 402.431 60.2485C402.157 58.9003 402.023 57.5338 402.023 56.1418V54.9102C402.023 53.5219 402.157 52.1627 402.431 50.8327V50.829Z" fill="#151725"/>
<path d="M448.264 62.7154C447.67 64.0965 446.744 65.2115 445.476 66.0569C444.124 66.9387 442.299 67.376 439.992 67.376C439.249 67.376 438.524 67.2667 437.817 67.0517C437.135 66.8367 436.508 66.465 435.94 65.9366C435.393 65.3901 434.953 64.654 434.625 63.7357C434.311 62.7992 434.155 61.615 434.155 60.1865V39.6531H428.729V60.1282C428.729 62.2417 428.973 64.0491 429.461 65.554C429.971 67.059 430.686 68.2797 431.604 69.2198C432.522 70.1563 433.615 70.8523 434.887 71.3041C436.177 71.7523 437.598 71.9783 439.143 71.9783C441.41 71.9783 443.334 71.6139 444.919 70.8924C446.325 70.2365 447.488 69.351 448.417 68.2469L448.53 71.3916H453.722V39.6531H448.267V62.7118L448.264 62.7154Z" fill="#151725"/>
<path d="M474.325 39.0664C472.605 39.0664 471.115 39.4381 469.865 40.1815C468.633 40.903 467.617 41.9196 466.815 43.2314C466.8 43.2533 466.789 43.2788 466.775 43.3043L466.669 39.6531H461.389V71.3916H466.815V48.8467C467.198 47.9503 467.69 47.1705 468.309 46.5146C468.976 45.8113 469.785 45.2648 470.747 44.8712C471.705 44.4813 472.809 44.2845 474.059 44.2845C474.569 44.2845 475.017 44.3028 475.411 44.3428C475.819 44.3647 476.253 44.423 476.701 44.5177L476.73 39.4709C476.537 39.3725 476.183 39.2851 475.673 39.2086C475.167 39.1102 474.719 39.0628 474.325 39.0628V39.0664Z" fill="#151725"/>
<path d="M487.042 39.6567H481.584V71.3952H487.042V39.6567Z" fill="#151725"/>
<path d="M484.375 28.0946C483.318 28.0946 482.517 28.397 481.97 29.0056C481.442 29.6141 481.176 30.3575 481.176 31.232C481.176 32.1066 481.442 32.7953 481.97 33.4038C482.517 33.9905 483.318 34.2856 484.375 34.2856C485.432 34.2856 486.201 33.9905 486.751 33.4038C487.319 32.7953 487.6 32.0738 487.6 31.232C487.6 30.3903 487.316 29.6068 486.751 29.0056C486.204 28.397 485.41 28.0946 484.375 28.0946Z" fill="#151725"/>
<path d="M507.412 67.1975C506.924 67.2777 506.457 67.3178 506.002 67.3178C505.4 67.3178 504.832 67.2303 504.304 67.0554C503.775 66.8805 503.342 66.5161 503.014 65.9695C502.682 65.4229 502.514 64.6103 502.514 63.5317V43.8181H508.44V39.6531H502.514V31.939H497.089V39.6531H491.28V43.8181H497.089V63.5026C497.089 65.616 497.413 67.2959 498.054 68.5458C498.721 69.7774 499.61 70.6592 500.725 71.1876C501.837 71.716 503.057 71.9783 504.391 71.9783C505.368 71.9783 506.198 71.9091 506.884 71.7743C507.587 71.654 508.155 71.5301 508.585 71.3953L508.556 66.9643C508.301 67.0226 507.922 67.0991 507.408 67.1975H507.412Z" fill="#151725"/>
<path d="M531.954 39.6567L524.586 63.4005L516.642 39.6567H510.717L522.046 71.0527L520.865 74.2739C520.435 75.5858 519.918 76.6097 519.313 77.3531C518.726 78.1146 518.001 78.6539 517.145 78.9673C516.285 79.2989 515.235 79.4665 514.004 79.4665C513.869 79.4665 513.621 79.4483 513.268 79.4082C512.936 79.39 512.696 79.3681 512.535 79.3499L512.564 83.7481C512.838 83.8283 513.308 83.923 513.975 84.0433C514.638 84.1599 515.188 84.2182 515.614 84.2182C517.065 84.2182 518.304 83.9558 519.338 83.4275C520.395 82.9173 521.295 82.2541 522.039 81.4342C522.782 80.6107 523.387 79.7435 523.857 78.8215C524.345 77.9215 524.735 77.0834 525.03 76.3L537.758 39.664H531.95L531.954 39.6567Z" fill="#151725"/>
</g>
<defs>
<linearGradient id="paint0_linear_1_995" x1="50.5557" y1="100" x2="50.5557" y2="0.524721" gradientUnits="userSpaceOnUse">
<stop stop-color="#FF1560"/>
<stop offset="1" stop-color="#FF5D60"/>
</linearGradient>
<clipPath id="clip0_1_995">
<rect width="537.758" height="100" fill="white"/>
</clipPath>
</defs>
</svg>
