<svg width="3175" height="1073" viewBox="0 0 3175 1073" fill="none" xmlns="http://www.w3.org/2000/svg">
<path fill-rule="evenodd" clip-rule="evenodd" d="M63.1211 440.184C63.1211 127.07 130.237 59.9609 443.38 59.9609H635.414C948.556 59.9609 1015.67 127.07 1015.67 440.184V632.201C1015.67 945.315 948.556 1012.42 635.414 1012.42H443.38C130.237 1012.42 63.1211 945.315 63.1211 632.201V440.184ZM192.892 533.979C192.892 397.857 192.892 329.795 224.818 280.487C240.065 256.94 260.119 236.888 283.666 221.643C332.98 189.72 401.048 189.72 537.183 189.72C635.533 189.72 684.709 189.72 704.546 212.846C713.72 223.541 719.247 236.882 720.323 250.931C722.649 281.31 687.877 316.078 618.333 385.616L388.807 615.121C319.263 684.659 284.491 719.429 254.109 717.102C240.058 716.026 226.717 710.499 216.02 701.327C192.892 681.491 192.892 632.321 192.892 533.979ZM853.818 791.55C885.744 742.241 885.744 674.18 885.744 538.057C885.744 439.716 885.744 390.546 862.616 370.71C851.92 361.536 838.578 356.011 824.527 354.935C794.147 352.608 759.374 387.377 689.83 456.914L460.303 686.421C390.76 755.958 355.987 790.727 358.313 821.106C359.389 835.155 364.916 848.494 374.09 859.19C393.927 882.315 443.103 882.315 541.453 882.315C677.588 882.315 745.657 882.315 794.97 850.392C818.517 835.149 838.573 815.095 853.818 791.55Z" fill="url(#paint0_linear_3920_2)"/>
<path d="M1201.98 718.699C1196.8 711.204 1194.5 703.422 1195.07 695.353C1195.65 686.705 1200.54 679.212 1209.75 672.871C1215.51 668.836 1222.13 667.107 1229.61 667.683C1237.67 668.26 1244.87 672.006 1251.2 678.923C1267.32 697.946 1285.74 713.221 1306.46 724.751C1327.19 735.703 1352.51 741.179 1382.44 741.179C1396.27 740.602 1410.09 738.297 1423.89 734.262C1437.71 730.227 1449.23 723.31 1458.44 713.51C1468.22 703.134 1473.12 689.588 1473.12 672.871C1473.12 656.73 1468.22 644.049 1458.44 634.826C1448.65 625.026 1435.99 617.244 1420.44 611.48C1404.9 605.138 1387.92 599.662 1369.49 595.051C1350.5 589.863 1331.8 584.099 1313.37 577.757C1294.95 570.84 1278.26 562.482 1263.29 552.683C1248.9 542.307 1237.1 529.625 1227.89 514.637C1219.25 499.074 1214.94 480.339 1214.94 458.434C1214.94 432.494 1221.84 410.013 1235.66 390.991C1250.05 371.968 1269.05 357.268 1292.65 346.893C1316.83 336.517 1343.02 331.328 1371.23 331.328C1387.34 331.328 1404.04 333.346 1421.31 337.382C1439.15 340.84 1456.42 347.181 1473.12 356.403C1489.81 365.051 1504.49 377.156 1517.16 392.72C1522.33 398.484 1525.22 405.69 1525.79 414.336C1526.36 422.983 1522.62 430.765 1514.57 437.682C1508.24 442.293 1501.04 444.312 1492.98 443.736C1485.49 443.159 1479.16 440.276 1473.98 435.088C1461.89 420.678 1446.64 409.724 1428.21 402.231C1410.37 394.161 1390.51 390.126 1368.64 390.126C1354.82 390.126 1341.29 392.144 1328.05 396.179C1314.81 400.214 1303.59 407.131 1294.38 416.931C1285.74 426.154 1281.42 439.123 1281.42 455.84C1282 471.405 1287.18 484.086 1296.97 493.885C1306.75 503.685 1319.99 511.755 1336.69 518.096C1353.38 523.86 1371.8 529.625 1391.95 535.39C1410.37 540.001 1427.93 545.477 1444.62 551.817C1461.89 557.583 1477.44 565.364 1491.24 575.163C1505.06 584.964 1516 597.645 1524.06 613.209C1532.13 628.196 1536.15 647.219 1536.15 670.277C1536.15 696.794 1528.66 719.851 1513.7 739.45C1498.73 758.473 1478.87 773.173 1454.13 783.548C1429.95 793.347 1403.75 798.247 1375.55 798.247C1343.88 798.247 1312.51 792.194 1281.42 780.089C1250.91 767.983 1224.43 747.521 1201.98 718.699Z" fill="black"/>
<path d="M1866.98 335.656C1906.12 335.656 1941.24 345.455 1972.31 365.055C2003.4 384.653 2027.87 411.746 2045.72 446.333C2064.13 480.919 2073.35 520.693 2073.35 565.656C2073.35 610.043 2064.13 649.817 2045.72 684.98C2027.87 719.567 2003.4 746.948 1972.31 767.123C1941.8 786.722 1907.27 796.521 1868.7 796.521C1847.4 796.521 1827.25 793.351 1808.26 787.01C1789.83 780.093 1772.85 771.447 1757.31 761.07C1742.34 750.118 1729.68 738.012 1719.32 724.755C1708.95 710.92 1701.47 697.374 1696.87 684.115L1715.86 672.01V927.086C1715.86 936.886 1712.7 945.244 1706.37 952.161C1700.04 959.078 1691.68 962.538 1681.32 962.538C1671.54 962.538 1663.2 959.078 1656.29 952.161C1649.96 945.82 1646.79 937.463 1646.79 927.086V374.566C1646.79 364.767 1649.96 356.695 1656.29 350.355C1663.2 343.438 1671.54 339.979 1681.32 339.979C1691.68 339.979 1700.04 343.438 1706.37 350.355C1712.7 356.695 1715.86 364.767 1715.86 374.566V451.521L1702.91 444.604C1706.94 430.192 1713.85 416.358 1723.64 403.099C1734 389.842 1746.37 378.312 1760.77 368.513C1775.74 358.136 1792.14 350.067 1809.98 344.302C1828.41 338.538 1847.4 335.656 1866.98 335.656ZM1859.2 399.641C1830.42 399.641 1804.8 406.846 1782.36 421.258C1760.48 435.668 1743.21 455.268 1730.55 480.055C1718.45 504.842 1712.41 533.376 1712.41 565.656C1712.41 597.361 1718.45 625.894 1730.55 651.258C1743.21 676.622 1760.48 696.509 1782.36 710.92C1804.8 725.331 1830.42 732.536 1859.2 732.536C1887.98 732.536 1913.31 725.331 1935.18 710.92C1957.06 696.509 1974.33 676.622 1987 651.258C1999.67 625.894 2006 597.361 2006 565.656C2006 533.376 1999.67 504.842 1987 480.055C1974.33 455.268 1957.06 435.668 1935.18 421.258C1913.31 406.846 1887.98 399.641 1859.2 399.641Z" fill="black"/>
<path d="M2257.6 764.965C2257.6 774.765 2254.15 783.123 2247.24 790.04C2240.33 796.958 2231.98 800.417 2222.19 800.417C2212.41 800.417 2204.35 796.958 2198.02 790.04C2191.69 783.123 2188.52 774.765 2188.52 764.965V151.918C2188.52 142.119 2191.69 134.049 2198.02 127.708C2204.92 120.791 2213.28 117.332 2223.06 117.332C2233.42 117.332 2241.76 120.791 2248.1 127.708C2254.44 134.049 2257.6 142.119 2257.6 151.918V764.965Z" fill="black"/>
<path d="M2405.7 335.656C2416.63 335.656 2425.83 340.556 2433.32 350.356L2583.57 542.312L2732.56 746.802C2737.17 753.143 2739.47 760.061 2739.47 767.554C2739.47 777.353 2736.01 785.713 2729.1 792.63C2722.2 799.547 2714.13 803.005 2704.93 803.005C2693.99 803.005 2684.49 797.817 2676.43 787.442L2377.2 391.859C2372.59 385.519 2370.29 378.602 2370.29 371.108C2370.29 360.732 2373.74 352.374 2380.65 346.033C2388.14 339.115 2396.48 335.656 2405.7 335.656ZM2404.44 802.141C2396.95 802.141 2389.47 799.259 2381.98 793.494C2374.49 787.73 2370.75 780.236 2370.75 771.013C2370.75 763.519 2373.64 756.313 2379.39 749.396L2521 570.411L2557.26 627.479L2432.06 788.307C2425.15 797.529 2415.94 802.141 2404.44 802.141ZM2706.18 335.656C2715.97 335.656 2723.74 338.827 2729.5 345.168C2735.83 351.509 2738.99 358.714 2738.99 366.784C2738.99 370.244 2738.13 373.99 2736.41 378.025C2735.25 382.06 2733.24 385.807 2730.36 389.265L2588.35 582.516L2553.35 517.236L2677.69 351.221C2685.75 340.844 2695.24 335.656 2706.18 335.656Z" fill="black"/>
<path d="M2876.43 335.656H2855.4L2935.35 115.559H2956.81L3036.77 335.656H3015.74L2946.83 141.674H2945.33L2876.43 335.656ZM2891.56 251.292H3000.6V269.346H2891.56V251.292Z" fill="black"/>
<path d="M3112.65 115.559V335.656H3092.57V115.559H3112.65Z" fill="black"/>
<defs>
<linearGradient id="paint0_linear_3920_2" x1="934.179" y1="167.887" x2="393.507" y2="1103.76" gradientUnits="userSpaceOnUse">
<stop stop-color="#BC00FF"/>
<stop offset="0.508871" stop-color="#49BAEA"/>
<stop offset="1" stop-color="#AFFF00"/>
</linearGradient>
</defs>
</svg>
