<svg id="logo-white" version="1.1" xmlns="http://www.w3.org/2000/svg" xmlns:xlink="http://www.w3.org/1999/xlink" viewBox=" 0 0 400 185"><g id="svgg"><path id="path0" d="M17.667 38.750 L 17.667 56.833 26.149 56.833 C 39.401 56.833,41.203 56.495,44.266 53.432 C 48.978 48.720,48.230 40.374,42.875 37.919 C 41.898 37.471,41.564 37.169,42.042 37.165 C 42.335 37.162,44.037 35.853,44.561 35.227 C 47.340 31.904,46.471 25.480,42.886 22.847 C 40.122 20.817,39.136 20.680,27.292 20.672 L 17.667 20.667 17.667 38.750 M36.848 27.302 C 38.645 28.013,39.438 29.641,39.004 31.732 C 38.432 34.488,36.709 35.050,29.083 34.965 L 24.750 34.917 24.705 30.860 L 24.661 26.803 30.289 26.869 C 35.617 26.931,35.966 26.954,36.848 27.302 M37.203 41.306 C 41.082 42.855,40.671 48.946,36.598 50.281 C 35.895 50.512,34.801 50.571,30.208 50.627 L 24.667 50.694 24.667 45.752 L 24.667 40.810 30.458 40.868 C 36.031 40.923,36.286 40.940,37.203 41.306 M179.306 62.136 C 179.130 62.467,179.127 62.569,179.292 62.624 C 179.587 62.724,179.550 63.010,179.208 63.263 C 178.965 63.444,178.950 63.535,179.122 63.816 C 179.240 64.009,179.284 64.370,179.226 64.659 C 179.167 64.957,179.208 65.266,179.327 65.409 C 179.438 65.543,179.487 65.720,179.436 65.802 C 179.385 65.885,179.454 66.692,179.589 67.596 C 179.827 69.179,179.824 69.265,179.494 69.966 C 179.118 70.767,179.152 71.020,179.757 71.911 C 180.004 72.275,180.156 72.724,180.143 73.048 C 180.130 73.343,180.218 73.817,180.338 74.104 C 180.532 74.565,180.516 74.711,180.195 75.393 C 179.772 76.293,179.730 76.833,180.083 76.833 C 180.371 76.833,180.398 77.270,180.172 78.246 C 180.087 78.610,180.079 78.948,180.153 78.996 C 180.326 79.108,180.490 81.653,180.331 81.751 C 180.266 81.792,180.198 82.858,180.181 84.120 C 180.150 86.462,180.105 86.650,179.391 87.417 C 178.928 87.914,178.667 88.604,178.667 89.328 C 178.667 90.228,178.527 90.500,178.066 90.500 C 177.585 90.500,177.518 91.128,177.918 91.896 C 178.464 92.941,178.185 98.109,177.536 98.987 C 177.272 99.344,177.236 99.575,177.330 100.309 C 177.416 100.979,177.389 101.220,177.222 101.284 C 177.075 101.340,177.000 101.673,177.000 102.268 L 177.000 103.167 182.583 103.167 L 188.167 103.167 188.167 102.429 C 188.167 101.968,188.064 101.588,187.895 101.418 C 187.685 101.209,187.645 100.957,187.721 100.320 C 187.798 99.665,187.748 99.374,187.477 98.915 C 186.984 98.079,186.793 92.672,187.239 92.179 C 187.652 91.723,187.528 90.813,187.019 90.561 C 186.466 90.286,186.358 90.053,186.454 89.334 C 186.504 88.966,186.462 88.663,186.352 88.595 C 186.250 88.532,186.167 88.297,186.167 88.073 C 186.167 87.850,186.099 87.667,186.016 87.667 C 185.757 87.667,185.500 86.658,185.500 85.642 C 185.500 85.105,185.563 84.667,185.640 84.667 C 185.801 84.667,185.885 82.920,185.857 80.144 C 185.838 78.376,185.864 78.197,186.150 78.123 C 186.368 78.066,186.501 77.823,186.584 77.330 C 186.661 76.876,186.886 76.433,187.210 76.102 C 188.257 75.029,187.547 72.969,186.468 73.946 C 185.964 74.401,185.661 74.134,185.012 72.667 C 184.911 72.438,184.621 71.966,184.368 71.618 C 183.944 71.036,183.836 70.383,183.984 69.303 C 183.993 69.241,184.169 69.157,184.375 69.118 C 184.748 69.046,184.748 69.045,184.357 69.023 C 184.081 69.007,183.993 68.926,184.060 68.750 C 184.121 68.593,184.059 68.500,183.894 68.500 C 183.738 68.500,183.667 68.406,183.720 68.269 C 183.782 68.107,183.713 68.063,183.487 68.122 C 183.310 68.168,183.053 68.113,182.916 67.999 C 182.717 67.835,182.667 67.835,182.667 68.000 C 182.667 68.144,182.507 68.176,182.146 68.104 C 181.727 68.020,181.661 68.043,181.809 68.221 C 181.943 68.382,181.939 68.494,181.796 68.637 C 181.659 68.774,181.653 68.886,181.775 69.009 C 181.991 69.224,181.873 69.926,181.580 70.169 C 181.414 70.308,181.320 70.213,181.169 69.758 C 181.062 69.433,180.912 69.167,180.836 69.167 C 180.699 69.167,180.591 68.443,180.401 66.250 C 180.345 65.608,180.232 65.012,180.150 64.925 C 179.887 64.647,179.989 64.018,180.327 63.837 C 180.685 63.645,180.617 63.167,180.232 63.167 C 179.959 63.167,179.951 63.087,180.150 62.390 C 180.356 61.675,179.663 61.466,179.306 62.136 M118.417 65.170 C 110.461 65.911,105.743 71.636,107.158 78.833 C 108.064 83.443,110.685 85.123,120.417 87.333 C 127.339 88.904,128.749 89.753,128.725 92.333 C 128.697 95.468,126.091 97.166,121.306 97.166 C 116.819 97.167,114.002 95.272,113.562 91.958 L 113.457 91.167 109.871 91.167 L 106.285 91.167 106.396 92.356 C 107.096 99.889,114.485 104.259,124.411 103.009 C 132.437 101.999,137.272 96.053,135.672 89.161 C 134.613 84.598,132.408 83.192,122.500 80.762 C 114.718 78.854,113.827 78.335,113.837 75.715 C 113.846 73.313,115.615 71.768,118.875 71.318 C 123.375 70.696,126.774 72.523,127.507 75.958 L 127.694 76.833 131.180 76.833 L 134.667 76.833 134.667 76.027 C 134.667 69.164,127.433 64.331,118.417 65.170 M359.417 65.168 C 353.434 65.685,349.516 68.477,348.060 73.259 C 347.601 74.768,347.631 78.214,348.116 79.668 C 349.558 83.989,351.808 85.287,361.667 87.487 C 368.053 88.912,369.417 89.775,369.417 92.391 C 369.417 95.507,366.869 97.167,362.083 97.167 C 357.546 97.167,355.048 95.527,354.332 92.078 L 354.143 91.167 350.606 91.167 L 347.070 91.167 347.192 92.542 C 347.787 99.227,353.335 103.161,362.167 103.161 C 370.897 103.161,376.274 99.126,376.621 92.317 C 376.925 86.369,374.179 83.438,366.566 81.585 C 355.943 78.999,355.464 78.809,354.737 76.905 C 353.403 73.412,357.591 70.555,362.815 71.396 C 366.027 71.913,367.870 73.490,368.254 76.049 L 368.371 76.833 371.936 76.833 L 375.500 76.833 375.500 76.326 C 375.500 69.318,368.399 64.391,359.417 65.168 M289.167 84.083 L 289.167 102.167 302.920 102.167 L 316.674 102.167 316.629 98.958 L 316.583 95.750 306.539 95.707 L 296.495 95.664 296.539 90.957 L 296.583 86.250 305.375 86.207 L 314.167 86.164 314.167 83.167 L 314.167 80.170 305.375 80.126 L 296.583 80.083 296.583 76.167 L 296.583 72.250 306.125 72.207 L 315.667 72.164 315.667 69.082 L 315.667 66.000 302.417 66.000 L 289.167 66.000 289.167 84.083 M228.500 84.266 L 228.500 102.365 237.542 102.288 C 248.448 102.196,249.170 102.073,252.419 99.755 C 260.332 94.108,261.440 76.837,254.337 69.833 C 250.949 66.493,249.419 66.167,237.155 66.167 L 228.500 66.167 228.500 84.266 M245.545 72.578 C 249.131 73.338,250.783 75.707,251.359 80.917 C 251.963 86.369,250.749 91.469,248.268 93.915 C 246.323 95.831,244.841 96.198,239.323 96.128 L 235.750 96.083 235.707 84.208 L 235.664 72.333 240.041 72.336 C 243.197 72.338,244.731 72.406,245.545 72.578 " stroke="none" fill="#000000" fill-rule="evenodd"></path><path id="path1" d="M17.541 38.708 L 17.582 56.917 17.625 38.793 L 17.668 20.670 26.792 20.625 L 35.917 20.580 26.708 20.540 L 17.500 20.500 17.541 38.708 M46.217 30.000 C 46.217 30.504,46.248 30.710,46.286 30.458 C 46.324 30.206,46.324 29.794,46.286 29.542 C 46.248 29.290,46.217 29.496,46.217 30.000 M39.042 30.750 C 39.044 31.117,39.078 31.247,39.118 31.040 C 39.158 30.832,39.156 30.532,39.115 30.373 C 39.073 30.214,39.040 30.383,39.042 30.750 M27.125 34.958 C 28.431 34.986,30.569 34.986,31.875 34.958 C 33.181 34.930,32.112 34.907,29.500 34.907 C 26.887 34.907,25.819 34.930,27.125 34.958 M47.388 45.917 C 47.389 46.558,47.419 46.800,47.455 46.455 C 47.491 46.109,47.490 45.584,47.454 45.288 C 47.417 44.992,47.387 45.275,47.388 45.917 M27.219 50.625 C 28.668 50.653,30.993 50.652,32.385 50.625 C 33.778 50.597,32.592 50.574,29.750 50.574 C 26.908 50.574,25.769 50.597,27.219 50.625 M44.244 53.542 L 43.417 54.417 44.292 53.590 C 44.773 53.135,45.167 52.741,45.167 52.715 C 45.167 52.590,45.012 52.729,44.244 53.542 M118.792 65.118 C 118.998 65.157,119.335 65.157,119.542 65.118 C 119.748 65.078,119.579 65.045,119.167 65.045 C 118.754 65.045,118.585 65.078,118.792 65.118 M121.960 65.118 C 122.168 65.158,122.468 65.156,122.627 65.115 C 122.786 65.073,122.617 65.040,122.250 65.042 C 121.883 65.044,121.753 65.078,121.960 65.118 M359.792 65.118 C 359.998 65.157,360.335 65.157,360.542 65.118 C 360.748 65.078,360.579 65.045,360.167 65.045 C 359.754 65.045,359.585 65.078,359.792 65.118 M362.460 65.118 C 362.668 65.158,362.968 65.156,363.127 65.115 C 363.286 65.073,363.117 65.040,362.750 65.042 C 362.383 65.044,362.253 65.078,362.460 65.118 M302.417 65.958 L 315.667 66.002 315.667 69.083 L 315.667 72.164 306.167 72.209 L 296.667 72.254 306.208 72.252 L 315.750 72.250 315.750 69.083 L 315.750 65.917 302.458 65.915 L 289.167 65.914 302.417 65.958 M228.410 66.208 C 228.367 66.323,228.350 74.479,228.374 84.333 L 228.418 102.250 228.459 84.210 L 228.500 66.170 236.792 66.125 L 245.083 66.080 236.786 66.040 C 230.273 66.009,228.472 66.045,228.410 66.208 M182.667 67.535 C 182.667 67.677,182.791 67.895,182.944 68.021 C 183.198 68.230,183.203 68.214,183.005 67.833 C 182.714 67.275,182.667 67.233,182.667 67.535 M109.910 68.708 L 109.083 69.583 109.958 68.756 C 110.771 67.988,110.910 67.833,110.785 67.833 C 110.759 67.833,110.365 68.227,109.910 68.708 M131.667 69.083 C 131.978 69.404,132.270 69.667,132.315 69.667 C 132.361 69.667,132.144 69.404,131.833 69.083 C 131.522 68.762,131.230 68.500,131.185 68.500 C 131.139 68.500,131.356 68.762,131.667 69.083 M254.333 69.750 C 254.644 70.071,254.936 70.333,254.982 70.333 C 255.028 70.333,254.811 70.071,254.500 69.750 C 254.189 69.429,253.897 69.167,253.851 69.167 C 253.805 69.167,254.022 69.429,254.333 69.750 M119.792 71.287 C 120.090 71.324,120.577 71.324,120.875 71.287 C 121.173 71.250,120.929 71.220,120.333 71.220 C 119.737 71.220,119.494 71.250,119.792 71.287 M360.792 71.284 C 360.998 71.324,361.335 71.324,361.542 71.284 C 361.748 71.245,361.579 71.212,361.167 71.212 C 360.754 71.212,360.585 71.245,360.792 71.284 M235.748 84.208 L 235.750 96.083 239.542 96.088 L 243.334 96.093 239.585 96.043 L 235.836 95.994 235.791 84.164 L 235.747 72.333 235.748 84.208 M106.875 75.417 C 106.877 75.783,106.911 75.914,106.951 75.706 C 106.991 75.499,106.990 75.199,106.948 75.040 C 106.906 74.880,106.874 75.050,106.875 75.417 M354.548 75.750 C 354.549 76.208,354.581 76.376,354.620 76.123 C 354.658 75.869,354.657 75.494,354.617 75.289 C 354.578 75.084,354.546 75.292,354.548 75.750 M134.709 76.250 C 134.711 76.617,134.745 76.747,134.785 76.540 C 134.824 76.332,134.823 76.032,134.781 75.873 C 134.739 75.714,134.707 75.883,134.709 76.250 M106.875 77.250 C 106.877 77.617,106.911 77.747,106.951 77.540 C 106.991 77.332,106.990 77.032,106.948 76.873 C 106.906 76.714,106.874 76.883,106.875 77.250 M301.053 80.125 C 303.512 80.151,307.487 80.151,309.887 80.125 C 312.287 80.099,310.275 80.078,305.417 80.078 C 300.558 80.078,298.595 80.099,301.053 80.125 M186.039 81.333 C 186.039 81.654,186.073 81.785,186.115 81.625 C 186.157 81.465,186.157 81.202,186.115 81.042 C 186.073 80.881,186.039 81.012,186.039 81.333 M251.385 82.417 C 251.386 82.967,251.417 83.172,251.454 82.872 C 251.491 82.572,251.490 82.122,251.452 81.872 C 251.414 81.622,251.384 81.867,251.385 82.417 M259.063 83.500 C 259.063 84.554,259.090 84.985,259.123 84.458 C 259.156 83.931,259.156 83.069,259.123 82.542 C 259.090 82.015,259.063 82.446,259.063 83.500 M185.705 83.333 C 185.705 83.654,185.740 83.785,185.782 83.625 C 185.823 83.465,185.823 83.202,185.782 83.042 C 185.740 82.881,185.705 83.012,185.705 83.333 M251.383 85.000 C 251.383 85.504,251.415 85.710,251.453 85.458 C 251.491 85.206,251.491 84.794,251.453 84.542 C 251.415 84.290,251.383 84.496,251.383 85.000 M133.000 84.552 C 133.000 84.581,133.244 84.825,133.542 85.094 L 134.083 85.583 133.594 85.042 C 133.138 84.537,133.000 84.423,133.000 84.552 M301.053 86.292 C 303.512 86.318,307.487 86.318,309.887 86.292 C 312.287 86.266,310.275 86.244,305.417 86.244 C 300.558 86.244,298.595 86.266,301.053 86.292 M135.875 90.583 C 135.877 90.950,135.911 91.080,135.951 90.873 C 135.991 90.666,135.990 90.366,135.948 90.206 C 135.906 90.047,135.874 90.217,135.875 90.583 M376.717 91.667 C 376.717 92.171,376.748 92.377,376.786 92.125 C 376.824 91.873,376.824 91.460,376.786 91.208 C 376.748 90.956,376.717 91.162,376.717 91.667 M347.048 92.083 C 347.049 92.542,347.081 92.709,347.120 92.456 C 347.158 92.203,347.157 91.828,347.117 91.623 C 347.078 91.418,347.046 91.625,347.048 92.083 M135.875 92.750 C 135.877 93.117,135.911 93.247,135.951 93.040 C 135.991 92.832,135.990 92.532,135.948 92.373 C 135.906 92.214,135.874 92.383,135.875 92.750 M127.406 95.375 L 126.917 95.917 127.458 95.427 C 127.756 95.158,128.000 94.914,128.000 94.885 C 128.000 94.757,127.862 94.870,127.406 95.375 M178.048 96.750 C 178.049 97.208,178.081 97.376,178.120 97.123 C 178.158 96.869,178.157 96.494,178.117 96.289 C 178.078 96.084,178.046 96.292,178.048 96.750 M119.958 97.118 C 120.165 97.157,120.502 97.157,120.708 97.118 C 120.915 97.078,120.746 97.045,120.333 97.045 C 119.921 97.045,119.752 97.078,119.958 97.118 M121.708 97.119 C 121.960 97.158,122.373 97.158,122.625 97.119 C 122.877 97.081,122.671 97.050,122.167 97.050 C 121.662 97.050,121.456 97.081,121.708 97.119 M363.042 97.115 C 363.202 97.157,363.465 97.157,363.625 97.115 C 363.785 97.073,363.654 97.039,363.333 97.039 C 363.012 97.039,362.881 97.073,363.042 97.115 M253.824 98.625 L 253.250 99.250 253.875 98.676 C 254.457 98.141,254.577 98.000,254.449 98.000 C 254.422 98.000,254.140 98.281,253.824 98.625 M350.083 99.167 C 350.535 99.625,350.942 100.000,350.987 100.000 C 351.033 100.000,350.701 99.625,350.250 99.167 C 349.799 98.708,349.392 98.333,349.346 98.333 C 349.300 98.333,349.632 98.708,350.083 99.167 M132.744 99.375 L 131.917 100.250 132.792 99.423 C 133.605 98.654,133.743 98.500,133.619 98.500 C 133.592 98.500,133.199 98.894,132.744 99.375 M244.960 102.285 C 245.168 102.324,245.468 102.323,245.627 102.281 C 245.786 102.239,245.617 102.207,245.250 102.209 C 244.883 102.211,244.753 102.245,244.960 102.285 M176.901 102.833 L 176.917 103.250 182.583 103.253 L 188.250 103.257 182.636 103.210 L 177.022 103.162 176.953 102.789 C 176.894 102.469,176.887 102.475,176.901 102.833 M121.042 103.286 C 121.294 103.324,121.706 103.324,121.958 103.286 C 122.210 103.248,122.004 103.217,121.500 103.217 C 120.996 103.217,120.790 103.248,121.042 103.286 M361.375 103.289 C 361.810 103.324,362.523 103.324,362.958 103.289 C 363.394 103.255,363.037 103.227,362.167 103.227 C 361.296 103.227,360.940 103.255,361.375 103.289 " stroke="none" fill="#4d4d4d" fill-rule="evenodd"></path><path id="path2" d="M36.125 20.618 C 36.331 20.657,36.669 20.657,36.875 20.618 C 37.081 20.578,36.912 20.545,36.500 20.545 C 36.087 20.545,35.919 20.578,36.125 20.618 M43.750 23.500 C 44.108 23.867,44.438 24.167,44.484 24.167 C 44.530 24.167,44.275 23.867,43.917 23.500 C 43.559 23.133,43.228 22.833,43.182 22.833 C 43.137 22.833,43.392 23.133,43.750 23.500 M75.228 24.375 C 75.284 24.581,75.330 24.806,75.331 24.875 C 75.334 25.039,75.528 25.030,75.807 24.853 C 75.994 24.735,75.994 24.652,75.809 24.356 C 75.505 23.870,75.096 23.883,75.228 24.375 M73.862 24.445 C 73.933 24.812,74.583 24.861,74.583 24.500 C 74.583 24.363,74.408 24.225,74.194 24.195 C 73.891 24.152,73.817 24.208,73.862 24.445 M24.742 27.045 C 24.697 27.162,24.682 28.981,24.708 31.087 L 24.757 34.917 24.795 30.961 L 24.833 27.005 29.542 26.958 L 34.250 26.911 29.536 26.872 C 25.848 26.842,24.805 26.879,24.742 27.045 M24.742 41.044 C 24.698 41.160,24.682 43.353,24.708 45.919 L 24.755 50.583 24.794 45.794 L 24.833 41.005 29.875 40.958 L 34.917 40.912 29.870 40.872 C 25.928 40.842,24.805 40.879,24.742 41.044 M39.714 45.417 C 39.716 45.875,39.748 46.043,39.786 45.789 C 39.825 45.536,39.824 45.161,39.784 44.956 C 39.744 44.751,39.713 44.958,39.714 45.417 M36.375 56.782 C 36.535 56.823,36.798 56.823,36.958 56.782 C 37.119 56.740,36.987 56.705,36.667 56.705 C 36.346 56.705,36.215 56.740,36.375 56.782 M21.792 56.958 C 24.106 56.984,27.894 56.984,30.208 56.958 C 32.523 56.932,30.629 56.911,26.000 56.911 C 21.371 56.911,19.477 56.932,21.792 56.958 M120.121 64.954 C 120.417 64.990,120.942 64.991,121.288 64.955 C 121.634 64.919,121.392 64.889,120.750 64.888 C 120.108 64.887,119.825 64.917,120.121 64.954 M180.383 66.000 C 180.383 66.504,180.415 66.710,180.453 66.458 C 180.491 66.206,180.491 65.794,180.453 65.542 C 180.415 65.290,180.383 65.496,180.383 66.000 M289.082 84.000 L 289.083 102.250 302.833 102.251 L 316.583 102.253 302.876 102.209 L 289.168 102.165 289.125 83.957 L 289.081 65.750 289.082 84.000 M245.292 66.118 C 245.498 66.157,245.835 66.157,246.042 66.118 C 246.248 66.078,246.079 66.045,245.667 66.045 C 245.254 66.045,245.085 66.078,245.292 66.118 M109.833 68.583 C 109.428 68.996,109.135 69.333,109.181 69.333 C 109.226 69.333,109.595 68.996,110.000 68.583 C 110.405 68.171,110.699 67.833,110.653 67.833 C 110.607 67.833,110.238 68.171,109.833 68.583 M350.577 68.708 L 349.750 69.583 350.625 68.756 C 351.106 68.301,351.500 67.908,351.500 67.881 C 351.500 67.757,351.346 67.895,350.577 68.708 M372.493 69.042 C 372.902 69.477,373.258 69.833,373.285 69.833 C 373.410 69.833,373.278 69.684,372.542 68.993 L 371.750 68.250 372.493 69.042 M181.208 68.916 C 180.899 69.267,180.956 69.364,181.333 69.128 C 181.517 69.013,181.667 68.863,181.667 68.793 C 181.667 68.595,181.437 68.656,181.208 68.916 M184.750 69.000 C 185.205 69.196,185.333 69.196,185.333 69.000 C 185.333 68.908,185.127 68.839,184.875 68.845 C 184.469 68.855,184.455 68.873,184.750 69.000 M107.909 71.182 C 107.762 71.466,107.672 71.727,107.708 71.763 C 107.744 71.800,107.898 71.568,108.051 71.248 C 108.394 70.529,108.275 70.474,107.909 71.182 M243.375 72.448 C 243.535 72.490,243.798 72.490,243.958 72.448 C 244.119 72.406,243.987 72.372,243.667 72.372 C 243.346 72.372,243.215 72.406,243.375 72.448 M296.572 76.167 C 296.572 78.321,296.595 79.202,296.624 78.125 C 296.653 77.048,296.653 75.285,296.624 74.208 C 296.595 73.131,296.572 74.012,296.572 76.167 M366.667 73.250 C 366.978 73.571,367.270 73.833,367.315 73.833 C 367.361 73.833,367.144 73.571,366.833 73.250 C 366.522 72.929,366.230 72.667,366.185 72.667 C 366.139 72.667,366.356 72.929,366.667 73.250 M248.333 73.885 C 248.333 73.914,248.577 74.158,248.875 74.427 L 249.417 74.917 248.927 74.375 C 248.471 73.870,248.333 73.757,248.333 73.885 M113.879 75.667 C 113.879 76.079,113.911 76.248,113.951 76.042 C 113.991 75.835,113.991 75.498,113.951 75.292 C 113.911 75.085,113.879 75.254,113.879 75.667 M347.559 76.417 C 347.559 77.242,347.587 77.600,347.622 77.213 C 347.657 76.827,347.657 76.152,347.623 75.713 C 347.588 75.275,347.560 75.592,347.559 76.417 M375.539 76.000 C 375.539 76.321,375.573 76.452,375.615 76.292 C 375.657 76.131,375.657 75.869,375.615 75.708 C 375.573 75.548,375.539 75.679,375.539 76.000 M314.236 83.167 C 314.236 84.954,314.261 85.685,314.291 84.792 C 314.321 83.898,314.321 82.435,314.291 81.542 C 314.261 80.648,314.236 81.379,314.236 83.167 M259.042 81.083 C 259.044 81.450,259.078 81.580,259.118 81.373 C 259.158 81.166,259.156 80.866,259.115 80.706 C 259.073 80.547,259.040 80.717,259.042 81.083 M251.205 81.167 C 251.205 81.487,251.240 81.619,251.282 81.458 C 251.323 81.298,251.323 81.035,251.282 80.875 C 251.240 80.715,251.205 80.846,251.205 81.167 M185.897 82.074 C 185.847 82.206,185.835 82.449,185.870 82.615 C 185.911 82.803,185.968 82.713,186.022 82.375 C 186.113 81.807,186.054 81.665,185.897 82.074 M349.500 82.719 C 349.500 82.748,349.744 82.991,350.042 83.260 L 350.583 83.750 350.094 83.208 C 349.638 82.703,349.500 82.590,349.500 82.719 M180.052 83.750 C 180.053 84.300,180.084 84.505,180.121 84.205 C 180.158 83.906,180.157 83.456,180.119 83.205 C 180.081 82.955,180.051 83.200,180.052 83.750 M185.567 84.899 C 185.518 85.027,185.503 85.421,185.535 85.774 C 185.587 86.369,185.597 86.352,185.671 85.542 C 185.752 84.648,185.725 84.486,185.567 84.899 M259.045 86.000 C 259.045 86.412,259.078 86.581,259.118 86.375 C 259.157 86.169,259.157 85.831,259.118 85.625 C 259.078 85.419,259.045 85.587,259.045 86.000 M296.579 90.958 L 296.583 95.583 306.625 95.585 L 316.667 95.587 306.669 95.542 L 296.672 95.497 296.624 90.915 L 296.575 86.333 296.579 90.958 M178.548 89.250 C 178.549 89.708,178.581 89.876,178.620 89.623 C 178.658 89.369,178.657 88.994,178.617 88.789 C 178.578 88.584,178.546 88.792,178.548 89.250 M136.053 91.667 C 136.053 92.263,136.084 92.506,136.121 92.208 C 136.158 91.910,136.158 91.423,136.121 91.125 C 136.084 90.827,136.053 91.071,136.053 91.667 M187.542 91.250 C 187.544 91.617,187.578 91.747,187.618 91.540 C 187.658 91.332,187.656 91.032,187.615 90.873 C 187.573 90.714,187.540 90.883,187.542 91.250 M109.863 91.123 C 112.901 91.165,113.489 91.213,113.555 91.423 C 113.608 91.593,113.624 91.578,113.606 91.378 C 113.581 91.106,113.297 91.083,109.914 91.079 L 106.250 91.074 109.863 91.123 M346.942 91.125 C 346.899 91.194,347.964 91.231,349.307 91.207 C 353.816 91.127,354.276 91.067,350.635 91.034 C 348.646 91.015,346.985 91.056,346.942 91.125 M106.209 92.250 C 106.211 92.617,106.245 92.747,106.285 92.540 C 106.324 92.332,106.323 92.032,106.281 91.873 C 106.239 91.714,106.207 91.883,106.209 92.250 M369.379 92.333 C 369.379 92.746,369.411 92.915,369.451 92.708 C 369.491 92.502,369.491 92.165,369.451 91.958 C 369.411 91.752,369.379 91.921,369.379 92.333 M177.774 92.000 C 177.878 92.138,178.001 92.400,178.046 92.583 C 178.124 92.900,178.129 92.899,178.147 92.562 C 178.158 92.367,178.035 92.105,177.875 91.979 C 177.621 91.780,177.608 91.783,177.774 92.000 M187.048 94.583 C 187.049 95.042,187.081 95.209,187.120 94.956 C 187.158 94.703,187.157 94.328,187.117 94.123 C 187.078 93.918,187.046 94.125,187.048 94.583 M178.042 94.750 C 178.044 95.117,178.078 95.247,178.118 95.040 C 178.158 94.832,178.156 94.532,178.115 94.373 C 178.073 94.214,178.040 94.383,178.042 94.750 M368.158 95.292 L 367.583 95.917 368.208 95.342 C 368.552 95.026,368.833 94.745,368.833 94.717 C 368.833 94.590,368.692 94.710,368.158 95.292 M361.461 97.121 C 361.761 97.158,362.211 97.157,362.461 97.119 C 362.712 97.081,362.467 97.051,361.917 97.052 C 361.367 97.053,361.162 97.084,361.461 97.121 M176.898 101.405 C 176.848 101.535,176.835 101.817,176.869 102.030 C 176.915 102.314,176.953 102.251,177.015 101.792 C 177.103 101.145,177.057 100.992,176.898 101.405 M119.375 103.286 C 119.627 103.324,120.040 103.324,120.292 103.286 C 120.544 103.248,120.337 103.217,119.833 103.217 C 119.329 103.217,119.123 103.248,119.375 103.286 M122.711 103.286 C 122.964 103.325,123.339 103.324,123.544 103.284 C 123.749 103.244,123.542 103.213,123.083 103.214 C 122.625 103.216,122.457 103.248,122.711 103.286 M359.875 103.282 C 360.035 103.323,360.298 103.323,360.458 103.282 C 360.619 103.240,360.488 103.205,360.167 103.205 C 359.846 103.205,359.715 103.240,359.875 103.282 M363.875 103.282 C 364.035 103.323,364.298 103.323,364.458 103.282 C 364.619 103.240,364.488 103.205,364.167 103.205 C 363.846 103.205,363.715 103.240,363.875 103.282 M39.500 103.472 C 39.500 103.711,39.689 103.814,39.947 103.715 C 40.149 103.638,40.154 103.594,39.972 103.479 C 39.687 103.299,39.500 103.296,39.500 103.472 " stroke="none" fill="#b5b5b5" fill-rule="evenodd"></path><path id="path3" d="M100.333 7.099 C 100.333 7.245,100.483 7.404,100.667 7.452 C 100.850 7.500,101.000 7.598,101.000 7.669 C 101.000 7.821,102.091 8.088,103.746 8.341 C 104.385 8.438,104.972 8.608,105.050 8.718 C 105.159 8.871,105.212 8.869,105.277 8.708 C 105.323 8.594,105.486 8.506,105.639 8.513 C 105.812 8.521,105.838 8.558,105.708 8.610 C 105.098 8.857,105.818 9.487,106.718 9.495 C 107.297 9.500,110.068 10.330,110.667 10.678 C 111.116 10.939,109.972 10.848,109.167 10.559 C 108.754 10.410,108.135 10.224,107.792 10.145 C 106.560 9.860,105.902 9.695,104.950 9.433 C 104.419 9.286,103.607 9.167,103.147 9.167 C 102.640 9.167,102.215 9.072,102.069 8.927 C 101.937 8.795,101.474 8.640,101.040 8.584 C 99.713 8.412,99.486 8.335,99.061 7.910 C 98.836 7.684,98.471 7.500,98.250 7.500 C 98.030 7.500,97.652 7.410,97.412 7.301 C 97.074 7.147,96.904 7.147,96.657 7.301 C 96.481 7.410,96.149 7.500,95.919 7.500 C 95.689 7.500,95.500 7.590,95.500 7.700 C 95.500 7.856,95.456 7.856,95.300 7.700 C 95.055 7.455,94.557 7.439,94.414 7.671 C 94.356 7.766,94.482 7.988,94.696 8.166 C 95.209 8.594,94.997 8.585,94.257 8.149 C 93.031 7.425,84.680 10.322,82.250 12.314 C 82.067 12.465,81.654 12.731,81.333 12.907 C 80.726 13.239,79.654 14.001,78.685 14.790 C 78.374 15.043,78.037 15.281,77.935 15.319 C 77.695 15.408,77.345 15.865,77.339 16.099 C 77.336 16.199,78.102 16.448,79.042 16.652 C 80.863 17.048,81.653 17.302,81.125 17.322 C 80.965 17.328,80.833 17.408,80.833 17.500 C 80.833 17.726,80.112 17.712,79.881 17.481 C 79.779 17.379,79.296 17.278,78.806 17.256 C 78.317 17.233,77.550 17.127,77.103 17.019 C 76.385 16.845,76.248 16.857,75.944 17.119 C 75.394 17.594,74.746 18.389,74.792 18.534 C 74.815 18.607,74.739 18.667,74.623 18.667 C 74.265 18.667,73.741 19.223,71.875 21.583 C 71.295 22.317,70.749 23.007,70.661 23.118 C 70.572 23.229,70.499 23.379,70.498 23.451 C 70.497 23.524,70.346 23.771,70.163 24.000 C 69.189 25.222,66.167 30.994,66.167 31.631 C 66.167 31.714,66.044 32.027,65.895 32.327 C 65.745 32.627,65.562 33.107,65.489 33.395 C 65.415 33.682,65.135 34.667,64.868 35.583 C 63.494 40.293,63.097 47.890,63.997 52.250 C 64.092 52.708,64.226 53.383,64.296 53.748 C 64.386 54.224,64.516 54.430,64.753 54.473 C 64.934 54.506,65.158 54.609,65.250 54.702 C 65.362 54.816,65.299 54.835,65.056 54.762 C 64.613 54.628,64.504 54.781,64.618 55.376 C 64.679 55.695,64.807 55.833,65.042 55.833 C 65.226 55.833,65.506 55.981,65.663 56.162 C 65.836 56.362,66.137 56.482,66.432 56.470 C 66.699 56.458,67.235 56.507,67.625 56.579 C 68.194 56.684,68.333 56.661,68.333 56.466 C 68.333 56.280,68.555 56.332,69.292 56.691 C 69.819 56.949,70.370 57.161,70.516 57.163 C 70.875 57.168,71.833 57.656,71.833 57.834 C 71.833 57.912,71.601 57.910,71.318 57.829 C 71.035 57.748,70.585 57.725,70.318 57.778 C 69.942 57.853,69.833 57.814,69.833 57.604 C 69.833 57.455,69.715 57.333,69.571 57.333 C 69.427 57.333,69.197 57.221,69.060 57.083 C 68.922 56.946,68.696 56.833,68.558 56.833 C 68.176 56.833,68.391 57.242,68.805 57.303 C 69.004 57.333,69.167 57.458,69.167 57.581 C 69.167 57.705,69.260 57.843,69.375 57.890 C 70.120 58.190,68.842 57.925,67.902 57.584 C 66.680 57.141,65.167 56.868,65.167 57.092 C 65.167 57.278,65.480 58.241,65.896 59.333 C 66.088 59.837,66.227 60.306,66.206 60.375 C 66.184 60.444,66.242 60.500,66.333 60.500 C 66.425 60.500,66.500 60.605,66.500 60.734 C 66.500 60.863,66.644 61.257,66.820 61.609 C 66.996 61.962,67.301 62.587,67.499 63.000 C 67.697 63.413,68.117 64.200,68.433 64.750 C 68.748 65.300,69.051 65.881,69.106 66.042 C 69.161 66.202,69.272 66.333,69.353 66.333 C 69.434 66.333,69.500 66.416,69.500 66.517 C 69.500 66.619,69.719 67.026,69.986 67.422 C 70.254 67.818,70.647 68.523,70.860 68.988 C 71.073 69.453,71.305 69.833,71.374 69.833 C 71.443 69.833,71.500 70.024,71.500 70.257 C 71.500 70.489,71.650 70.974,71.833 71.333 C 72.017 71.693,72.167 72.136,72.167 72.319 C 72.167 72.937,72.533 73.500,72.935 73.500 C 73.145 73.500,73.752 73.621,74.284 73.769 C 74.815 73.917,75.587 74.095,76.000 74.166 C 76.412 74.236,77.162 74.416,77.667 74.567 C 78.620 74.850,79.205 75.009,80.542 75.344 C 80.977 75.454,81.333 75.638,81.333 75.754 C 81.333 75.915,81.185 75.927,80.708 75.807 C 80.365 75.720,79.446 75.509,78.667 75.339 C 77.293 75.040,76.057 74.756,73.856 74.234 C 72.565 73.928,72.648 73.836,72.860 75.339 C 73.129 77.247,72.936 81.327,72.509 82.750 C 72.317 83.392,72.073 84.217,71.967 84.583 C 71.862 84.950,71.713 85.321,71.638 85.408 C 71.562 85.495,71.500 85.664,71.500 85.783 C 71.500 86.108,69.938 89.253,69.654 89.500 C 69.601 89.546,69.254 90.033,68.881 90.583 C 68.508 91.133,67.633 92.183,66.935 92.917 C 65.629 94.288,65.432 94.805,66.294 94.592 C 67.427 94.313,67.696 94.309,68.237 94.566 C 68.550 94.715,69.039 94.883,69.323 94.940 C 69.608 94.997,69.881 95.108,69.930 95.188 C 69.979 95.268,70.229 95.333,70.484 95.333 C 70.740 95.333,71.180 95.449,71.462 95.589 C 71.744 95.730,72.225 95.839,72.529 95.831 C 72.834 95.823,73.383 95.891,73.750 95.983 C 75.227 96.352,78.516 97.252,79.606 97.587 C 79.803 97.647,80.013 97.614,80.074 97.515 C 80.136 97.415,80.351 97.336,80.552 97.339 C 80.891 97.344,80.896 97.360,80.625 97.565 C 80.465 97.687,80.333 97.829,80.333 97.881 C 80.333 97.933,80.465 98.010,80.625 98.052 C 80.888 98.121,80.886 98.130,80.607 98.147 C 80.393 98.161,80.330 98.250,80.401 98.437 C 80.484 98.653,80.430 98.685,80.127 98.597 C 79.920 98.536,79.487 98.446,79.167 98.396 C 78.602 98.309,77.940 98.113,77.250 97.829 C 76.872 97.674,76.001 97.440,75.750 97.426 C 75.658 97.421,75.546 97.379,75.500 97.333 C 75.254 97.088,74.155 96.674,73.500 96.580 C 72.643 96.458,71.056 96.035,70.627 95.815 C 70.468 95.734,70.201 95.667,70.034 95.667 C 69.866 95.667,69.419 95.517,69.039 95.333 C 68.660 95.150,68.233 95.000,68.091 95.000 C 67.949 95.000,67.833 94.930,67.833 94.845 C 67.833 94.648,67.179 94.432,67.032 94.580 C 66.971 94.640,67.108 94.840,67.336 95.024 L 67.750 95.359 67.250 95.254 C 65.055 94.796,65.011 94.796,64.234 95.287 C 63.831 95.542,63.500 95.806,63.500 95.875 C 63.500 95.944,63.429 96.000,63.342 96.000 C 63.255 96.000,62.861 96.210,62.467 96.466 C 62.073 96.723,61.337 97.109,60.833 97.324 C 60.329 97.539,59.655 97.829,59.336 97.967 C 59.016 98.106,58.529 98.277,58.253 98.346 C 56.199 98.866,55.557 98.988,54.083 99.142 C 51.450 99.417,47.815 98.918,45.167 97.918 C 43.492 97.285,40.875 95.904,40.239 95.317 C 40.050 95.143,39.842 95.000,39.776 95.000 C 39.495 95.000,37.320 92.893,36.076 91.415 C 33.952 88.892,32.858 86.648,31.853 82.750 C 31.298 80.595,31.286 75.356,31.834 73.916 C 31.925 73.675,32.000 73.263,32.000 72.999 C 32.000 72.735,32.075 72.473,32.167 72.417 C 32.258 72.360,32.333 72.131,32.333 71.907 L 32.333 71.500 23.183 71.500 L 14.034 71.500 13.922 72.292 C 13.649 74.230,13.647 82.033,13.919 83.574 C 14.066 84.404,14.225 85.346,14.273 85.667 C 14.471 87.003,15.156 89.693,15.599 90.875 C 16.143 92.327,16.390 92.954,16.665 93.583 C 16.825 93.950,17.134 94.662,17.352 95.167 C 17.570 95.671,17.992 96.522,18.291 97.058 C 18.589 97.594,18.833 98.091,18.833 98.163 C 18.833 98.235,18.972 98.331,19.141 98.375 C 19.317 98.421,19.491 98.663,19.546 98.939 C 19.599 99.205,19.910 99.759,20.237 100.170 C 20.563 100.581,20.831 100.976,20.832 101.049 C 20.836 101.368,21.702 102.030,22.009 101.949 C 22.360 101.858,22.467 102.094,22.127 102.208 C 21.836 102.305,22.131 102.897,22.938 103.833 C 23.866 104.911,27.185 108.167,27.355 108.167 C 27.435 108.167,27.818 108.467,28.207 108.833 C 28.596 109.200,28.975 109.500,29.048 109.500 C 29.121 109.500,29.346 109.659,29.549 109.854 C 29.751 110.048,30.321 110.480,30.816 110.812 C 31.310 111.145,31.910 111.548,32.149 111.709 C 32.884 112.202,34.567 113.000,34.875 113.000 C 35.035 113.000,35.300 113.131,35.463 113.292 C 35.627 113.452,35.945 113.668,36.172 113.771 C 36.398 113.874,36.921 114.112,37.333 114.301 C 37.746 114.490,38.646 114.830,39.333 115.056 C 42.956 116.250,44.056 116.492,48.167 116.996 C 51.546 117.410,57.364 117.081,60.968 116.274 C 63.914 115.613,67.667 114.244,67.667 113.830 C 67.667 113.740,67.887 113.667,68.157 113.667 C 68.426 113.667,68.693 113.592,68.750 113.500 C 68.807 113.408,68.992 113.333,69.163 113.333 C 69.333 113.333,69.497 113.277,69.528 113.208 C 69.558 113.140,69.958 112.897,70.417 112.669 C 73.107 111.331,73.367 110.911,71.792 110.436 C 70.003 109.898,69.236 109.591,69.531 109.534 C 69.686 109.504,70.157 109.597,70.579 109.740 C 71.000 109.883,71.717 110.000,72.172 110.000 C 72.780 110.000,73.000 110.064,73.000 110.239 C 73.000 110.525,73.578 110.739,73.874 110.563 C 74.158 110.393,75.873 109.124,76.097 108.917 C 76.197 108.825,76.681 108.412,77.174 108.000 C 79.082 106.402,79.090 106.393,78.860 106.115 C 78.680 105.899,78.696 105.872,78.958 105.941 C 79.426 106.063,81.779 103.673,83.167 101.664 C 83.304 101.465,83.546 101.150,83.703 100.965 C 83.861 100.779,84.035 100.486,84.090 100.314 C 84.144 100.141,84.259 100.000,84.345 100.000 C 85.077 100.000,84.298 99.485,83.186 99.234 C 82.102 98.989,81.910 98.899,82.091 98.719 C 82.374 98.436,83.241 98.451,84.083 98.755 C 84.977 99.077,85.167 99.061,85.167 98.667 C 85.167 98.483,85.226 98.333,85.299 98.333 C 85.371 98.333,85.832 97.527,86.323 96.542 C 87.646 93.883,87.833 93.483,87.833 93.316 C 87.833 93.232,87.978 92.845,88.155 92.457 C 89.916 88.595,91.529 78.106,90.432 77.662 C 90.147 77.547,90.137 77.519,90.375 77.511 C 90.886 77.492,90.749 73.332,90.161 71.000 C 90.080 70.679,89.930 70.004,89.827 69.500 C 89.724 68.996,89.505 68.133,89.338 67.583 C 89.172 67.033,88.989 66.377,88.932 66.125 C 88.857 65.800,88.719 65.663,88.455 65.654 C 88.251 65.646,88.177 65.603,88.292 65.556 C 88.539 65.456,88.572 64.564,88.333 64.417 C 88.242 64.360,88.167 64.168,88.167 63.990 C 88.167 63.812,88.092 63.667,88.000 63.667 C 87.908 63.667,87.833 63.556,87.833 63.420 C 87.833 62.991,86.475 60.333,86.256 60.333 C 86.122 60.333,86.075 60.182,86.126 59.917 C 86.172 59.673,86.128 59.500,86.019 59.500 C 85.917 59.500,85.833 59.387,85.833 59.250 C 85.833 59.103,85.679 58.999,85.458 58.997 C 85.193 58.996,85.147 58.954,85.303 58.856 C 85.477 58.746,85.434 58.562,85.098 57.983 C 84.864 57.580,84.508 56.931,84.307 56.542 C 83.985 55.919,83.872 55.833,83.375 55.833 C 82.861 55.833,82.833 55.810,83.071 55.571 C 83.497 55.146,83.215 53.925,82.583 53.461 C 82.492 53.394,82.468 53.337,82.530 53.336 C 82.592 53.334,82.566 53.090,82.471 52.792 C 80.594 46.885,80.663 43.037,82.747 37.583 C 83.169 36.479,84.699 33.623,85.075 33.238 C 85.171 33.140,85.549 32.690,85.914 32.238 C 86.803 31.138,88.429 29.516,89.250 28.911 C 89.617 28.640,89.954 28.377,90.000 28.326 C 90.211 28.092,92.796 26.644,93.167 26.552 C 93.396 26.495,93.621 26.404,93.667 26.349 C 93.832 26.152,94.501 25.833,94.750 25.833 C 94.890 25.833,95.135 25.766,95.294 25.683 C 95.751 25.445,97.857 24.928,99.139 24.739 C 99.817 24.639,99.855 24.606,99.761 24.191 L 99.661 23.750 99.927 24.167 C 100.187 24.574,100.238 24.583,102.198 24.576 C 105.086 24.566,108.367 25.239,110.333 26.245 C 110.563 26.362,111.050 26.586,111.417 26.742 C 112.124 27.044,113.879 28.165,113.972 28.375 C 114.003 28.444,114.094 28.500,114.175 28.500 C 114.595 28.500,117.739 31.664,118.646 33.000 C 118.864 33.321,119.089 33.621,119.146 33.667 C 119.381 33.855,121.023 37.059,121.495 38.250 C 122.595 41.025,123.151 46.697,122.548 49.000 C 122.441 49.413,122.310 50.069,122.257 50.458 L 122.163 51.167 123.104 51.167 C 124.606 51.167,127.766 51.713,131.667 52.647 C 132.723 52.900,135.895 54.182,137.557 55.027 C 139.066 55.795,138.965 55.828,139.283 54.467 C 139.526 53.427,139.584 53.075,140.024 50.000 C 140.310 47.995,140.313 43.234,140.029 41.167 C 139.528 37.526,139.358 36.593,138.904 35.000 C 138.761 34.496,138.561 33.783,138.459 33.417 C 138.358 33.050,138.213 32.679,138.138 32.592 C 138.062 32.505,138.000 32.276,138.000 32.083 C 138.000 31.891,137.936 31.662,137.858 31.575 C 137.780 31.488,137.511 30.892,137.261 30.250 C 136.268 27.707,133.706 23.284,132.472 21.984 C 132.350 21.855,132.031 21.457,131.763 21.098 C 131.083 20.189,130.230 19.333,130.004 19.333 C 129.899 19.333,129.862 19.255,129.922 19.159 C 129.981 19.063,129.587 18.556,129.047 18.034 C 127.489 16.527,127.035 16.146,124.083 13.865 C 123.436 13.365,122.326 12.667,122.178 12.667 C 122.080 12.667,122.000 12.592,122.000 12.500 C 122.000 12.408,121.912 12.333,121.805 12.333 C 121.697 12.333,121.491 12.228,121.346 12.100 C 120.963 11.760,118.369 10.478,115.917 9.415 C 114.372 8.745,110.782 7.739,109.083 7.499 C 108.533 7.421,107.340 7.239,106.431 7.095 C 104.134 6.731,100.333 6.733,100.333 7.099 M27.833 8.681 C 27.421 8.761,26.633 8.908,26.083 9.007 C 23.321 9.505,19.900 10.813,17.426 12.316 C 16.806 12.692,16.264 13.000,16.221 13.000 C 16.178 13.000,16.040 13.094,15.913 13.208 C 15.787 13.323,15.156 13.792,14.510 14.250 C 1.320 23.617,-1.142 44.010,9.326 57.191 C 20.676 71.484,43.596 71.402,54.333 57.031 C 54.654 56.602,55.032 56.122,55.172 55.966 C 55.490 55.612,56.891 53.271,57.629 51.860 C 61.140 45.149,61.800 36.046,59.315 28.611 C 55.791 18.068,46.967 10.536,36.039 8.744 C 34.426 8.480,29.082 8.439,27.833 8.681 M88.439 12.098 L 88.917 12.362 88.417 12.253 C 88.142 12.192,87.845 12.073,87.758 11.988 C 87.503 11.739,87.909 11.804,88.439 12.098 M81.500 14.500 C 81.500 14.592,81.233 14.667,80.907 14.667 C 80.554 14.667,80.355 14.599,80.417 14.500 C 80.473 14.408,80.740 14.333,81.010 14.333 C 81.279 14.333,81.500 14.408,81.500 14.500 M98.833 15.167 C 98.833 15.258,99.036 15.333,99.283 15.333 C 99.597 15.333,99.680 15.386,99.559 15.508 C 99.437 15.630,99.250 15.622,98.942 15.481 C 98.505 15.282,98.344 15.000,98.667 15.000 C 98.758 15.000,98.833 15.075,98.833 15.167 M102.836 15.541 C 103.201 15.655,103.500 15.813,103.500 15.892 C 103.500 15.971,103.369 15.985,103.208 15.923 C 103.048 15.861,102.709 15.768,102.455 15.717 C 102.201 15.666,101.953 15.558,101.903 15.478 C 101.780 15.278,102.054 15.297,102.836 15.541 M77.305 18.944 C 77.885 19.001,78.278 19.098,78.180 19.159 C 77.911 19.324,75.643 19.045,75.432 18.820 C 75.295 18.673,75.372 18.651,75.750 18.733 C 76.025 18.793,76.725 18.888,77.305 18.944 M127.917 18.833 C 128.352 18.944,128.308 18.963,127.583 18.978 C 127.125 18.987,126.638 18.922,126.500 18.833 C 126.195 18.636,127.142 18.636,127.917 18.833 M76.167 20.241 L 77.583 20.467 76.292 20.484 C 75.262 20.497,75.000 20.551,75.000 20.750 C 75.000 20.894,74.850 21.000,74.646 21.000 C 74.352 21.000,74.327 20.958,74.498 20.753 C 74.668 20.548,74.628 20.477,74.268 20.340 C 73.229 19.945,74.049 19.902,76.167 20.241 M39.213 20.957 C 40.790 21.401,41.467 21.706,42.690 22.525 C 47.540 25.771,47.577 34.329,42.753 36.927 C 41.995 37.335,42.005 37.368,43.042 37.833 C 48.323 40.202,49.046 49.037,44.336 53.645 C 41.297 56.619,39.842 56.894,27.083 56.907 L 17.583 56.917 17.541 38.701 L 17.499 20.486 27.708 20.539 C 37.619 20.591,37.954 20.603,39.213 20.957 M106.872 22.722 C 107.494 22.938,107.857 23.169,107.569 23.164 C 107.149 23.158,105.460 22.529,105.833 22.518 C 106.063 22.511,106.530 22.602,106.872 22.722 M83.599 23.042 C 84.265 23.673,84.001 24.127,83.167 23.786 C 82.826 23.647,82.803 23.603,83.042 23.546 C 83.399 23.460,83.422 23.190,83.083 23.060 C 82.946 23.008,82.833 22.897,82.833 22.816 C 82.833 22.551,83.193 22.657,83.599 23.042 M76.038 24.818 C 75.444 25.618,72.833 24.724,72.833 23.722 C 72.833 23.354,73.885 23.444,74.128 23.833 C 74.352 24.192,74.910 24.281,75.092 23.986 C 75.154 23.886,75.386 23.852,75.615 23.910 C 75.948 23.993,76.049 23.939,76.139 23.632 C 76.235 23.301,76.257 23.326,76.304 23.818 C 76.339 24.187,76.246 24.538,76.038 24.818 M73.542 25.328 C 73.794 25.453,74.000 25.616,74.000 25.689 C 74.000 25.762,73.737 25.667,73.417 25.478 C 73.096 25.289,72.833 25.099,72.833 25.057 C 72.833 24.975,72.841 24.978,73.542 25.328 M91.500 26.000 C 91.703 26.131,91.682 26.162,91.385 26.164 C 91.184 26.166,90.973 26.092,90.917 26.000 C 90.786 25.788,91.172 25.788,91.500 26.000 M24.833 30.905 L 24.833 34.833 29.708 34.831 C 37.117 34.827,38.584 34.270,38.929 31.329 C 39.350 27.737,38.113 27.116,30.375 27.034 L 24.833 26.976 24.833 30.905 M82.292 27.875 C 82.251 28.002,81.842 28.103,81.250 28.134 C 80.386 28.179,80.301 28.156,80.492 27.926 C 80.765 27.598,82.399 27.552,82.292 27.875 M126.833 30.417 C 126.833 30.722,126.744 30.833,126.500 30.833 C 126.256 30.833,126.167 30.722,126.167 30.417 C 126.167 30.111,126.256 30.000,126.500 30.000 C 126.744 30.000,126.833 30.111,126.833 30.417 M119.393 31.678 C 119.782 31.776,120.191 32.001,120.302 32.178 C 120.569 32.607,120.420 32.578,119.333 31.993 C 118.329 31.453,118.337 31.412,119.393 31.678 M124.831 32.477 C 124.818 33.030,124.225 33.066,123.892 32.533 C 123.728 32.270,123.769 32.246,124.271 32.304 C 124.580 32.340,124.832 32.418,124.831 32.477 M126.417 32.748 C 126.926 32.862,127.611 33.445,127.439 33.617 C 127.386 33.669,127.146 33.582,126.905 33.424 C 126.663 33.266,126.316 33.176,126.134 33.224 C 125.655 33.349,125.333 33.181,125.333 32.804 C 125.333 32.574,125.420 32.501,125.625 32.557 C 125.785 32.600,126.142 32.686,126.417 32.748 M128.417 33.833 C 128.738 33.971,128.737 33.977,128.385 33.988 C 128.184 33.995,127.973 33.925,127.917 33.833 C 127.795 33.636,127.958 33.636,128.417 33.833 M134.500 34.833 C 134.702 34.964,134.678 34.995,134.375 34.997 C 134.169 34.999,134.000 34.925,134.000 34.833 C 134.000 34.625,134.177 34.625,134.500 34.833 M99.167 38.525 C 98.754 38.713,98.229 38.953,98.000 39.058 C 94.701 40.570,93.343 45.945,95.392 49.377 C 98.171 54.030,105.043 54.231,108.120 49.750 C 109.860 47.216,109.736 42.871,107.875 41.125 C 107.669 40.932,107.500 40.684,107.500 40.574 C 107.500 40.119,105.867 38.992,104.284 38.354 C 103.445 38.017,100.033 38.130,99.167 38.525 M24.833 45.750 L 24.833 50.524 30.292 50.461 C 36.217 50.392,36.685 50.328,38.014 49.407 C 40.096 47.964,40.303 43.765,38.369 42.171 C 37.136 41.154,36.813 41.107,30.542 41.039 L 24.833 40.977 24.833 45.750 M72.066 45.856 C 72.295 45.960,72.516 46.134,72.558 46.243 C 72.608 46.375,72.446 46.354,72.072 46.179 C 71.764 46.035,71.508 45.860,71.505 45.792 C 71.498 45.624,71.578 45.633,72.066 45.856 M71.700 53.017 C 72.041 53.191,72.431 53.333,72.567 53.333 C 72.703 53.333,72.854 53.398,72.903 53.477 C 73.001 53.637,71.656 53.342,70.500 52.949 C 70.087 52.809,69.600 52.654,69.417 52.605 C 69.233 52.555,69.533 52.556,70.082 52.607 C 70.631 52.659,71.359 52.843,71.700 53.017 M120.583 54.109 C 110.719 54.514,101.205 60.879,96.581 70.167 C 85.702 92.020,103.672 117.134,127.333 113.145 C 134.040 112.015,141.259 107.654,145.093 102.417 C 145.362 102.050,145.624 101.712,145.677 101.667 C 146.959 100.546,149.924 94.057,150.668 90.744 C 151.929 85.137,151.599 78.812,149.793 73.917 C 149.522 73.183,149.258 72.433,149.205 72.250 C 148.959 71.390,146.731 67.282,146.041 66.417 C 145.967 66.325,145.724 65.987,145.498 65.667 C 142.852 61.893,137.894 58.082,132.917 55.995 C 129.662 54.630,125.054 53.926,120.583 54.109 M239.167 54.165 C 236.862 54.463,233.755 55.246,232.229 55.914 C 227.884 57.814,225.247 59.597,222.330 62.607 C 207.820 77.583,212.216 102.070,231.000 110.893 C 238.866 114.587,249.065 114.214,256.382 109.964 C 256.822 109.709,257.219 109.500,257.265 109.500 C 257.361 109.500,259.874 107.827,260.000 107.679 C 260.046 107.625,260.383 107.359,260.750 107.087 C 261.734 106.358,264.142 103.919,265.196 102.583 C 277.251 87.316,272.145 64.754,254.785 56.584 C 252.568 55.540,251.136 55.088,247.667 54.336 C 246.539 54.092,240.647 53.973,239.167 54.165 M79.083 54.333 C 79.145 54.433,78.946 54.500,78.593 54.500 C 78.267 54.500,78.000 54.425,78.000 54.333 C 78.000 54.242,78.221 54.167,78.490 54.167 C 78.760 54.167,79.027 54.242,79.083 54.333 M178.667 54.362 C 171.863 55.490,166.995 57.972,162.239 62.736 C 152.167 72.826,150.753 88.593,158.816 100.913 C 159.701 102.266,161.286 104.141,162.743 105.560 C 174.845 117.348,194.959 115.978,205.211 102.667 C 205.599 102.162,206.011 101.650,206.127 101.527 C 206.410 101.229,208.362 97.911,208.717 97.125 C 208.988 96.528,209.375 95.631,209.673 94.917 C 213.517 85.681,211.697 73.235,205.324 65.174 C 201.878 60.816,196.950 57.305,192.000 55.682 C 189.723 54.936,189.540 54.886,188.250 54.665 C 187.608 54.556,186.723 54.399,186.283 54.316 C 185.274 54.128,179.887 54.160,178.667 54.362 M299.750 54.427 C 296.560 54.726,293.249 55.552,290.667 56.695 C 282.407 60.350,275.873 68.164,273.969 76.667 C 273.876 77.079,273.733 77.717,273.651 78.083 C 272.779 81.976,272.924 87.833,273.986 91.667 C 274.410 93.195,274.483 93.450,274.633 93.917 C 275.390 96.273,277.980 101.271,278.821 102.000 C 278.874 102.046,279.235 102.502,279.623 103.013 C 280.411 104.049,283.387 106.994,284.417 107.755 C 284.783 108.026,285.121 108.291,285.167 108.343 C 285.334 108.535,286.775 109.461,287.667 109.950 C 288.171 110.226,288.846 110.608,289.167 110.798 C 293.284 113.234,302.039 114.515,307.167 113.432 C 309.556 112.927,309.703 112.889,311.291 112.358 C 316.428 110.643,320.858 107.500,324.726 102.829 C 326.623 100.537,329.086 95.821,329.859 93.000 C 329.947 92.679,330.091 92.154,330.180 91.833 C 331.241 87.991,331.429 81.820,330.594 78.250 C 329.902 75.293,329.651 74.453,328.902 72.583 C 325.473 64.022,317.604 57.160,308.917 55.157 C 306.355 54.567,301.983 54.219,299.750 54.427 M358.500 54.429 C 358.179 54.466,357.392 54.582,356.750 54.688 C 355.713 54.860,355.204 54.977,353.250 55.495 C 350.878 56.123,347.686 57.660,345.250 59.347 C 342.920 60.961,339.970 63.795,338.671 65.667 C 338.448 65.987,338.221 66.287,338.167 66.333 C 337.169 67.169,334.297 73.172,333.580 75.917 C 330.495 87.734,334.187 99.499,343.451 107.369 C 354.808 117.017,372.733 115.584,382.914 104.214 C 399.818 85.336,387.177 54.876,362.250 54.421 C 360.508 54.389,358.821 54.393,358.500 54.429 M66.940 54.917 C 66.803 55.054,66.596 55.167,66.480 55.167 C 66.362 55.167,66.412 55.059,66.593 54.922 C 67.018 54.601,67.260 54.597,66.940 54.917 M70.274 55.250 C 70.136 55.387,69.812 55.496,69.554 55.491 C 69.091 55.481,69.092 55.478,69.667 55.260 C 70.461 54.960,70.566 54.958,70.274 55.250 M180.104 61.719 C 180.395 61.607,180.427 62.589,180.138 62.768 C 180.009 62.848,180.065 62.933,180.305 63.022 C 180.733 63.180,180.786 63.750,180.393 63.970 C 180.188 64.085,180.150 64.243,180.240 64.603 C 180.307 64.867,180.426 65.646,180.505 66.333 C 180.735 68.336,180.799 68.500,181.353 68.500 C 181.924 68.500,181.927 68.492,181.499 67.999 C 181.039 67.469,181.207 67.387,181.837 67.836 C 182.419 68.250,182.608 68.160,182.710 67.417 L 182.778 66.917 182.910 67.458 C 183.047 68.022,183.296 68.121,183.844 67.827 C 184.177 67.649,184.321 67.885,184.000 68.083 C 183.627 68.314,183.868 68.471,184.342 68.305 C 185.014 68.071,185.154 68.240,184.556 68.564 L 184.083 68.820 184.708 68.827 C 185.531 68.835,185.510 69.096,184.676 69.229 L 184.020 69.334 184.073 70.223 C 184.124 71.089,184.385 71.833,184.637 71.833 C 184.830 71.833,185.333 72.764,185.333 73.122 C 185.333 73.298,185.513 73.610,185.732 73.816 L 186.131 74.191 186.394 73.815 C 186.671 73.419,186.895 73.463,187.713 74.073 C 188.160 74.406,187.924 75.602,187.285 76.240 C 186.972 76.554,186.762 76.965,186.707 77.373 C 186.658 77.734,186.484 78.109,186.307 78.233 C 186.028 78.429,185.997 78.655,186.029 80.268 C 186.049 81.267,185.962 83.152,185.835 84.459 C 185.607 86.817,185.608 86.838,185.969 87.327 C 186.169 87.598,186.333 87.973,186.333 88.160 C 186.333 88.347,186.415 88.500,186.516 88.500 C 186.638 88.500,186.661 88.771,186.584 89.329 C 186.470 90.155,186.472 90.159,187.068 90.443 C 187.777 90.781,187.888 91.506,187.338 92.206 C 186.848 92.830,187.102 97.959,187.674 98.977 C 187.917 99.410,188.002 99.745,187.919 99.945 C 187.730 100.396,187.747 101.112,187.953 101.363 C 188.051 101.484,188.159 101.977,188.191 102.458 L 188.250 103.334 182.542 103.333 L 176.833 103.333 176.833 102.328 C 176.833 101.639,176.904 101.296,177.058 101.237 C 177.221 101.174,177.261 100.921,177.203 100.317 C 177.137 99.637,177.203 99.336,177.558 98.683 C 178.076 97.731,178.325 92.679,177.881 92.139 C 177.780 92.017,177.645 91.560,177.580 91.125 L 177.462 90.333 177.981 90.333 C 178.498 90.333,178.500 90.330,178.500 89.427 C 178.500 88.928,178.575 88.473,178.667 88.417 C 178.758 88.360,178.836 88.187,178.839 88.032 C 178.842 87.877,179.104 87.491,179.422 87.175 C 179.740 86.858,180.004 86.483,180.009 86.341 C 180.014 86.199,180.056 85.108,180.102 83.917 C 180.269 79.595,180.192 77.045,179.889 76.929 C 179.565 76.805,179.617 76.363,180.070 75.392 C 180.431 74.615,180.447 74.490,180.235 74.081 C 180.106 73.832,180.000 73.378,180.000 73.072 C 180.000 72.753,179.822 72.253,179.583 71.901 C 179.104 71.195,179.055 70.533,179.428 69.812 C 179.650 69.381,179.662 69.097,179.505 67.862 C 179.403 67.067,179.304 66.229,179.283 66.000 C 179.262 65.771,179.182 65.485,179.106 65.364 C 179.029 65.244,179.014 64.893,179.072 64.586 C 179.132 64.264,179.104 63.981,179.005 63.920 C 178.741 63.756,178.802 63.167,179.083 63.167 C 179.383 63.167,179.393 63.091,179.144 62.693 C 178.914 62.324,179.433 61.366,179.712 61.645 C 179.801 61.734,179.977 61.768,180.104 61.719 M69.796 62.759 C 70.000 62.902,70.167 63.088,70.167 63.173 C 70.167 63.393,69.369 62.999,69.264 62.727 C 69.150 62.428,69.340 62.440,69.796 62.759 M71.862 63.602 C 73.072 63.910,73.500 64.106,73.500 64.351 C 73.500 64.446,73.382 64.406,73.238 64.262 C 73.094 64.118,72.723 64.000,72.415 64.000 C 72.106 64.000,71.807 63.925,71.750 63.833 C 71.693 63.742,71.483 63.666,71.282 63.664 C 70.909 63.662,70.253 63.341,70.612 63.336 C 70.719 63.334,71.281 63.454,71.862 63.602 M122.750 64.999 C 129.591 65.729,134.359 69.937,134.790 75.625 L 134.881 76.833 131.194 76.833 L 127.506 76.833 127.407 76.375 C 126.659 72.943,124.408 71.347,120.302 71.336 C 116.463 71.326,114.000 73.060,114.000 75.772 C 114.000 78.212,114.958 78.751,122.677 80.647 C 130.222 82.501,131.707 83.095,133.635 85.029 C 136.820 88.224,136.958 94.258,133.939 98.266 C 128.933 104.912,114.747 105.189,108.866 98.754 C 107.350 97.095,106.167 94.028,106.167 91.757 L 106.167 91.000 109.839 91.000 C 112.633 91.000,113.525 91.050,113.570 91.208 C 113.603 91.323,113.727 91.856,113.846 92.392 C 114.486 95.288,116.570 96.732,120.417 96.945 C 125.546 97.229,128.495 95.591,128.540 92.433 C 128.576 89.871,127.049 88.934,120.500 87.497 C 110.138 85.224,107.412 83.277,106.851 77.748 C 106.004 69.383,112.795 63.937,122.750 64.999 M76.031 65.353 C 76.427 65.465,76.633 65.585,76.489 65.618 C 76.346 65.652,75.896 65.524,75.489 65.335 C 75.083 65.146,74.877 65.026,75.031 65.070 C 75.186 65.113,75.636 65.240,76.031 65.353 M365.009 65.241 C 371.289 66.443,375.667 71.004,375.667 76.344 L 375.667 76.833 371.939 76.833 L 368.212 76.833 368.109 76.084 C 367.328 70.386,355.947 69.471,354.808 75.015 C 354.168 78.134,355.119 78.689,365.333 81.151 C 374.393 83.334,377.088 85.967,376.782 92.333 C 376.456 99.128,370.873 103.327,362.167 103.327 C 353.183 103.327,347.260 98.967,346.982 92.148 L 346.939 91.083 350.590 91.083 L 354.241 91.083 354.538 92.216 C 355.435 95.640,357.561 97.000,362.016 97.000 C 366.824 97.000,369.329 95.386,369.332 92.285 C 369.335 89.838,367.817 88.989,360.500 87.345 C 356.031 86.341,353.459 85.527,351.833 84.602 C 345.835 81.191,346.089 71.494,352.286 67.273 C 355.130 65.336,360.786 64.433,365.009 65.241 M77.667 65.833 C 77.998 66.047,77.582 66.047,77.083 65.833 L 76.750 65.690 77.083 65.681 C 77.267 65.676,77.529 65.744,77.667 65.833 M315.833 69.083 L 315.833 72.333 306.250 72.333 L 296.667 72.333 296.667 76.167 L 296.667 80.000 305.500 80.000 L 314.333 80.000 314.333 83.167 L 314.333 86.333 305.500 86.333 L 296.667 86.333 296.667 90.917 L 296.667 95.500 306.667 95.500 L 316.667 95.500 316.667 98.918 L 316.667 102.335 302.875 102.293 L 289.083 102.250 289.041 84.042 L 288.999 65.833 302.416 65.833 L 315.833 65.833 315.833 69.083 M247.051 66.179 C 254.862 67.347,259.167 73.531,259.167 83.583 C 259.167 92.517,255.625 99.105,249.541 101.486 C 247.496 102.287,246.826 102.333,237.292 102.333 L 228.333 102.333 228.333 84.167 L 228.333 66.000 237.093 66.000 C 242.487 66.000,246.313 66.069,247.051 66.179 M77.917 66.500 C 77.973 66.592,77.865 66.667,77.677 66.667 C 77.488 66.667,77.333 66.592,77.333 66.500 C 77.333 66.408,77.441 66.333,77.573 66.333 C 77.706 66.333,77.860 66.408,77.917 66.500 M180.833 68.911 C 180.833 69.061,180.931 69.119,181.083 69.060 C 181.221 69.008,181.333 68.897,181.333 68.816 C 181.333 68.734,181.221 68.667,181.083 68.667 C 180.946 68.667,180.833 68.777,180.833 68.911 M181.169 69.458 C 181.175 70.078,181.469 70.270,181.657 69.775 C 181.888 69.168,181.888 69.167,181.500 69.167 C 181.293 69.167,181.168 69.277,181.169 69.458 M50.403 71.475 C 49.031 71.723,46.167 73.647,46.167 74.321 C 46.167 74.406,46.070 74.575,45.952 74.696 C 44.774 75.905,44.277 80.333,45.214 81.270 C 45.280 81.335,45.333 81.526,45.333 81.694 C 45.333 81.862,45.408 82.000,45.500 82.000 C 45.592 82.000,45.667 82.150,45.667 82.333 C 45.667 82.517,45.737 82.667,45.822 82.667 C 45.908 82.667,46.030 82.831,46.093 83.031 C 46.233 83.471,47.613 84.842,48.179 85.104 C 48.401 85.207,48.953 85.469,49.405 85.687 C 51.197 86.551,56.500 85.894,56.500 84.808 C 56.500 84.730,56.581 84.667,56.680 84.667 C 56.779 84.667,57.234 84.273,57.691 83.792 C 60.214 81.132,60.305 76.477,57.883 73.914 C 57.133 73.121,55.778 72.000,55.566 71.999 C 55.484 71.998,55.199 71.885,54.933 71.746 C 54.378 71.457,51.468 71.283,50.403 71.475 M235.958 72.426 C 235.890 72.497,235.833 77.838,235.833 84.294 L 235.833 96.033 240.125 95.959 C 244.913 95.877,245.543 95.765,247.122 94.717 C 250.262 92.633,251.862 87.220,251.183 80.980 C 250.623 75.835,248.947 73.422,245.402 72.657 C 244.417 72.444,236.136 72.242,235.958 72.426 M83.364 76.023 C 83.518 76.102,83.832 76.167,84.062 76.167 C 84.750 76.167,85.339 76.458,85.229 76.743 C 85.169 76.900,84.995 76.969,84.774 76.922 C 82.482 76.439,82.000 76.276,82.000 75.982 C 82.000 75.661,82.696 75.683,83.364 76.023 M88.486 77.179 C 89.520 77.396,89.581 77.557,88.583 77.432 C 88.125 77.375,87.581 77.311,87.375 77.289 C 87.169 77.268,87.000 77.148,87.000 77.022 C 87.000 76.863,87.113 76.829,87.375 76.910 C 87.581 76.973,88.081 77.095,88.486 77.179 M27.167 83.167 C 27.369 83.297,27.345 83.329,27.042 83.331 C 26.835 83.332,26.667 83.408,26.667 83.500 C 26.667 83.592,26.742 83.667,26.833 83.667 C 26.925 83.667,27.000 83.739,27.000 83.828 C 27.000 83.917,26.887 83.946,26.750 83.894 C 26.449 83.778,26.413 82.999,26.708 83.003 C 26.823 83.004,27.029 83.078,27.167 83.167 M28.066 86.430 C 28.200 86.780,28.194 86.833,28.019 86.833 C 27.938 86.833,27.833 86.683,27.785 86.500 C 27.682 86.106,27.919 86.048,28.066 86.430 M82.551 93.512 C 82.652 93.896,82.405 93.779,82.164 93.328 C 82.028 93.075,82.042 93.027,82.230 93.099 C 82.360 93.149,82.505 93.335,82.551 93.512 M78.073 93.317 C 78.124 93.399,78.541 93.557,79.000 93.667 C 79.459 93.777,79.871 93.926,79.915 93.998 C 79.960 94.069,80.333 94.179,80.744 94.240 C 81.352 94.332,82.035 94.686,81.552 94.659 C 81.292 94.645,79.913 94.226,79.500 94.037 C 79.271 93.931,78.765 93.764,78.375 93.666 C 77.985 93.568,77.667 93.415,77.667 93.327 C 77.667 93.125,77.950 93.117,78.073 93.317 M82.667 95.113 C 82.667 95.325,82.633 95.324,82.417 95.107 C 82.279 94.970,82.167 94.817,82.167 94.767 C 82.167 94.718,82.279 94.720,82.417 94.773 C 82.554 94.826,82.667 94.979,82.667 95.113 M29.042 95.232 C 29.399 95.504,29.415 95.667,29.083 95.667 C 28.946 95.667,28.833 95.592,28.833 95.500 C 28.833 95.408,28.721 95.333,28.583 95.333 C 28.446 95.333,28.333 95.258,28.333 95.167 C 28.333 94.935,28.694 94.968,29.042 95.232 M81.833 98.437 C 81.833 98.630,81.774 98.660,81.625 98.543 C 81.510 98.452,81.304 98.336,81.167 98.286 C 81.024 98.233,81.114 98.187,81.375 98.180 C 81.692 98.171,81.833 98.250,81.833 98.437 M40.271 98.607 C 40.634 98.761,40.819 98.915,40.694 98.959 C 40.571 99.002,40.387 98.954,40.285 98.852 C 40.183 98.750,39.969 98.667,39.810 98.667 C 39.650 98.667,39.473 98.592,39.417 98.500 C 39.269 98.261,39.533 98.294,40.271 98.607 M73.167 99.257 C 73.579 99.396,74.067 99.579,74.250 99.664 C 74.433 99.750,74.894 99.898,75.275 99.995 C 75.655 100.091,76.012 100.290,76.068 100.437 C 76.146 100.641,76.102 100.675,75.877 100.583 C 75.715 100.516,75.283 100.393,74.917 100.309 C 73.207 99.920,71.833 99.437,71.833 99.226 C 71.833 98.934,72.234 98.943,73.167 99.257 M33.721 102.516 C 34.150 102.799,34.500 103.063,34.500 103.102 C 34.500 103.326,33.512 102.876,33.124 102.475 C 32.525 101.857,32.750 101.872,33.721 102.516 M36.167 103.328 C 36.167 103.514,36.076 103.628,35.958 103.592 C 35.844 103.557,35.525 103.475,35.250 103.411 C 34.801 103.307,34.784 103.281,35.083 103.159 C 35.710 102.904,36.167 102.975,36.167 103.328 M38.145 103.458 C 37.803 103.895,37.624 103.995,37.175 103.997 C 36.531 104.001,37.420 103.362,38.312 103.179 C 38.346 103.172,38.271 103.298,38.145 103.458 M40.287 103.543 C 40.038 103.626,39.833 103.763,39.833 103.847 C 39.833 104.149,39.570 103.993,39.547 103.677 C 39.521 103.330,39.873 103.182,40.412 103.312 C 40.700 103.382,40.684 103.411,40.287 103.543 M35.333 108.596 C 35.333 108.877,35.262 108.962,35.083 108.894 C 34.946 108.841,34.833 108.621,34.833 108.404 C 34.833 108.123,34.905 108.038,35.083 108.106 C 35.221 108.159,35.333 108.379,35.333 108.596 M68.676 109.113 C 68.991 109.270,69.143 109.425,69.023 109.465 C 68.755 109.554,67.356 109.172,67.236 108.977 C 67.081 108.726,68.093 108.822,68.676 109.113 M330.464 109.498 C 329.764 109.709,326.707 112.776,326.225 113.750 C 325.662 114.887,325.379 116.787,325.168 120.830 C 324.989 124.252,324.794 126.653,324.502 129.000 C 324.416 129.688,324.264 131.000,324.163 131.917 C 323.536 137.609,321.345 143.976,319.292 146.070 C 318.418 146.963,317.760 147.165,316.883 146.813 C 316.626 146.710,316.267 146.564,316.083 146.490 C 315.900 146.415,315.587 146.309,315.389 146.254 C 314.284 145.946,312.322 143.161,311.747 141.083 C 311.620 140.625,311.362 139.775,311.175 139.193 C 310.853 138.197,310.833 137.736,310.833 131.083 L 310.833 124.030 310.174 123.196 C 309.323 122.119,309.268 122.091,308.084 122.126 C 304.425 122.235,300.139 128.789,302.243 131.060 C 302.610 131.457,302.669 131.725,302.826 133.709 C 302.922 134.923,303.070 136.779,303.156 137.833 C 303.242 138.887,303.397 140.800,303.500 142.083 C 303.978 148.030,306.262 152.111,310.260 154.158 L 311.743 154.917 311.997 156.083 C 312.437 158.112,312.759 158.184,313.436 156.406 L 313.917 155.146 314.000 157.865 C 314.080 160.491,314.096 160.585,314.442 160.634 C 314.934 160.705,315.246 159.648,315.688 156.417 C 315.925 154.681,316.073 154.487,317.833 153.599 C 319.541 152.738,321.434 151.292,323.369 149.372 C 324.352 148.398,325.183 147.634,325.217 147.675 C 325.317 147.797,325.650 149.997,325.746 151.167 C 325.794 151.762,325.940 152.925,326.068 153.750 C 326.474 156.349,326.578 158.317,326.313 158.396 C 325.561 158.618,322.789 159.023,321.000 159.171 C 317.993 159.419,315.638 160.816,314.686 162.917 C 314.561 163.192,314.356 163.616,314.230 163.859 C 313.766 164.751,313.925 165.759,314.612 166.283 L 315.224 166.750 321.835 166.797 L 328.446 166.844 328.642 168.880 C 328.749 170.000,328.836 171.393,328.835 171.974 C 328.833 173.099,329.248 174.833,329.520 174.833 C 330.320 174.833,330.489 174.059,330.495 170.361 C 330.499 167.598,330.546 166.821,330.708 166.875 C 330.952 166.956,331.144 167.905,331.157 169.100 C 331.162 169.568,331.237 170.168,331.322 170.433 C 331.408 170.699,331.527 171.723,331.588 172.708 C 331.668 174.008,331.758 174.500,331.915 174.500 C 332.394 174.500,332.646 173.318,332.837 170.167 C 332.929 168.654,333.047 167.280,333.100 167.114 C 333.313 166.444,345.958 166.823,346.500 167.516 C 346.666 167.728,348.329 168.500,348.619 168.500 C 349.750 168.499,353.514 165.641,353.946 164.454 C 354.624 162.589,354.172 161.052,352.667 160.104 C 351.272 159.225,344.244 158.501,337.083 158.497 C 334.702 158.496,334.113 158.379,334.244 157.934 C 334.601 156.727,334.654 155.497,334.427 153.750 C 334.295 152.742,334.103 151.204,333.999 150.333 C 333.896 149.462,333.745 148.262,333.665 147.667 C 333.118 143.607,333.058 135.367,333.429 115.619 C 333.549 109.249,333.261 108.655,330.464 109.498 M46.277 110.000 C 46.883 110.275,47.500 110.506,47.648 110.513 C 47.849 110.523,47.859 110.549,47.689 110.617 C 47.485 110.698,46.847 110.553,44.783 109.957 C 43.938 109.713,43.842 109.500,44.577 109.500 C 44.905 109.500,45.670 109.725,46.277 110.000 M41.276 110.498 C 41.561 110.500,41.616 110.574,41.542 110.858 C 41.457 111.181,41.429 111.189,41.247 110.941 C 41.137 110.790,40.891 110.667,40.700 110.667 C 40.509 110.667,40.299 110.580,40.234 110.474 C 40.150 110.338,40.234 110.313,40.516 110.388 C 40.736 110.447,41.078 110.496,41.276 110.498 M51.000 111.398 C 51.817 111.682,51.406 111.658,49.917 111.333 C 49.458 111.233,48.876 111.109,48.623 111.057 C 48.370 111.004,48.131 110.910,48.092 110.847 C 47.992 110.686,50.101 111.085,51.000 111.398 M54.117 112.186 C 54.351 112.201,54.360 112.221,54.157 112.275 C 53.899 112.345,52.029 111.918,51.864 111.753 C 51.816 111.705,52.093 111.667,52.477 111.667 C 52.966 111.667,53.208 111.586,53.280 111.399 C 53.358 111.195,53.434 111.254,53.600 111.649 C 53.721 111.938,53.950 112.175,54.117 112.186 M56.917 112.585 C 58.952 112.747,62.000 113.508,62.000 113.854 C 62.000 113.934,62.112 114.000,62.250 114.000 C 62.387 114.000,62.500 114.083,62.500 114.184 C 62.500 114.295,62.383 114.321,62.208 114.249 C 62.048 114.182,61.692 114.071,61.417 114.000 C 60.897 113.867,60.484 113.730,59.917 113.503 C 59.101 113.177,58.105 112.987,57.690 113.078 C 57.442 113.133,56.913 113.062,56.515 112.922 C 56.117 112.782,55.538 112.667,55.229 112.667 C 54.920 112.667,54.667 112.582,54.667 112.478 C 54.667 112.348,54.909 112.327,55.458 112.411 C 55.894 112.478,56.550 112.556,56.917 112.585 M294.174 116.762 C 292.066 117.894,289.667 120.143,289.667 120.987 C 289.667 121.070,289.610 121.164,289.542 121.194 C 289.185 121.353,288.667 122.692,288.667 123.455 C 288.667 124.394,288.888 124.675,289.875 124.992 C 290.296 125.127,290.523 125.311,290.571 125.555 C 290.672 126.072,290.967 129.348,291.162 132.125 C 291.778 140.860,291.965 143.135,292.194 144.629 C 292.297 145.296,292.341 145.881,292.294 145.929 C 292.225 145.997,285.519 137.845,283.667 135.441 C 283.438 135.144,282.607 134.117,281.821 133.159 C 280.301 131.306,278.667 128.974,278.667 128.658 C 278.667 128.325,277.329 125.714,277.011 125.426 C 275.961 124.476,273.502 125.277,271.350 127.269 L 270.167 128.365 270.167 129.423 C 270.167 130.307,270.109 130.521,269.819 130.725 L 269.471 130.968 269.818 132.776 C 270.597 136.837,270.910 139.299,271.511 146.083 C 271.600 147.092,271.709 148.031,271.752 148.171 C 271.796 148.310,271.873 151.460,271.923 155.171 C 272.041 163.870,272.121 165.410,272.477 165.719 C 273.087 166.250,275.580 166.113,275.995 165.527 C 276.043 165.458,276.533 165.056,277.083 164.635 C 280.485 162.030,280.431 162.209,280.283 153.917 C 280.229 150.892,280.237 148.060,280.301 147.624 L 280.417 146.831 281.780 148.634 C 282.530 149.625,283.454 150.756,283.833 151.146 C 284.501 151.835,285.001 152.589,286.054 154.500 C 286.332 155.004,286.869 155.904,287.247 156.500 C 288.444 158.387,288.414 158.180,288.151 162.889 C 287.855 168.192,287.852 171.038,288.143 171.388 C 288.529 171.853,289.138 171.413,289.235 170.601 C 289.279 170.225,289.398 169.204,289.499 168.333 C 289.600 167.462,289.752 166.188,289.836 165.500 C 289.920 164.813,290.035 163.814,290.091 163.282 C 290.173 162.509,290.237 162.351,290.412 162.496 C 290.913 162.912,291.051 163.633,290.866 164.880 C 290.768 165.542,290.604 166.833,290.500 167.750 C 290.397 168.667,290.237 169.829,290.146 170.333 C 289.912 171.623,289.758 178.500,289.963 178.500 C 290.283 178.500,290.810 176.888,290.997 175.333 C 291.210 173.570,291.444 171.673,291.667 169.917 C 291.748 169.275,291.867 168.319,291.931 167.792 C 292.124 166.195,292.546 166.522,293.595 169.083 C 293.745 169.450,294.001 170.050,294.164 170.417 C 294.327 170.783,294.701 171.646,294.995 172.333 C 296.864 176.706,298.403 177.197,301.766 174.494 C 304.232 172.512,304.588 171.725,304.213 169.083 C 304.096 168.258,303.928 167.021,303.840 166.333 C 303.690 165.159,303.561 164.188,303.155 161.167 C 303.062 160.479,302.910 159.317,302.816 158.583 C 302.722 157.850,302.580 156.762,302.500 156.167 C 302.420 155.571,302.270 154.446,302.167 153.667 C 302.063 152.887,301.913 151.762,301.833 151.167 C 301.753 150.571,301.608 149.465,301.511 148.708 C 301.413 147.952,301.253 146.715,301.155 145.958 C 300.897 143.976,300.691 142.285,300.508 140.667 C 300.420 139.887,300.266 138.575,300.165 137.750 C 299.945 135.936,299.654 132.679,299.569 131.083 C 298.796 116.503,298.696 115.997,296.614 116.003 C 295.712 116.005,295.407 116.100,294.174 116.762 M369.734 119.883 C 367.276 121.207,365.333 123.909,365.333 126.005 C 365.333 127.163,365.416 127.126,362.500 127.273 C 361.354 127.331,360.342 127.430,360.250 127.492 C 360.158 127.554,359.521 127.786,358.833 128.007 C 358.146 128.228,357.029 128.692,356.352 129.038 C 355.675 129.384,355.057 129.667,354.980 129.667 C 354.494 129.667,352.626 131.208,350.565 133.311 C 346.868 137.081,345.494 140.017,345.506 144.127 C 345.515 147.414,346.303 149.917,347.959 151.917 C 348.035 152.008,348.332 152.421,348.619 152.833 C 349.196 153.661,356.426 160.871,357.750 161.938 C 360.512 164.165,365.311 166.867,367.792 167.592 L 368.833 167.896 368.833 177.198 C 368.833 184.552,368.877 186.500,369.043 186.500 C 369.785 186.500,370.427 182.306,370.664 175.917 C 370.941 168.413,371.054 167.512,371.519 169.088 C 371.785 169.988,372.116 170.018,372.535 169.179 C 372.941 168.365,373.097 168.250,374.583 167.665 C 375.317 167.376,376.179 166.977,376.500 166.778 C 376.821 166.580,377.284 166.305,377.530 166.167 C 379.189 165.237,381.714 162.575,382.826 160.583 C 383.133 160.033,383.523 159.337,383.692 159.037 C 383.862 158.736,384.000 158.357,384.000 158.195 C 384.000 158.033,384.066 157.829,384.146 157.742 C 384.837 156.993,385.000 155.735,385.000 151.155 C 385.000 146.168,385.001 146.171,383.963 146.797 C 383.662 146.978,383.148 147.212,382.820 147.317 C 382.198 147.515,379.345 150.270,379.092 150.917 C 378.843 151.554,378.643 152.427,378.331 154.250 C 377.723 157.794,377.507 158.641,377.004 159.458 L 376.672 160.000 374.865 160.000 C 373.218 160.000,372.972 159.958,372.071 159.522 C 371.528 159.260,370.746 158.884,370.333 158.688 C 368.860 157.988,366.342 156.403,365.402 155.583 C 364.876 155.125,364.252 154.631,364.015 154.486 C 362.454 153.531,358.828 149.905,355.402 145.875 C 355.227 145.669,354.690 144.844,354.208 144.043 L 353.333 142.586 353.333 140.100 C 353.333 136.995,353.401 136.874,355.805 135.702 L 357.417 134.917 359.875 134.863 C 361.940 134.818,362.585 134.867,363.905 135.173 L 365.477 135.536 365.583 136.226 C 365.714 137.074,366.321 139.025,366.522 139.243 C 366.763 139.504,367.201 138.925,367.682 137.709 C 368.459 135.747,368.667 136.034,368.667 139.071 L 368.667 141.667 369.167 141.667 L 369.667 141.667 369.667 139.250 C 369.667 136.688,369.707 136.574,370.461 136.995 C 370.620 137.084,371.087 137.264,371.500 137.396 C 374.654 138.406,377.854 140.225,381.167 142.890 C 381.961 143.528,382.297 143.667,383.054 143.667 C 383.501 143.667,384.121 143.546,384.433 143.398 L 385.000 143.129 385.000 138.007 L 385.000 132.886 383.557 131.692 C 379.827 128.607,374.780 123.342,374.001 121.725 C 372.916 119.473,371.572 118.893,369.734 119.883 " stroke="none" fill="#ffffff" fill-rule="evenodd"></path><path id="path4" d="" stroke="none" fill="#ff0000" fill-rule="evenodd"></path></g></svg>
