<svg id="logo-black" version="1.1" xmlns="http://www.w3.org/2000/svg" xmlns:xlink="http://www.w3.org/1999/xlink" viewBox=" 0 0 400 185"><g id="svgg"><path id="path0" d="M105.333 7.089 C 105.333 7.229,105.465 7.393,105.625 7.454 C 105.785 7.515,106.009 7.656,106.122 7.767 C 106.234 7.878,106.647 8.019,107.038 8.080 C 109.262 8.426,109.833 8.549,109.833 8.684 C 109.833 8.766,109.946 8.833,110.083 8.833 C 110.221 8.833,110.333 8.758,110.333 8.667 C 110.333 8.575,110.423 8.500,110.533 8.500 C 110.689 8.500,110.689 8.544,110.533 8.700 C 110.179 9.055,110.452 9.290,111.362 9.415 C 112.505 9.572,113.132 9.712,113.573 9.909 C 113.854 10.035,114.496 10.275,115.000 10.443 C 115.892 10.740,115.901 10.750,115.357 10.803 C 115.049 10.833,114.411 10.710,113.940 10.531 C 113.469 10.351,112.558 10.077,111.917 9.923 C 111.275 9.768,110.450 9.563,110.083 9.468 C 109.717 9.373,108.929 9.260,108.333 9.217 C 107.730 9.173,107.131 9.031,106.981 8.897 C 106.833 8.765,106.308 8.611,105.815 8.555 C 104.879 8.449,103.667 7.945,103.667 7.663 C 103.667 7.573,103.445 7.500,103.175 7.500 C 102.904 7.500,102.486 7.410,102.245 7.301 C 101.907 7.147,101.737 7.147,101.490 7.301 C 101.315 7.410,101.020 7.500,100.836 7.500 C 100.651 7.500,100.500 7.590,100.500 7.700 C 100.500 7.856,100.456 7.856,100.300 7.700 C 100.025 7.425,99.333 7.446,99.333 7.730 C 99.333 7.856,99.448 8.054,99.587 8.170 C 100.032 8.539,99.704 8.553,99.236 8.186 C 98.713 7.774,98.382 7.754,97.250 8.069 C 94.379 8.867,92.350 9.611,90.609 10.504 C 90.257 10.685,89.910 10.833,89.839 10.833 C 89.722 10.833,87.778 11.932,86.447 12.750 C 85.521 13.320,83.597 14.723,83.314 15.036 C 83.166 15.199,82.998 15.333,82.941 15.333 C 82.755 15.333,82.167 15.903,82.167 16.082 C 82.167 16.178,82.935 16.430,83.875 16.641 C 86.339 17.196,86.210 17.147,85.929 17.428 C 85.626 17.731,85.355 17.729,84.602 17.414 C 84.269 17.275,83.820 17.206,83.603 17.260 C 83.386 17.314,82.811 17.241,82.324 17.096 C 81.838 16.952,81.376 16.833,81.299 16.833 C 81.056 16.833,79.667 18.199,79.667 18.438 C 79.667 18.564,79.561 18.667,79.431 18.667 C 79.302 18.667,78.998 18.910,78.757 19.208 C 78.515 19.506,78.077 20.014,77.784 20.336 C 77.490 20.658,77.086 21.145,76.885 21.419 C 76.685 21.693,76.105 22.479,75.597 23.167 C 75.089 23.854,74.672 24.510,74.670 24.625 C 74.668 24.740,74.603 24.833,74.525 24.833 C 74.448 24.833,74.244 25.144,74.072 25.524 C 73.901 25.905,73.680 26.298,73.581 26.399 C 73.252 26.737,72.164 29.027,72.259 29.181 C 72.311 29.265,72.287 29.333,72.207 29.333 C 72.049 29.333,71.500 30.394,71.500 30.701 C 71.500 30.805,71.403 31.009,71.285 31.154 C 71.166 31.298,70.933 31.867,70.765 32.417 C 70.598 32.967,70.403 33.567,70.331 33.750 C 69.935 34.761,69.597 36.084,68.988 39.000 C 68.455 41.556,68.342 47.660,68.770 50.833 C 68.912 51.887,69.066 53.101,69.113 53.531 C 69.186 54.210,69.261 54.333,69.682 54.480 C 70.221 54.668,70.361 54.917,69.833 54.750 C 69.576 54.668,69.500 54.720,69.500 54.975 C 69.500 55.514,69.683 55.833,69.992 55.833 C 70.151 55.833,70.422 55.988,70.593 56.177 C 70.784 56.389,71.029 56.488,71.230 56.435 C 71.410 56.388,71.888 56.438,72.294 56.547 C 72.948 56.722,73.056 56.710,73.250 56.445 C 73.383 56.263,73.510 56.214,73.574 56.319 C 73.713 56.543,75.126 57.167,75.496 57.167 C 76.006 57.167,76.793 57.663,76.890 58.045 C 76.981 58.407,76.977 58.408,76.738 58.089 C 76.544 57.829,76.304 57.764,75.580 57.774 C 74.914 57.784,74.667 57.726,74.667 57.560 C 74.667 57.435,74.545 57.333,74.397 57.333 C 74.210 57.333,74.154 57.435,74.215 57.667 C 74.324 58.084,74.332 58.084,72.821 57.591 C 70.926 56.972,70.166 56.880,70.167 57.270 C 70.169 57.865,71.698 61.770,72.508 63.250 C 72.851 63.876,74.578 66.858,75.114 67.750 C 75.334 68.117,75.558 68.548,75.610 68.708 C 75.663 68.869,75.772 69.000,75.853 69.000 C 75.934 69.000,76.000 69.114,76.000 69.252 C 76.000 69.391,76.078 69.635,76.174 69.794 C 76.270 69.953,76.597 70.833,76.901 71.750 L 77.454 73.417 78.102 73.527 C 78.458 73.588,79.050 73.722,79.417 73.823 C 79.783 73.925,80.421 74.076,80.833 74.157 C 81.246 74.239,82.146 74.457,82.833 74.643 C 83.521 74.828,84.271 75.027,84.500 75.084 C 84.729 75.141,85.230 75.266,85.613 75.362 C 86.062 75.475,86.280 75.612,86.228 75.748 C 86.166 75.908,85.995 75.921,85.531 75.799 C 85.193 75.711,84.317 75.513,83.583 75.360 C 82.850 75.207,82.175 75.037,82.083 74.983 C 81.992 74.928,81.429 74.792,80.833 74.680 C 79.796 74.486,78.607 74.226,77.935 74.047 C 77.593 73.955,77.593 73.897,77.936 77.394 C 78.191 79.990,77.312 84.160,75.876 87.167 C 75.279 88.418,73.730 90.868,73.471 90.972 C 73.395 91.003,73.333 91.101,73.333 91.190 C 73.333 91.364,72.365 92.456,71.208 93.585 C 70.222 94.548,70.389 94.829,71.734 94.469 C 72.441 94.280,73.474 94.527,74.706 95.180 C 74.865 95.264,75.175 95.333,75.394 95.333 C 75.613 95.333,76.077 95.452,76.425 95.597 C 76.772 95.743,77.245 95.825,77.475 95.781 C 77.705 95.737,78.011 95.760,78.155 95.831 C 78.408 95.956,79.065 96.132,81.000 96.591 C 82.684 96.991,83.913 97.344,84.302 97.540 C 84.597 97.689,84.762 97.687,85.008 97.534 C 85.476 97.242,85.758 97.273,85.497 97.587 C 85.209 97.934,85.392 98.066,86.172 98.075 C 86.539 98.080,86.805 98.157,86.770 98.250 C 86.704 98.430,86.698 98.430,85.850 98.250 C 85.356 98.145,85.298 98.166,85.394 98.418 C 85.488 98.663,85.435 98.689,85.044 98.594 C 84.791 98.533,84.283 98.420,83.917 98.345 C 83.129 98.183,81.566 97.700,81.058 97.462 C 80.860 97.370,80.616 97.345,80.516 97.407 C 80.415 97.469,80.333 97.452,80.333 97.368 C 80.333 97.146,79.197 96.700,78.333 96.582 C 77.921 96.526,77.396 96.415,77.167 96.337 C 76.938 96.258,76.300 96.067,75.750 95.913 C 75.200 95.759,74.600 95.571,74.417 95.494 C 74.233 95.418,73.783 95.257,73.417 95.137 C 73.050 95.017,72.690 94.824,72.617 94.709 C 72.466 94.473,71.833 94.422,71.833 94.646 C 71.833 94.727,72.002 94.918,72.208 95.071 L 72.583 95.350 72.167 95.244 C 70.208 94.748,69.576 94.833,68.618 95.725 C 68.504 95.830,68.118 96.067,67.760 96.250 C 67.401 96.433,67.027 96.659,66.929 96.751 C 66.768 96.901,65.610 97.437,64.500 97.875 C 64.271 97.965,63.953 98.105,63.794 98.186 C 63.635 98.267,63.372 98.334,63.211 98.336 C 63.049 98.337,62.579 98.458,62.167 98.604 C 60.135 99.324,55.075 99.355,52.583 98.663 C 52.217 98.561,51.654 98.418,51.333 98.345 C 50.126 98.071,48.210 97.233,46.713 96.323 C 46.119 95.962,45.582 95.667,45.520 95.667 C 45.458 95.667,45.299 95.517,45.167 95.333 C 45.035 95.150,44.831 95.000,44.715 95.000 C 44.508 95.000,41.075 91.647,40.417 90.802 C 39.654 89.823,38.167 87.161,38.167 86.775 C 38.167 86.624,38.104 86.500,38.027 86.500 C 37.950 86.500,37.791 86.181,37.674 85.792 C 37.558 85.402,37.396 84.933,37.315 84.750 C 36.314 82.477,36.118 76.617,36.932 73.267 C 37.153 72.359,37.333 71.591,37.333 71.559 C 37.333 71.526,33.219 71.500,28.189 71.500 L 19.046 71.500 18.859 72.458 C 18.612 73.727,18.532 77.478,18.750 77.570 C 18.842 77.609,18.821 77.646,18.704 77.654 C 17.952 77.700,18.926 85.511,20.213 89.750 C 20.408 90.392,20.577 90.954,20.590 91.000 C 20.633 91.161,20.871 91.755,21.101 92.275 C 21.229 92.564,21.333 92.853,21.333 92.917 C 21.333 92.981,21.454 93.307,21.601 93.641 C 22.228 95.070,22.547 95.771,22.713 96.083 C 23.534 97.635,23.920 98.269,24.110 98.383 C 24.233 98.457,24.333 98.600,24.333 98.702 C 24.333 99.440,26.442 102.051,26.938 101.926 C 27.160 101.870,27.333 101.901,27.333 101.997 C 27.333 102.090,27.258 102.167,27.167 102.167 C 26.763 102.167,27.070 102.834,27.934 103.835 C 29.179 105.276,32.096 108.167,32.305 108.167 C 32.397 108.167,32.497 108.231,32.528 108.310 C 32.594 108.481,35.528 110.673,36.843 111.535 C 38.219 112.436,39.337 113.000,39.749 113.000 C 39.950 113.000,40.245 113.144,40.404 113.319 C 40.563 113.495,41.118 113.807,41.638 114.013 C 42.158 114.219,42.658 114.441,42.750 114.506 C 42.979 114.669,44.755 115.272,45.667 115.496 C 46.079 115.598,46.567 115.750,46.750 115.834 C 47.434 116.150,49.954 116.606,53.167 116.997 C 54.784 117.193,59.726 117.193,61.333 116.996 C 65.620 116.470,68.485 115.781,71.123 114.639 C 71.512 114.471,71.905 114.333,71.997 114.333 C 72.089 114.333,72.258 114.183,72.372 114.000 C 72.487 113.817,72.757 113.667,72.973 113.667 C 73.189 113.667,74.052 113.323,74.891 112.902 C 78.279 111.204,78.480 110.943,76.790 110.441 C 75.063 109.927,74.230 109.593,74.531 109.534 C 74.686 109.504,75.157 109.597,75.579 109.740 C 76.000 109.883,76.677 110.000,77.083 110.000 C 77.651 110.000,77.863 110.077,78.000 110.333 C 78.246 110.794,79.289 110.442,80.000 109.659 C 80.046 109.609,80.346 109.385,80.667 109.162 C 81.294 108.725,81.999 108.142,82.624 107.542 C 82.839 107.335,83.070 107.167,83.137 107.167 C 83.393 107.167,83.859 106.449,83.786 106.169 C 83.732 105.962,83.789 105.895,83.979 105.942 C 84.213 106.000,85.500 105.003,85.500 104.765 C 85.500 104.718,85.791 104.384,86.146 104.021 C 86.501 103.659,87.045 102.999,87.354 102.556 C 87.664 102.113,87.958 101.712,88.009 101.667 C 88.320 101.387,89.333 99.917,89.333 99.746 C 89.333 99.626,88.813 99.416,88.097 99.248 C 87.136 99.021,86.882 98.901,86.956 98.707 C 87.068 98.416,88.906 98.506,89.219 98.819 C 89.471 99.071,90.000 99.046,90.000 98.781 C 90.000 98.661,90.150 98.402,90.333 98.205 C 90.517 98.008,90.667 97.773,90.667 97.682 C 90.667 97.591,90.878 97.194,91.136 96.800 C 91.625 96.054,92.809 93.406,93.171 92.250 C 93.400 91.518,93.530 91.153,93.813 90.450 C 93.916 90.194,94.000 89.805,94.000 89.585 C 94.000 89.366,94.066 89.145,94.147 89.095 C 94.229 89.045,94.336 88.797,94.387 88.544 C 94.438 88.291,94.562 87.746,94.663 87.333 C 94.764 86.921,94.882 86.321,94.924 86.000 C 94.967 85.679,95.076 85.079,95.167 84.667 C 95.681 82.331,95.812 77.935,95.375 77.680 C 95.097 77.518,95.097 77.510,95.375 77.505 C 95.766 77.498,95.714 75.114,95.258 72.167 C 95.223 71.938,95.140 71.319,95.074 70.792 C 95.008 70.265,94.905 69.833,94.845 69.833 C 94.786 69.833,94.720 69.599,94.698 69.314 C 94.676 69.028,94.517 68.334,94.343 67.772 C 94.170 67.210,93.981 66.536,93.923 66.274 C 93.865 66.012,93.685 65.763,93.523 65.721 C 93.300 65.663,93.246 65.521,93.301 65.145 C 93.381 64.600,93.160 63.980,92.131 61.854 C 91.745 61.056,91.330 60.424,91.164 60.381 C 90.978 60.332,90.901 60.194,90.951 60.003 C 91.073 59.538,90.692 58.955,90.329 59.049 C 90.077 59.115,90.052 59.079,90.191 58.856 C 90.323 58.645,90.222 58.330,89.755 57.499 C 89.421 56.904,89.105 56.285,89.054 56.125 C 88.988 55.919,88.786 55.833,88.364 55.833 C 87.899 55.833,87.811 55.789,87.967 55.633 C 88.237 55.363,88.211 54.489,87.921 54.106 C 87.792 53.936,87.560 53.373,87.406 52.856 C 87.252 52.340,86.996 51.504,86.837 51.000 C 86.678 50.496,86.454 49.688,86.340 49.204 C 86.078 48.086,86.069 42.824,86.329 41.820 C 86.894 39.633,87.748 37.097,88.033 36.758 C 88.107 36.671,88.167 36.495,88.167 36.367 C 88.167 36.239,88.335 35.900,88.542 35.613 C 88.988 34.991,89.134 34.755,89.612 33.888 C 89.964 33.248,90.526 32.521,91.292 31.714 C 91.498 31.496,91.667 31.282,91.667 31.237 C 91.667 31.193,91.973 30.877,92.348 30.536 C 92.723 30.196,93.375 29.598,93.797 29.208 C 94.219 28.819,94.656 28.500,94.768 28.500 C 94.880 28.500,94.997 28.444,95.028 28.375 C 95.104 28.204,96.785 27.145,97.501 26.816 C 97.821 26.670,98.409 26.388,98.807 26.191 C 99.206 25.994,99.670 25.833,99.839 25.833 C 100.009 25.833,100.193 25.758,100.250 25.667 C 100.307 25.575,100.532 25.500,100.750 25.500 C 100.968 25.500,101.193 25.425,101.250 25.333 C 101.307 25.242,101.570 25.167,101.835 25.167 C 102.101 25.167,102.490 25.096,102.700 25.010 C 102.911 24.924,103.440 24.807,103.875 24.750 C 104.595 24.656,104.667 24.606,104.673 24.198 L 104.678 23.750 104.899 24.148 C 105.112 24.532,105.193 24.547,107.351 24.589 C 108.579 24.612,109.996 24.714,110.500 24.815 C 112.749 25.264,113.075 25.346,113.549 25.583 C 113.825 25.721,114.145 25.833,114.260 25.833 C 114.375 25.833,114.757 25.975,115.109 26.148 C 115.462 26.322,116.122 26.640,116.577 26.857 C 117.032 27.073,117.482 27.308,117.577 27.378 C 117.672 27.448,118.350 27.946,119.083 28.483 C 120.226 29.321,121.848 30.808,122.417 31.539 C 122.508 31.657,122.808 32.022,123.083 32.350 C 123.358 32.679,123.677 33.090,123.792 33.265 C 125.462 35.812,126.832 38.864,127.187 40.833 C 127.262 41.246,127.401 41.996,127.496 42.500 C 127.857 44.405,127.888 46.504,127.580 48.167 C 127.419 49.038,127.253 50.058,127.212 50.434 L 127.137 51.119 128.610 51.225 C 130.915 51.392,135.241 52.155,135.873 52.506 C 136.032 52.594,136.281 52.667,136.427 52.667 C 137.107 52.667,141.050 54.239,142.964 55.274 C 143.932 55.797,144.159 55.711,144.164 54.817 C 144.166 54.578,144.239 54.166,144.326 53.900 C 145.401 50.653,145.435 42.494,144.396 37.333 C 143.533 33.044,141.343 27.789,138.770 23.833 C 138.323 23.146,137.737 22.321,137.469 22.000 C 137.201 21.679,136.828 21.233,136.641 21.009 C 136.454 20.785,136.114 20.357,135.886 20.058 C 135.657 19.758,135.326 19.467,135.149 19.411 C 134.973 19.355,134.865 19.250,134.910 19.177 C 135.006 19.022,133.618 17.575,132.341 16.500 C 131.851 16.087,131.368 15.675,131.267 15.583 C 127.096 11.797,119.285 8.269,113.000 7.333 C 112.313 7.230,111.344 7.076,110.847 6.990 C 109.267 6.716,105.333 6.786,105.333 7.089 M32.750 8.684 C 29.844 9.195,29.804 9.205,27.333 10.017 C 25.116 10.745,20.273 13.306,19.500 14.158 C 19.454 14.209,19.042 14.548,18.583 14.911 C 11.672 20.397,7.801 28.721,7.769 38.167 C 7.725 51.318,16.505 63.639,28.083 66.673 C 28.358 66.745,28.996 66.913,29.500 67.046 C 33.513 68.106,38.688 68.261,42.250 67.427 C 45.088 66.763,46.331 66.401,47.464 65.907 C 56.814 61.832,63.107 54.184,65.080 44.500 C 68.040 29.969,60.453 15.580,47.083 10.371 C 45.012 9.564,43.703 9.221,40.597 8.674 C 39.427 8.468,33.940 8.475,32.750 8.684 M93.167 12.000 C 93.167 12.209,92.990 12.209,92.667 12.000 C 92.465 11.869,92.488 11.838,92.792 11.836 C 92.998 11.834,93.167 11.908,93.167 12.000 M86.333 14.500 C 86.333 14.592,86.052 14.666,85.708 14.664 C 85.243 14.662,85.147 14.620,85.333 14.500 C 85.662 14.288,86.333 14.288,86.333 14.500 M103.833 15.167 C 103.833 15.258,103.988 15.333,104.177 15.333 C 104.365 15.333,104.473 15.408,104.417 15.500 C 104.272 15.734,104.143 15.706,103.667 15.333 C 103.329 15.069,103.305 15.007,103.542 15.004 C 103.702 15.002,103.833 15.075,103.833 15.167 M107.798 15.552 C 108.191 15.670,108.468 15.810,108.414 15.864 C 108.318 15.960,106.857 15.580,106.694 15.416 C 106.547 15.269,107.065 15.333,107.798 15.552 M82.417 19.013 C 83.117 19.123,83.029 19.136,81.869 19.099 C 81.009 19.071,80.411 18.973,80.286 18.839 C 80.121 18.664,80.224 18.648,80.833 18.754 C 81.246 18.825,81.958 18.942,82.417 19.013 M132.750 18.833 C 133.185 18.944,133.142 18.963,132.417 18.978 C 131.958 18.987,131.471 18.922,131.333 18.833 C 131.028 18.636,131.976 18.636,132.750 18.833 M81.167 20.245 L 82.583 20.462 81.228 20.481 C 80.020 20.498,79.863 20.536,79.785 20.834 C 79.724 21.065,79.611 21.135,79.418 21.061 C 79.195 20.975,79.183 20.925,79.361 20.809 C 79.534 20.696,79.490 20.591,79.167 20.336 L 78.750 20.007 79.250 20.018 C 79.525 20.024,80.387 20.126,81.167 20.245 M44.083 20.965 C 48.183 22.103,50.486 24.515,51.097 28.308 C 51.679 31.928,50.561 34.928,47.973 36.685 L 46.942 37.385 47.738 37.769 C 54.575 41.069,53.751 52.186,46.417 55.595 C 44.025 56.706,43.856 56.721,32.542 56.789 L 22.333 56.850 22.333 38.667 L 22.333 20.483 32.542 20.539 C 42.489 20.593,42.784 20.604,44.083 20.965 M111.700 22.653 C 111.911 22.737,112.225 22.852,112.399 22.907 C 112.572 22.962,112.677 23.045,112.632 23.090 C 112.552 23.170,110.486 22.696,110.347 22.565 C 110.206 22.432,111.331 22.505,111.700 22.653 M88.575 23.061 C 89.070 23.519,89.086 23.604,88.750 23.940 C 88.612 24.078,88.500 24.119,88.500 24.031 C 88.500 23.944,88.331 23.826,88.125 23.769 C 87.820 23.686,87.795 23.638,87.993 23.510 C 88.202 23.376,88.192 23.304,87.926 23.010 C 87.464 22.500,88.016 22.543,88.575 23.061 M113.227 23.417 C 113.174 23.554,113.064 23.667,112.982 23.667 C 112.900 23.667,112.833 23.554,112.833 23.417 C 112.833 23.279,112.943 23.167,113.078 23.167 C 113.227 23.167,113.285 23.264,113.227 23.417 M79.045 23.833 C 79.359 24.201,79.751 24.267,79.927 23.983 C 79.991 23.880,80.247 23.841,80.515 23.895 C 80.856 23.963,81.040 23.909,81.171 23.703 C 81.313 23.479,81.330 23.556,81.250 24.051 C 80.986 25.691,79.868 25.765,78.212 24.251 C 77.912 23.977,77.667 23.696,77.667 23.626 C 77.667 23.345,78.769 23.511,79.045 23.833 M78.864 25.583 C 79.136 25.813,79.293 26.000,79.212 26.000 C 79.131 26.000,78.811 25.813,78.500 25.583 C 78.189 25.354,78.033 25.167,78.152 25.167 C 78.271 25.167,78.591 25.354,78.864 25.583 M96.417 26.000 L 96.750 26.143 96.417 26.152 C 96.233 26.157,95.971 26.089,95.833 26.000 C 95.502 25.786,95.918 25.786,96.417 26.000 M29.792 26.927 C 29.723 26.998,29.667 28.810,29.667 30.955 L 29.667 34.854 35.042 34.800 C 42.117 34.729,43.244 34.351,43.755 31.872 C 44.289 29.277,43.291 27.714,40.741 27.155 C 39.774 26.943,29.975 26.739,29.792 26.927 M87.126 27.875 C 87.086 27.996,86.698 28.104,86.197 28.134 C 85.476 28.176,85.353 28.142,85.436 27.925 C 85.564 27.594,87.235 27.544,87.126 27.875 M131.833 30.417 C 131.833 30.722,131.744 30.833,131.500 30.833 C 131.256 30.833,131.167 30.722,131.167 30.417 C 131.167 30.111,131.256 30.000,131.500 30.000 C 131.744 30.000,131.833 30.111,131.833 30.417 M124.333 31.664 C 124.654 31.753,125.009 31.975,125.122 32.157 C 125.312 32.461,125.298 32.474,124.956 32.324 C 124.751 32.235,124.452 32.116,124.292 32.061 C 124.131 32.006,124.000 31.900,124.000 31.826 C 124.000 31.752,123.869 31.657,123.708 31.615 C 123.548 31.573,123.492 31.530,123.583 31.520 C 123.675 31.510,124.013 31.575,124.333 31.664 M129.667 32.574 C 129.667 33.063,128.919 33.014,128.789 32.517 C 128.729 32.286,128.806 32.245,129.191 32.301 C 129.453 32.340,129.667 32.463,129.667 32.574 M131.405 32.750 C 131.844 32.841,132.333 33.252,132.333 33.531 C 132.333 33.627,132.141 33.579,131.906 33.425 C 131.623 33.240,131.317 33.180,131.001 33.250 C 130.628 33.332,130.484 33.282,130.345 33.022 C 130.087 32.541,130.118 32.484,130.583 32.580 C 130.813 32.628,131.182 32.704,131.405 32.750 M133.333 33.833 C 133.535 33.964,133.512 33.995,133.208 33.997 C 133.002 33.999,132.833 33.925,132.833 33.833 C 132.833 33.625,133.010 33.625,133.333 33.833 M104.575 38.307 C 104.488 38.385,103.985 38.618,103.458 38.827 C 102.931 39.035,102.500 39.272,102.500 39.353 C 102.500 39.434,102.431 39.500,102.347 39.500 C 101.273 39.500,99.535 42.753,99.383 45.047 C 98.893 52.443,107.762 55.850,112.711 50.167 C 114.271 48.376,114.707 44.712,113.644 42.335 C 113.357 41.692,113.029 41.167,112.915 41.167 C 112.800 41.167,112.618 40.950,112.508 40.686 C 112.399 40.422,111.958 39.956,111.530 39.651 C 111.101 39.346,110.725 39.037,110.694 38.965 C 110.664 38.893,110.547 38.833,110.434 38.833 C 110.321 38.833,109.919 38.683,109.539 38.500 C 108.807 38.146,104.926 37.995,104.575 38.307 M29.667 45.760 L 29.667 50.520 35.208 50.461 C 41.676 50.391,42.055 50.324,43.359 49.022 C 45.242 47.140,45.095 43.362,43.083 41.970 C 41.834 41.105,40.965 41.000,35.048 41.000 L 29.667 41.000 29.667 45.760 M77.282 46.077 L 77.750 46.487 77.130 46.202 C 76.790 46.045,76.508 45.860,76.505 45.792 C 76.495 45.551,76.819 45.670,77.282 46.077 M76.807 53.094 C 78.061 53.615,77.559 53.604,75.819 53.071 C 73.966 52.504,73.937 52.488,74.974 52.603 C 75.463 52.658,76.288 52.879,76.807 53.094 M125.000 54.172 C 117.440 54.722,109.876 58.646,105.250 64.418 C 104.883 64.876,104.536 65.287,104.478 65.333 C 104.420 65.379,103.840 66.236,103.188 67.238 C 91.535 85.162,101.657 109.327,122.417 113.142 C 130.281 114.587,139.572 112.138,145.532 107.049 C 147.612 105.273,149.281 103.442,151.047 101.000 C 152.100 99.545,153.132 97.647,154.174 95.250 C 154.723 93.989,155.528 91.162,155.812 89.500 C 156.261 86.875,156.333 86.081,156.333 83.750 C 156.333 81.427,156.267 80.689,155.816 78.000 C 155.057 73.473,152.215 67.407,149.488 64.495 C 149.357 64.356,148.877 63.831,148.421 63.329 C 146.546 61.264,142.241 57.833,141.526 57.833 C 141.435 57.833,141.336 57.773,141.306 57.700 C 141.244 57.552,138.744 56.334,137.833 56.008 C 137.512 55.894,137.100 55.736,136.917 55.658 C 136.542 55.498,134.640 54.963,133.500 54.697 C 131.295 54.182,127.820 53.967,125.000 54.172 M244.583 54.099 C 235.788 54.976,226.973 60.745,222.769 68.375 C 222.530 68.810,222.157 69.487,221.941 69.879 C 218.221 76.632,217.664 87.384,220.661 94.583 C 220.737 94.767,220.926 95.217,221.080 95.583 C 227.098 109.875,243.059 116.948,257.520 111.732 C 259.321 111.082,262.832 109.239,263.917 108.374 C 264.008 108.301,264.346 108.058,264.667 107.834 C 265.329 107.372,265.241 107.446,266.871 106.000 C 267.542 105.404,268.540 104.402,269.088 103.773 C 269.635 103.143,270.165 102.542,270.265 102.436 C 275.139 97.276,277.792 86.154,276.135 77.833 C 273.842 66.317,265.393 57.351,254.387 54.753 C 253.762 54.606,252.912 54.405,252.500 54.308 C 251.747 54.131,245.832 53.975,244.583 54.099 M84.000 54.333 C 84.186 54.454,84.093 54.496,83.635 54.497 C 83.296 54.499,82.973 54.425,82.917 54.333 C 82.784 54.118,83.667 54.118,84.000 54.333 M183.667 54.355 C 181.501 54.706,179.634 55.157,178.250 55.663 C 177.700 55.864,177.102 56.073,176.921 56.127 C 171.140 57.849,162.416 66.571,160.795 72.250 C 160.743 72.433,160.515 73.080,160.290 73.686 C 159.950 74.600,159.527 76.123,159.069 78.083 C 158.366 81.099,158.400 85.986,159.154 90.000 C 159.484 91.762,160.023 93.578,160.762 95.417 C 161.337 96.847,162.872 99.787,163.373 100.417 C 163.446 100.508,163.972 101.221,164.542 102.000 C 165.477 103.279,168.271 106.250,169.337 107.098 C 172.785 109.840,176.938 111.932,180.667 112.804 C 181.079 112.901,181.604 113.023,181.833 113.076 C 184.901 113.784,190.266 113.784,193.333 113.076 C 194.903 112.713,195.414 112.572,196.750 112.131 C 198.528 111.544,202.310 109.745,202.667 109.317 C 202.713 109.262,202.934 109.119,203.160 109.001 C 204.770 108.151,208.412 104.909,209.805 103.083 C 210.224 102.533,210.613 102.046,210.669 102.000 C 211.278 101.497,213.659 97.300,214.404 95.417 C 216.878 89.161,217.278 83.250,215.701 76.250 C 213.186 65.085,203.484 56.312,191.481 54.347 C 190.187 54.135,184.990 54.140,183.667 54.355 M304.083 54.495 C 299.447 54.964,295.357 56.411,291.438 58.969 C 290.008 59.902,289.029 60.669,286.938 62.498 C 278.921 69.509,275.770 83.756,279.816 94.708 C 280.638 96.936,283.225 101.660,283.989 102.333 C 284.041 102.379,284.516 102.951,285.044 103.604 C 286.070 104.874,287.828 106.605,288.917 107.417 C 289.283 107.691,289.621 107.959,289.667 108.013 C 290.345 108.813,295.012 111.369,297.167 112.120 C 301.145 113.507,302.614 113.750,307.000 113.750 C 310.529 113.750,311.083 113.693,313.833 113.052 C 316.704 112.383,321.308 110.346,323.083 108.958 C 323.175 108.886,323.743 108.462,324.345 108.014 C 341.808 95.043,339.188 66.845,319.631 57.282 C 316.982 55.987,315.170 55.404,311.529 54.677 C 310.340 54.440,305.744 54.328,304.083 54.495 M363.417 54.433 C 361.209 54.654,357.452 55.584,355.750 56.331 C 351.064 58.388,346.243 62.016,343.901 65.250 C 343.636 65.617,343.371 65.954,343.314 66.000 C 342.965 66.278,341.226 69.208,340.492 70.756 C 339.384 73.091,339.361 73.149,338.505 75.917 C 336.938 80.974,337.268 88.966,339.271 94.529 C 341.341 100.277,346.844 107.146,351.153 109.361 C 351.390 109.483,351.621 109.630,351.667 109.688 C 351.841 109.907,356.296 111.990,357.250 112.299 C 368.793 116.031,381.168 112.465,388.656 103.250 C 400.920 88.158,396.131 65.406,378.957 57.168 C 376.272 55.880,374.992 55.460,371.333 54.670 C 370.429 54.475,364.711 54.303,363.417 54.433 M75.234 55.233 C 75.130 55.503,74.368 55.690,74.236 55.478 C 74.187 55.398,74.297 55.333,74.480 55.333 C 74.664 55.333,74.860 55.258,74.917 55.167 C 75.073 54.913,75.335 54.968,75.234 55.233 M73.333 57.083 C 73.333 57.222,73.481 57.333,73.667 57.333 C 74.064 57.333,74.109 57.077,73.736 56.934 C 73.364 56.792,73.333 56.803,73.333 57.083 M185.083 61.751 C 185.270 61.759,185.275 62.067,185.097 62.625 C 185.008 62.905,185.044 63.000,185.239 63.000 C 185.382 63.000,185.500 63.069,185.500 63.153 C 185.500 63.237,185.543 63.418,185.595 63.555 C 185.656 63.714,185.560 63.845,185.329 63.918 C 185.034 64.012,184.988 64.114,185.081 64.475 C 185.144 64.718,185.257 65.404,185.331 66.000 C 185.645 68.504,185.643 68.500,186.301 68.500 L 186.891 68.500 186.529 68.114 C 186.016 67.568,186.080 67.415,186.651 67.822 C 187.319 68.298,187.444 68.260,187.588 67.542 L 187.713 66.917 187.861 67.458 C 188.009 67.997,188.516 68.212,188.750 67.833 C 188.807 67.742,188.935 67.667,189.036 67.667 C 189.136 67.667,189.082 67.817,188.916 68.001 C 188.530 68.428,188.660 68.558,189.250 68.333 C 189.880 68.094,189.973 68.248,189.390 68.564 L 188.917 68.820 189.448 68.827 C 190.167 68.836,190.310 69.132,189.628 69.198 C 188.758 69.281,188.724 70.973,189.573 71.890 C 189.801 72.136,190.079 72.642,190.190 73.013 C 190.470 73.945,190.981 74.301,191.346 73.816 L 191.613 73.462 192.313 73.904 C 192.698 74.147,192.969 74.416,192.915 74.502 C 192.862 74.588,192.791 74.879,192.757 75.147 C 192.680 75.753,192.206 76.500,191.897 76.500 C 191.753 76.500,191.667 76.684,191.667 76.992 C 191.667 77.625,191.344 78.333,191.056 78.333 C 190.843 78.333,190.877 80.772,191.100 81.479 C 191.140 81.606,191.081 81.819,190.970 81.953 C 190.848 82.100,190.775 82.672,190.786 83.390 C 190.796 84.046,190.726 84.678,190.629 84.795 C 190.319 85.169,190.589 86.848,191.117 87.835 C 191.510 88.571,191.582 88.861,191.485 89.319 C 191.329 90.052,191.399 90.207,192.003 90.474 C 192.576 90.728,192.724 91.773,192.243 92.172 C 191.738 92.591,192.022 98.380,192.577 98.993 C 192.783 99.220,192.818 99.488,192.736 100.190 C 192.651 100.910,192.684 101.140,192.898 101.318 C 193.084 101.472,193.167 101.816,193.167 102.437 L 193.167 103.333 187.528 103.333 C 184.426 103.333,181.858 103.302,181.819 103.264 C 181.643 103.090,181.876 101.167,182.073 101.167 C 182.233 101.167,182.251 100.961,182.149 100.318 C 182.030 99.562,182.062 99.399,182.442 98.824 C 183.004 97.976,183.258 92.674,182.770 91.978 C 182.302 91.310,182.409 90.366,182.958 90.303 C 183.389 90.253,183.420 90.195,183.468 89.333 C 183.496 88.829,183.590 88.345,183.676 88.258 C 183.763 88.171,183.833 88.010,183.833 87.900 C 183.833 87.790,184.096 87.437,184.417 87.117 C 184.994 86.539,185.000 86.518,185.007 85.058 C 185.011 84.247,185.057 82.657,185.109 81.524 C 185.177 80.045,185.146 79.356,184.998 79.079 C 184.840 78.785,184.836 78.566,184.979 78.155 C 185.237 77.416,185.214 77.000,184.917 77.000 C 184.557 77.000,184.599 76.204,185.000 75.417 C 185.397 74.637,185.415 74.338,185.089 73.907 C 184.933 73.701,184.879 73.391,184.939 73.052 C 185.009 72.656,184.946 72.428,184.687 72.150 C 184.049 71.465,183.928 70.756,184.311 69.956 C 184.639 69.274,184.641 69.193,184.398 67.583 C 184.259 66.667,184.111 65.504,184.070 65.000 C 184.029 64.496,183.950 63.877,183.895 63.625 C 183.818 63.273,183.857 63.167,184.064 63.167 C 184.385 63.167,184.396 63.096,184.137 62.681 C 183.895 62.294,184.379 61.403,184.716 61.617 C 184.826 61.687,184.992 61.748,185.083 61.751 M74.658 62.662 C 75.158 62.929,75.242 63.361,74.751 63.137 C 74.531 63.037,74.312 62.853,74.264 62.727 C 74.161 62.458,74.249 62.443,74.658 62.662 M76.767 63.581 C 77.896 63.875,78.076 64.000,77.371 64.000 C 77.086 64.000,76.807 63.925,76.750 63.833 C 76.693 63.742,76.445 63.666,76.198 63.664 C 75.952 63.663,75.637 63.589,75.500 63.500 C 75.116 63.252,75.630 63.285,76.767 63.581 M80.564 65.195 C 81.232 65.385,81.738 65.667,81.408 65.667 C 81.195 65.666,79.543 65.018,79.731 65.008 C 79.812 65.004,80.187 65.088,80.564 65.195 M130.250 65.458 C 135.965 67.071,139.154 70.561,139.768 75.875 L 139.879 76.833 136.106 76.833 L 132.333 76.833 132.333 76.340 C 132.333 70.458,119.776 69.358,118.897 75.162 C 118.451 78.112,119.530 78.746,128.833 80.990 C 138.190 83.247,140.628 85.278,140.943 91.083 C 141.395 99.397,133.541 104.627,122.917 103.085 C 115.840 102.059,110.890 97.363,111.199 91.969 L 111.250 91.083 114.823 91.083 L 118.395 91.083 118.677 92.201 C 119.521 95.542,121.774 97.000,126.095 97.000 C 131.123 97.000,133.675 95.302,133.470 92.092 C 133.322 89.755,131.843 88.906,125.478 87.500 C 114.840 85.150,112.124 83.093,111.722 77.079 C 111.321 71.093,115.233 66.463,121.727 65.237 C 123.546 64.894,128.726 65.028,130.250 65.458 M370.140 65.329 C 376.201 66.566,380.500 71.005,380.500 76.027 L 380.500 76.833 376.867 76.833 L 373.233 76.833 373.030 75.846 C 372.471 73.142,370.176 71.573,366.500 71.382 C 362.355 71.166,359.667 72.885,359.667 75.751 C 359.667 78.397,360.424 78.801,369.500 80.989 C 378.601 83.184,380.933 84.976,381.667 90.338 C 382.817 98.731,374.782 104.580,364.054 103.161 C 356.738 102.193,352.522 98.423,351.901 92.292 L 351.787 91.167 355.560 91.167 L 359.333 91.167 359.333 91.580 C 359.333 94.894,362.310 96.996,367.000 96.995 C 371.609 96.994,373.991 95.607,374.285 92.753 C 374.566 90.031,373.020 89.031,366.167 87.498 C 355.366 85.081,352.829 83.123,352.545 76.982 C 352.157 68.550,360.113 63.281,370.140 65.329 M82.667 65.833 C 82.874 65.967,82.859 65.995,82.583 65.995 C 82.400 65.995,82.137 65.922,82.000 65.833 C 81.793 65.700,81.807 65.672,82.083 65.672 C 82.267 65.672,82.529 65.744,82.667 65.833 M320.750 69.083 L 320.750 72.250 311.125 72.293 L 301.500 72.336 301.500 76.168 L 301.500 80.000 310.333 80.000 L 319.167 80.000 319.167 83.167 L 319.167 86.333 310.331 86.333 L 301.495 86.333 301.539 90.958 L 301.583 95.583 311.625 95.626 L 321.667 95.669 321.667 98.918 L 321.667 102.167 307.833 102.167 L 294.000 102.167 294.000 83.999 L 294.000 65.831 307.375 65.874 L 320.750 65.917 320.750 69.083 M253.680 66.533 C 255.540 67.038,256.856 67.666,258.254 68.717 C 266.714 75.076,265.879 94.445,256.896 100.216 C 253.778 102.219,252.982 102.333,242.152 102.333 L 233.333 102.333 233.333 84.156 L 233.333 65.978 242.708 66.039 L 252.083 66.100 253.680 66.533 M82.833 66.500 C 82.833 66.592,82.725 66.667,82.593 66.667 C 82.461 66.667,82.307 66.592,82.250 66.500 C 82.193 66.408,82.301 66.333,82.490 66.333 C 82.679 66.333,82.833 66.408,82.833 66.500 M185.667 68.917 C 185.667 69.197,185.697 69.208,186.070 69.066 C 186.442 68.923,186.397 68.667,186.000 68.667 C 185.815 68.667,185.667 68.778,185.667 68.917 M186.089 69.417 C 186.360 70.286,186.345 70.273,186.589 69.833 C 186.913 69.252,186.891 69.167,186.422 69.167 C 186.133 69.167,186.034 69.241,186.089 69.417 M55.417 71.435 C 52.169 71.921,49.447 75.710,49.724 79.359 C 49.819 80.617,50.669 83.000,51.022 83.000 C 51.102 83.000,51.167 83.106,51.167 83.235 C 51.167 83.626,52.818 84.982,53.985 85.549 C 56.071 86.564,60.263 86.206,61.327 84.924 C 61.445 84.782,61.600 84.667,61.673 84.667 C 61.869 84.667,63.000 83.533,63.000 83.336 C 63.000 83.243,63.066 83.167,63.146 83.167 C 63.227 83.167,63.391 82.923,63.512 82.625 C 63.632 82.327,63.781 82.046,63.843 82.000 C 64.065 81.835,64.500 79.709,64.500 78.789 C 64.500 73.881,60.535 70.670,55.417 71.435 M240.833 84.147 L 240.833 96.000 244.768 96.000 C 250.493 96.000,251.996 95.498,253.895 92.952 C 257.048 88.725,257.077 78.020,253.945 74.553 C 252.400 72.844,250.957 72.481,245.292 72.377 L 240.833 72.295 240.833 84.147 M88.197 76.023 C 88.352 76.102,88.713 76.167,89.000 76.167 C 89.694 76.167,90.167 76.438,90.167 76.836 C 90.167 77.104,90.102 77.134,89.792 77.013 C 89.585 76.933,88.835 76.732,88.125 76.567 C 87.112 76.331,86.833 76.203,86.833 75.971 C 86.833 75.661,87.541 75.689,88.197 76.023 M93.417 77.191 C 94.051 77.351,94.154 77.417,93.851 77.466 C 93.375 77.542,92.035 77.192,91.888 76.953 C 91.781 76.781,91.822 76.787,93.417 77.191 M32.083 83.167 C 32.140 83.258,32.069 83.333,31.927 83.333 C 31.616 83.333,31.592 83.525,31.867 83.800 C 32.083 84.016,31.999 84.053,31.622 83.908 C 31.471 83.850,31.411 83.666,31.461 83.408 C 31.540 82.996,31.893 82.859,32.083 83.167 M33.000 86.500 C 33.000 86.683,32.925 86.833,32.833 86.833 C 32.742 86.833,32.667 86.683,32.667 86.500 C 32.667 86.317,32.742 86.167,32.833 86.167 C 32.925 86.167,33.000 86.317,33.000 86.500 M82.899 93.305 C 82.946 93.381,83.401 93.537,83.909 93.650 C 84.417 93.764,84.833 93.927,84.833 94.012 C 84.833 94.097,84.965 94.167,85.125 94.168 C 85.544 94.169,86.713 94.510,86.619 94.603 C 86.512 94.710,85.014 94.336,84.500 94.073 C 84.271 93.956,83.727 93.769,83.292 93.658 C 82.856 93.547,82.500 93.391,82.500 93.312 C 82.500 93.127,82.786 93.122,82.899 93.305 M87.664 95.125 C 87.663 95.305,87.615 95.346,87.539 95.233 C 87.472 95.132,87.304 95.007,87.167 94.955 C 87.000 94.891,87.041 94.855,87.292 94.846 C 87.544 94.838,87.666 94.929,87.664 95.125 M34.042 95.232 C 34.403 95.507,34.414 95.667,34.071 95.667 C 33.819 95.667,33.333 95.291,33.333 95.095 C 33.333 94.926,33.742 95.005,34.042 95.232 M45.039 98.555 C 45.719 98.792,46.025 99.007,45.653 98.988 C 45.360 98.972,44.020 98.362,44.250 98.348 C 44.342 98.343,44.697 98.436,45.039 98.555 M78.336 99.349 C 78.839 99.541,79.600 99.808,80.028 99.941 C 80.457 100.075,80.907 100.306,81.028 100.454 C 81.222 100.690,81.207 100.712,80.917 100.627 C 80.733 100.573,80.021 100.376,79.333 100.188 C 77.509 99.691,76.777 99.415,76.704 99.195 C 76.603 98.894,77.321 98.962,78.336 99.349 M38.962 102.772 C 39.088 102.897,39.273 103.000,39.373 103.000 C 39.473 103.000,39.520 103.035,39.477 103.079 C 39.292 103.264,38.225 102.792,37.940 102.400 L 37.631 101.973 38.182 102.258 C 38.485 102.415,38.836 102.646,38.962 102.772 M41.000 103.250 C 41.000 103.416,40.834 103.500,40.510 103.500 C 39.951 103.500,39.681 103.231,40.123 103.115 C 40.713 102.961,41.000 103.006,41.000 103.250 M43.145 103.458 C 42.806 103.891,42.624 103.995,42.198 103.997 C 41.701 104.001,41.873 103.724,42.554 103.426 C 43.278 103.109,43.414 103.116,43.145 103.458 M45.225 103.499 C 45.029 103.578,44.818 103.724,44.757 103.822 C 44.570 104.125,44.360 104.018,44.452 103.667 C 44.516 103.420,44.674 103.336,45.061 103.344 C 45.524 103.353,45.542 103.371,45.225 103.499 M40.167 108.578 C 40.167 108.875,40.097 108.963,39.917 108.894 C 39.779 108.841,39.667 108.656,39.667 108.482 C 39.667 108.309,39.779 108.167,39.917 108.167 C 40.071 108.167,40.167 108.323,40.167 108.578 M73.667 109.167 C 74.149 109.544,73.926 109.586,72.936 109.305 C 71.965 109.030,71.820 108.833,72.592 108.837 C 72.987 108.839,73.416 108.971,73.667 109.167 M335.363 109.510 C 334.729 109.764,331.540 112.832,331.323 113.396 C 331.213 113.682,330.983 114.222,330.812 114.594 C 330.640 114.967,330.500 115.508,330.500 115.796 C 330.500 116.084,330.429 116.867,330.342 117.535 C 330.255 118.203,330.102 120.400,330.001 122.417 C 329.900 124.433,329.751 126.571,329.668 127.167 C 329.586 127.763,329.437 129.000,329.336 129.917 C 328.908 133.821,328.815 134.395,328.243 136.667 C 328.093 137.262,327.910 138.012,327.837 138.333 C 326.863 142.598,324.152 147.013,322.516 146.997 C 322.195 146.994,321.052 146.607,320.892 146.448 C 320.829 146.385,320.631 146.333,320.451 146.333 C 319.507 146.333,317.259 143.251,316.683 141.167 C 316.569 140.754,316.330 139.967,316.153 139.417 C 315.854 138.491,315.830 137.885,315.832 131.234 C 315.833 124.262,315.824 124.043,315.500 123.750 C 315.317 123.584,315.167 123.361,315.167 123.255 C 315.167 122.163,312.811 121.750,311.208 122.563 C 310.287 123.029,307.626 125.743,307.264 126.583 C 306.496 128.372,306.453 130.343,307.167 131.025 C 307.607 131.446,307.667 131.615,307.667 132.448 C 307.667 132.969,307.738 134.037,307.825 134.822 C 307.912 135.607,308.064 137.337,308.163 138.667 C 308.796 147.173,309.246 148.608,312.277 151.812 C 313.616 153.227,314.110 153.630,314.998 154.035 C 316.301 154.628,316.833 155.088,316.833 155.622 C 316.833 156.356,317.198 157.476,317.471 157.581 C 317.744 157.686,318.167 157.280,318.167 156.913 C 318.167 156.809,318.351 156.279,318.576 155.737 L 318.986 154.750 318.993 157.708 C 319.000 160.536,319.015 160.667,319.327 160.667 C 319.869 160.667,320.266 159.344,320.644 156.279 C 320.745 155.459,320.912 154.856,321.095 154.654 C 321.407 154.310,322.769 153.500,323.037 153.500 C 323.571 153.500,326.494 151.168,328.626 149.042 C 329.384 148.285,330.029 147.667,330.059 147.667 C 330.247 147.667,330.849 151.871,331.426 157.199 C 331.543 158.284,331.535 158.318,331.148 158.402 C 329.336 158.794,327.765 159.027,325.923 159.175 C 322.032 159.487,319.000 162.056,319.000 165.041 C 319.000 166.789,319.197 166.833,326.992 166.833 L 333.500 166.833 333.498 167.875 C 333.493 170.726,334.044 174.833,334.431 174.833 C 335.190 174.833,335.333 174.126,335.333 170.382 C 335.333 167.069,335.355 166.813,335.625 166.864 C 335.842 166.905,335.929 167.111,335.966 167.668 C 335.992 168.080,336.161 169.532,336.341 170.894 C 336.520 172.257,336.667 173.632,336.667 173.950 C 336.667 174.338,336.735 174.505,336.875 174.458 C 337.191 174.353,337.648 173.011,337.655 172.167 C 337.658 171.754,337.752 170.385,337.863 169.125 L 338.066 166.833 343.741 166.837 C 349.947 166.842,350.428 166.896,351.820 167.754 C 352.331 168.069,352.991 168.375,353.287 168.433 C 354.695 168.713,358.601 165.665,359.007 163.969 C 359.717 161.013,358.629 159.966,354.000 159.149 C 352.881 158.951,344.951 158.511,342.398 158.505 C 340.131 158.499,338.965 158.358,339.120 158.107 C 339.517 157.464,339.624 155.432,339.358 153.583 C 339.252 152.850,339.094 151.650,339.006 150.917 C 338.917 150.183,338.763 148.946,338.662 148.167 C 338.561 147.387,338.401 146.000,338.307 145.083 C 338.049 142.562,337.941 127.603,338.156 124.083 C 338.546 117.684,338.589 110.786,338.243 110.200 C 337.781 109.417,336.412 109.089,335.363 109.510 M50.824 109.830 C 51.320 110.011,51.803 110.236,51.897 110.330 C 51.990 110.423,52.214 110.500,52.394 110.500 C 52.575 110.500,52.678 110.544,52.624 110.598 C 52.570 110.653,51.901 110.532,51.138 110.331 C 50.374 110.130,49.580 109.927,49.373 109.880 C 49.165 109.832,48.954 109.727,48.904 109.647 C 48.741 109.382,49.902 109.493,50.824 109.830 M46.366 110.500 C 46.674 110.500,46.676 110.514,46.400 110.790 C 46.192 110.999,46.091 111.022,46.041 110.874 C 46.003 110.760,45.847 110.666,45.694 110.664 C 45.542 110.663,45.304 110.581,45.167 110.483 C 44.977 110.348,45.053 110.329,45.479 110.403 C 45.789 110.456,46.188 110.500,46.366 110.500 M54.284 110.992 C 54.724 111.069,55.518 111.253,56.050 111.400 C 57.141 111.701,58.167 111.750,58.167 111.500 C 58.167 111.162,58.497 111.347,58.596 111.740 C 58.654 111.972,58.853 112.183,59.057 112.229 C 59.255 112.274,59.154 112.284,58.833 112.251 C 58.258 112.192,57.963 112.127,55.833 111.590 C 55.237 111.440,54.413 111.235,54.000 111.134 C 53.587 111.033,53.137 110.883,53.000 110.800 C 52.822 110.694,52.855 110.679,53.118 110.751 C 53.320 110.806,53.845 110.914,54.284 110.992 M61.833 112.572 C 62.407 112.616,63.525 112.816,65.333 113.198 C 65.837 113.304,66.449 113.528,66.692 113.696 C 66.936 113.863,67.217 114.000,67.317 114.000 C 67.418 114.000,67.500 114.083,67.500 114.184 C 67.500 114.296,67.384 114.320,67.208 114.247 C 67.048 114.180,66.654 114.070,66.333 114.002 C 66.012 113.935,65.450 113.766,65.083 113.626 C 63.771 113.128,63.023 112.958,62.605 113.063 C 62.371 113.122,61.859 113.058,61.465 112.921 C 61.072 112.784,60.506 112.670,60.208 112.669 C 59.910 112.668,59.667 112.582,59.667 112.478 C 59.667 112.348,59.911 112.327,60.458 112.409 C 60.894 112.474,61.512 112.548,61.833 112.572 M299.299 116.660 C 296.082 118.302,293.667 121.216,293.667 123.454 L 293.667 124.504 294.583 124.910 C 295.087 125.133,295.500 125.382,295.500 125.464 C 295.500 125.546,295.612 126.786,295.750 128.220 C 295.991 130.740,296.166 132.937,296.503 137.667 C 296.676 140.095,296.920 142.863,297.131 144.792 C 297.203 145.456,297.236 146.000,297.203 146.000 C 297.108 146.000,296.790 145.642,296.169 144.833 C 295.851 144.421,295.551 144.046,295.500 144.000 C 295.449 143.954,295.147 143.579,294.829 143.167 C 294.511 142.755,294.160 142.305,294.050 142.167 C 293.939 142.029,293.339 141.276,292.716 140.494 C 291.090 138.452,290.361 137.570,289.417 136.499 C 288.958 135.980,288.433 135.339,288.250 135.076 C 288.067 134.813,287.362 133.926,286.683 133.106 C 285.165 131.271,283.845 129.303,283.538 128.417 C 283.195 127.425,282.355 125.911,281.921 125.505 C 280.256 123.940,275.337 126.784,275.124 129.435 C 275.061 130.224,274.949 130.625,274.752 130.769 C 274.461 130.982,274.501 131.492,275.020 134.167 C 275.421 136.236,275.706 138.349,275.998 141.417 C 276.086 142.333,276.237 143.796,276.334 144.667 C 276.580 146.864,276.884 154.203,276.907 158.500 C 276.926 162.196,277.115 165.313,277.342 165.680 C 277.776 166.382,280.251 166.142,281.187 165.307 C 281.428 165.092,282.067 164.574,282.607 164.155 C 283.147 163.736,283.963 162.956,284.420 162.422 L 285.250 161.450 285.195 154.326 C 285.162 149.930,285.202 147.165,285.300 147.104 C 285.387 147.050,285.860 147.548,286.351 148.211 C 286.842 148.874,287.787 150.029,288.450 150.777 C 289.113 151.525,289.808 152.407,289.995 152.736 C 291.091 154.672,291.538 155.439,292.282 156.667 C 293.427 158.557,293.413 158.472,293.164 162.056 C 292.878 166.163,292.848 171.247,293.107 171.507 C 293.700 172.101,294.078 171.324,294.340 168.971 C 294.435 168.116,294.586 166.779,294.676 166.000 C 294.766 165.221,294.885 164.082,294.941 163.470 C 295.035 162.442,295.066 162.372,295.350 162.549 C 295.630 162.724,295.932 163.514,295.871 163.917 C 295.805 164.355,295.468 167.061,295.331 168.250 C 295.247 168.983,295.097 170.183,294.999 170.917 C 294.735 172.874,294.602 178.500,294.818 178.500 C 295.168 178.500,295.622 177.214,295.818 175.667 C 295.929 174.796,296.087 173.633,296.170 173.083 C 296.253 172.533,296.439 171.146,296.583 170.000 C 296.976 166.889,296.988 166.833,297.268 166.833 C 297.420 166.833,297.721 167.284,298.021 167.958 C 298.837 169.792,298.939 170.026,299.498 171.333 C 300.200 172.975,300.876 174.396,301.003 174.500 C 301.059 174.546,301.342 174.931,301.630 175.355 C 302.233 176.241,302.874 176.449,303.812 176.064 C 304.121 175.937,304.496 175.833,304.645 175.832 C 305.508 175.827,308.896 172.671,309.184 171.603 C 309.364 170.938,309.346 170.573,309.011 168.083 C 308.757 166.194,308.490 164.166,308.330 162.917 C 308.248 162.275,308.105 161.188,308.012 160.500 C 307.635 157.702,307.479 156.520,307.316 155.250 C 307.222 154.517,307.080 153.429,307.000 152.833 C 306.584 149.735,306.261 147.259,306.005 145.208 C 305.911 144.452,305.756 143.215,305.661 142.458 C 305.008 137.263,304.537 132.167,304.331 128.083 C 304.234 126.158,304.082 123.985,303.994 123.254 C 303.906 122.523,303.833 121.398,303.833 120.754 C 303.832 116.260,302.478 115.037,299.299 116.660 M374.594 119.890 C 372.313 121.141,370.333 123.859,370.333 125.738 L 370.333 126.958 369.792 127.068 C 369.494 127.128,368.425 127.220,367.417 127.272 C 365.263 127.384,363.632 127.885,360.417 129.419 L 358.417 130.374 355.793 133.017 L 353.170 135.661 351.974 138.004 C 351.317 139.293,350.712 140.701,350.630 141.132 C 350.222 143.294,350.322 146.639,350.833 147.917 C 350.906 148.100,351.058 148.512,351.171 148.833 C 351.534 149.869,351.746 150.333,351.854 150.333 C 351.912 150.333,352.053 150.558,352.167 150.833 C 352.281 151.108,352.440 151.333,352.520 151.333 C 352.601 151.333,352.667 151.407,352.667 151.498 C 352.667 151.926,354.491 153.935,358.360 157.766 C 363.907 163.260,367.901 166.027,372.296 167.423 L 373.833 167.911 373.833 177.206 C 373.833 182.318,373.890 186.500,373.960 186.500 C 374.875 186.500,375.846 177.900,375.835 169.885 C 375.833 168.216,376.297 167.904,376.535 169.415 C 376.632 170.031,377.094 169.883,377.508 169.102 C 377.913 168.339,377.874 168.364,380.290 167.309 C 380.678 167.139,381.039 167.000,381.090 167.000 C 381.681 167.000,385.253 164.087,385.996 163.000 C 386.215 162.679,386.636 162.144,386.930 161.810 C 387.225 161.476,387.521 161.026,387.589 160.810 C 387.657 160.594,387.912 160.117,388.157 159.750 C 388.401 159.383,388.919 158.258,389.307 157.250 L 390.012 155.417 389.964 151.000 L 389.917 146.583 389.431 146.619 C 389.163 146.638,388.901 146.723,388.847 146.807 C 388.794 146.892,388.383 147.085,387.934 147.237 C 386.773 147.629,384.160 150.342,383.852 151.475 C 383.736 151.901,383.572 152.422,383.488 152.633 C 383.403 152.843,383.331 153.331,383.327 153.716 C 383.324 154.101,383.206 154.904,383.066 155.500 C 382.925 156.096,382.751 156.921,382.681 157.333 C 382.534 158.189,382.033 159.483,381.729 159.792 C 381.590 159.932,380.950 160.000,379.760 160.000 L 377.996 160.000 375.956 158.999 C 373.230 157.660,371.287 156.515,370.535 155.803 C 370.195 155.481,369.617 155.001,369.250 154.736 C 366.989 153.103,363.976 150.199,361.583 147.346 C 361.033 146.690,360.409 145.951,360.197 145.704 C 359.984 145.457,359.440 144.598,358.988 143.797 L 358.167 142.339 358.167 140.151 C 358.167 137.113,358.277 136.925,360.768 135.725 L 362.620 134.833 364.988 134.833 C 366.811 134.833,367.692 134.913,368.821 135.182 L 370.287 135.530 370.499 136.473 C 371.234 139.748,371.756 140.019,372.662 137.595 C 373.330 135.810,373.500 136.111,373.500 139.083 L 373.500 141.667 374.083 141.667 L 374.667 141.667 374.667 139.231 C 374.667 136.988,374.690 136.801,374.958 136.883 C 377.271 137.582,380.439 138.927,381.667 139.731 C 382.991 140.598,386.379 143.057,386.804 143.458 C 387.122 143.759,388.721 143.715,389.411 143.386 L 390.000 143.105 389.996 138.011 L 389.993 132.917 388.621 131.833 C 384.394 128.494,378.500 122.016,378.500 120.708 C 378.500 119.685,375.943 119.149,374.594 119.890 " stroke="none" fill="#000000" fill-rule="evenodd"></path><path id="path1" d="M22.414 38.667 C 22.414 48.704,22.434 52.810,22.458 47.792 C 22.483 42.773,22.483 34.560,22.458 29.542 C 22.434 24.523,22.414 28.629,22.414 38.667 M40.711 20.620 C 40.964 20.658,41.339 20.657,41.544 20.617 C 41.749 20.578,41.542 20.546,41.083 20.548 C 40.625 20.549,40.457 20.581,40.711 20.620 M51.209 29.917 C 51.211 30.283,51.245 30.414,51.285 30.206 C 51.324 29.999,51.323 29.699,51.281 29.540 C 51.239 29.380,51.207 29.550,51.209 29.917 M32.208 40.958 C 33.652 40.986,36.015 40.986,37.458 40.958 C 38.902 40.930,37.721 40.908,34.833 40.908 C 31.946 40.908,30.765 40.930,32.208 40.958 M49.167 53.583 C 48.762 53.996,48.468 54.333,48.514 54.333 C 48.560 54.333,48.928 53.996,49.333 53.583 C 49.738 53.171,50.032 52.833,49.986 52.833 C 49.940 52.833,49.572 53.171,49.167 53.583 M41.042 56.782 C 41.202 56.823,41.465 56.823,41.625 56.782 C 41.785 56.740,41.654 56.705,41.333 56.705 C 41.012 56.705,40.881 56.740,41.042 56.782 M249.792 66.118 C 249.998 66.157,250.335 66.157,250.542 66.118 C 250.748 66.078,250.579 66.045,250.167 66.045 C 249.754 66.045,249.585 66.078,249.792 66.118 M320.736 69.083 C 320.736 70.825,320.761 71.515,320.791 70.616 C 320.821 69.718,320.821 68.293,320.791 67.450 C 320.761 66.607,320.736 67.342,320.736 69.083 M184.375 67.083 C 184.377 67.450,184.411 67.580,184.451 67.373 C 184.491 67.166,184.490 66.866,184.448 66.706 C 184.406 66.547,184.374 66.717,184.375 67.083 M186.172 67.599 C 186.169 67.700,186.304 67.906,186.472 68.058 C 186.725 68.287,186.778 68.293,186.778 68.091 C 186.778 67.958,186.720 67.884,186.649 67.928 C 186.578 67.971,186.443 67.874,186.349 67.712 C 186.254 67.549,186.175 67.499,186.172 67.599 M114.744 68.708 L 113.917 69.583 114.792 68.756 C 115.605 67.988,115.743 67.833,115.619 67.833 C 115.592 67.833,115.199 68.227,114.744 68.708 M136.667 69.083 C 136.978 69.404,137.270 69.667,137.315 69.667 C 137.361 69.667,137.144 69.404,136.833 69.083 C 136.522 68.762,136.230 68.500,136.185 68.500 C 136.139 68.500,136.356 68.762,136.667 69.083 M258.833 69.219 C 258.833 69.248,259.077 69.491,259.375 69.760 L 259.917 70.250 259.427 69.708 C 258.971 69.203,258.833 69.090,258.833 69.219 M240.746 84.167 C 240.746 90.721,240.766 93.402,240.792 90.125 C 240.817 86.848,240.817 81.485,240.792 78.208 C 240.766 74.931,240.746 77.612,240.746 84.167 M111.725 76.333 C 111.725 77.112,111.754 77.431,111.789 77.042 C 111.824 76.652,111.824 76.015,111.789 75.625 C 111.754 75.235,111.725 75.554,111.725 76.333 M359.548 75.750 C 359.549 76.208,359.581 76.376,359.620 76.123 C 359.658 75.869,359.657 75.494,359.617 75.289 C 359.578 75.084,359.546 75.292,359.548 75.750 M139.709 76.250 C 139.711 76.617,139.745 76.747,139.785 76.540 C 139.824 76.332,139.823 76.032,139.781 75.873 C 139.739 75.714,139.707 75.883,139.709 76.250 M256.209 81.583 C 256.211 81.950,256.245 82.080,256.285 81.873 C 256.324 81.666,256.323 81.366,256.281 81.206 C 256.239 81.047,256.207 81.217,256.209 81.583 M264.062 83.500 C 264.062 84.462,264.089 84.856,264.123 84.375 C 264.157 83.894,264.157 83.106,264.123 82.625 C 264.089 82.144,264.062 82.537,264.062 83.500 M190.659 84.121 C 190.613 84.508,190.639 84.761,190.716 84.684 C 190.794 84.606,190.832 84.289,190.800 83.980 C 190.743 83.431,190.740 83.434,190.659 84.121 M256.209 85.583 C 256.211 85.950,256.245 86.080,256.285 85.873 C 256.324 85.666,256.323 85.366,256.281 85.206 C 256.239 85.047,256.207 85.217,256.209 85.583 M140.872 90.833 C 140.872 91.154,140.906 91.285,140.948 91.125 C 140.990 90.965,140.990 90.702,140.948 90.542 C 140.906 90.381,140.872 90.513,140.872 90.833 M112.500 91.115 C 115.588 91.235,118.462 91.239,118.391 91.125 C 118.349 91.056,116.724 91.015,114.782 91.034 C 112.839 91.052,111.813 91.089,112.500 91.115 M381.712 91.667 C 381.712 92.079,381.745 92.248,381.784 92.042 C 381.824 91.835,381.824 91.498,381.784 91.292 C 381.745 91.085,381.712 91.254,381.712 91.667 M351.879 91.833 C 351.879 92.246,351.911 92.415,351.951 92.208 C 351.991 92.002,351.991 91.665,351.951 91.458 C 351.911 91.252,351.879 91.421,351.879 91.833 M133.545 92.333 C 133.545 92.746,133.578 92.915,133.618 92.708 C 133.657 92.502,133.657 92.165,133.618 91.958 C 133.578 91.752,133.545 91.921,133.545 92.333 M140.875 92.583 C 140.877 92.950,140.911 93.080,140.951 92.873 C 140.991 92.666,140.990 92.366,140.948 92.206 C 140.906 92.047,140.874 92.217,140.875 92.583 M183.057 93.583 C 183.058 94.317,183.087 94.596,183.122 94.204 C 183.157 93.812,183.157 93.212,183.121 92.871 C 183.085 92.529,183.057 92.850,183.057 93.583 M321.570 98.917 C 321.570 100.750,321.594 101.523,321.624 100.634 C 321.654 99.745,321.654 98.245,321.624 97.301 C 321.595 96.356,321.570 97.083,321.570 98.917 M125.628 97.121 C 125.928 97.158,126.378 97.157,126.628 97.119 C 126.878 97.081,126.633 97.051,126.083 97.052 C 125.533 97.053,125.328 97.084,125.628 97.121 M366.296 97.122 C 366.688 97.157,367.288 97.157,367.629 97.121 C 367.971 97.085,367.650 97.057,366.917 97.057 C 366.183 97.058,365.904 97.087,366.296 97.122 M258.824 98.625 L 258.250 99.250 258.875 98.676 C 259.457 98.141,259.577 98.000,259.449 98.000 C 259.422 98.000,259.140 98.281,258.824 98.625 M354.917 99.167 C 355.275 99.533,355.605 99.833,355.651 99.833 C 355.697 99.833,355.441 99.533,355.083 99.167 C 354.725 98.800,354.395 98.500,354.349 98.500 C 354.303 98.500,354.559 98.800,354.917 99.167 M137.667 99.417 C 137.262 99.829,136.968 100.167,137.014 100.167 C 137.060 100.167,137.428 99.829,137.833 99.417 C 138.238 99.004,138.532 98.667,138.486 98.667 C 138.440 98.667,138.072 99.004,137.667 99.417 M192.792 101.333 C 192.906 101.462,193.000 101.929,193.000 102.371 L 193.000 103.175 187.349 103.129 C 184.241 103.104,181.733 103.140,181.776 103.208 C 181.818 103.277,184.399 103.333,187.510 103.333 L 193.167 103.333 193.167 102.437 C 193.167 101.779,193.089 101.482,192.875 101.320 C 192.627 101.132,192.614 101.134,192.792 101.333 M124.621 103.287 C 124.917 103.324,125.442 103.324,125.788 103.288 C 126.134 103.252,125.892 103.222,125.250 103.221 C 124.608 103.221,124.325 103.250,124.621 103.287 M126.958 103.287 C 127.256 103.324,127.744 103.324,128.042 103.287 C 128.340 103.250,128.096 103.220,127.500 103.220 C 126.904 103.220,126.660 103.250,126.958 103.287 M365.208 103.286 C 365.460 103.324,365.873 103.324,366.125 103.286 C 366.377 103.248,366.171 103.217,365.667 103.217 C 365.162 103.217,364.956 103.248,365.208 103.286 M368.211 103.286 C 368.464 103.325,368.839 103.324,369.044 103.284 C 369.249 103.244,369.042 103.213,368.583 103.214 C 368.125 103.216,367.957 103.248,368.211 103.286 " stroke="none" fill="#7c7c7c" fill-rule="evenodd"></path><path id="path2" d="M26.863 20.625 C 29.309 20.651,33.359 20.651,35.863 20.625 C 38.368 20.599,36.367 20.578,31.417 20.578 C 26.467 20.578,24.418 20.599,26.863 20.625 M31.958 34.958 C 33.265 34.986,35.402 34.986,36.708 34.958 C 38.015 34.930,36.946 34.907,34.333 34.907 C 31.721 34.907,30.652 34.930,31.958 34.958 M44.714 45.417 C 44.716 45.875,44.748 46.043,44.786 45.789 C 44.825 45.536,44.824 45.161,44.784 44.956 C 44.744 44.751,44.713 44.958,44.714 45.417 M32.125 50.625 C 33.523 50.653,35.810 50.653,37.208 50.625 C 38.606 50.597,37.462 50.574,34.667 50.574 C 31.871 50.574,30.727 50.597,32.125 50.625 M123.875 65.115 C 124.035 65.157,124.298 65.157,124.458 65.115 C 124.619 65.073,124.487 65.039,124.167 65.039 C 123.846 65.039,123.715 65.073,123.875 65.115 M364.875 65.115 C 365.035 65.157,365.298 65.157,365.458 65.115 C 365.619 65.073,365.488 65.039,365.167 65.039 C 364.846 65.039,364.715 65.073,364.875 65.115 M367.375 65.115 C 367.535 65.157,367.798 65.157,367.958 65.115 C 368.119 65.073,367.988 65.039,367.667 65.039 C 367.346 65.039,367.215 65.073,367.375 65.115 M294.077 66.042 C 294.033 66.156,294.017 74.350,294.041 84.250 L 294.085 102.250 294.126 84.126 L 294.167 66.002 307.458 65.958 L 320.750 65.915 307.453 65.874 C 296.939 65.842,294.140 65.877,294.077 66.042 M233.410 66.208 C 233.367 66.323,233.350 74.517,233.374 84.417 L 233.418 102.417 233.459 84.293 L 233.500 66.170 241.542 66.125 L 249.583 66.080 241.536 66.040 C 235.223 66.009,233.472 66.045,233.410 66.208 M355.658 68.625 L 355.083 69.250 355.708 68.676 C 356.290 68.141,356.410 68.000,356.283 68.000 C 356.255 68.000,355.974 68.281,355.658 68.625 M186.500 68.500 C 186.271 68.573,186.177 68.641,186.292 68.650 C 186.406 68.659,186.500 68.779,186.500 68.917 C 186.500 69.054,186.579 69.167,186.677 69.167 C 186.774 69.167,186.805 69.088,186.745 68.993 C 186.686 68.897,186.729 68.710,186.839 68.576 C 186.950 68.443,187.013 68.341,186.979 68.350 C 186.945 68.359,186.729 68.427,186.500 68.500 M124.621 71.287 C 124.917 71.324,125.442 71.324,125.788 71.288 C 126.134 71.252,125.892 71.222,125.250 71.221 C 124.608 71.221,124.325 71.250,124.621 71.287 M365.625 71.284 C 365.831 71.324,366.169 71.324,366.375 71.284 C 366.581 71.245,366.412 71.212,366.000 71.212 C 365.587 71.212,365.419 71.245,365.625 71.284 M301.408 72.379 C 301.363 72.495,301.347 74.277,301.372 76.337 L 301.417 80.083 310.208 80.126 L 319.000 80.170 319.000 83.167 L 319.000 86.164 310.208 86.207 L 301.417 86.250 301.413 91.000 L 301.409 95.750 301.457 91.043 L 301.505 86.336 310.294 86.293 L 319.083 86.250 319.083 83.167 L 319.083 80.083 310.292 80.040 L 301.500 79.997 301.500 76.167 L 301.500 72.336 311.125 72.292 L 320.750 72.247 311.120 72.207 C 303.449 72.175,301.473 72.210,301.408 72.379 M119.740 73.042 L 119.250 73.583 119.792 73.094 C 120.090 72.825,120.333 72.581,120.333 72.552 C 120.333 72.423,120.196 72.537,119.740 73.042 M130.500 72.719 C 130.500 72.748,130.744 72.991,131.042 73.260 L 131.583 73.750 131.094 73.208 C 130.638 72.703,130.500 72.590,130.500 72.719 M118.714 75.750 C 118.716 76.208,118.748 76.376,118.786 76.123 C 118.825 75.869,118.824 75.494,118.784 75.289 C 118.744 75.084,118.713 75.292,118.714 75.750 M352.539 75.667 C 352.539 75.987,352.573 76.119,352.615 75.958 C 352.657 75.798,352.657 75.535,352.615 75.375 C 352.573 75.215,352.539 75.346,352.539 75.667 M352.542 77.083 C 352.544 77.450,352.578 77.580,352.618 77.373 C 352.658 77.166,352.656 76.866,352.615 76.706 C 352.573 76.547,352.540 76.717,352.542 77.083 M114.167 83.083 C 114.478 83.404,114.770 83.667,114.815 83.667 C 114.861 83.667,114.644 83.404,114.333 83.083 C 114.022 82.762,113.730 82.500,113.685 82.500 C 113.639 82.500,113.856 82.762,114.167 83.083 M256.388 83.583 C 256.389 84.225,256.419 84.467,256.455 84.121 C 256.491 83.775,256.490 83.250,256.454 82.955 C 256.417 82.659,256.387 82.942,256.388 83.583 M185.042 83.750 C 185.044 84.117,185.078 84.247,185.118 84.040 C 185.158 83.832,185.156 83.532,185.115 83.373 C 185.073 83.214,185.040 83.383,185.042 83.750 M184.158 87.426 C 183.938 87.660,183.870 87.809,184.008 87.756 C 184.224 87.673,184.764 87.000,184.614 87.000 C 184.583 87.000,184.378 87.192,184.158 87.426 M183.545 89.167 C 183.545 89.579,183.578 89.748,183.618 89.542 C 183.657 89.335,183.657 88.998,183.618 88.792 C 183.578 88.585,183.545 88.754,183.545 89.167 M111.214 91.917 C 111.216 92.375,111.248 92.543,111.286 92.289 C 111.325 92.036,111.324 91.661,111.284 91.456 C 111.244 91.251,111.213 91.458,111.214 91.917 M374.372 92.333 C 374.372 92.654,374.406 92.785,374.448 92.625 C 374.490 92.465,374.490 92.202,374.448 92.042 C 374.406 91.881,374.372 92.013,374.372 92.333 M192.033 92.200 C 191.906 92.327,191.845 92.860,191.866 93.658 L 191.900 94.917 191.958 93.674 C 191.990 92.991,192.097 92.334,192.195 92.216 C 192.420 91.944,192.301 91.932,192.033 92.200 M242.542 96.124 C 243.619 96.153,245.381 96.153,246.458 96.124 C 247.535 96.095,246.654 96.072,244.500 96.072 C 242.346 96.072,241.465 96.095,242.542 96.124 M113.833 98.719 C 113.833 98.748,114.077 98.991,114.375 99.260 L 114.917 99.750 114.427 99.208 C 113.971 98.703,113.833 98.590,113.833 98.719 M249.875 102.282 C 250.035 102.323,250.298 102.323,250.458 102.282 C 250.619 102.240,250.487 102.205,250.167 102.205 C 249.846 102.205,249.715 102.240,249.875 102.282 M366.792 103.284 C 366.998 103.324,367.335 103.324,367.542 103.284 C 367.748 103.245,367.579 103.212,367.167 103.212 C 366.754 103.212,366.585 103.245,366.792 103.284 " stroke="none" fill="#b2b2b2" fill-rule="evenodd"></path><path id="path3" d="M22.500 38.750 L 22.500 56.833 30.958 56.833 C 41.965 56.832,44.081 56.627,46.785 55.298 C 53.551 51.973,54.246 41.104,47.893 37.976 C 46.639 37.359,46.640 37.362,47.534 36.851 C 52.949 33.758,52.229 24.855,46.327 21.939 C 43.884 20.732,43.215 20.671,32.208 20.669 L 22.500 20.667 22.500 38.750 M41.586 27.226 C 44.712 28.258,44.906 32.998,41.876 34.298 C 40.623 34.836,38.801 35.000,34.071 35.000 L 29.667 35.000 29.667 30.903 L 29.667 26.806 35.208 26.878 C 39.781 26.937,40.896 26.998,41.586 27.226 M41.191 41.060 C 43.901 41.698,45.194 43.690,44.686 46.445 C 44.015 50.089,42.611 50.667,34.426 50.667 L 29.667 50.667 29.667 45.750 L 29.667 40.833 34.958 40.836 C 38.769 40.838,40.513 40.901,41.191 41.060 M184.232 62.134 C 184.037 62.432,184.009 62.586,184.141 62.630 C 184.419 62.723,184.377 63.015,184.051 63.253 C 183.789 63.445,183.788 63.490,184.040 63.874 C 184.228 64.162,184.258 64.342,184.138 64.462 C 184.017 64.583,184.019 64.806,184.145 65.193 C 184.244 65.499,184.404 66.454,184.500 67.314 C 184.597 68.175,184.714 68.941,184.761 69.017 C 184.807 69.093,184.693 69.455,184.506 69.821 C 184.032 70.751,184.228 71.801,184.955 72.225 C 185.128 72.327,185.167 72.527,185.092 72.929 C 185.022 73.303,185.078 73.668,185.260 74.020 C 185.519 74.520,185.516 74.588,185.203 75.233 C 184.717 76.238,184.605 76.833,184.904 76.833 C 185.296 76.833,185.355 77.100,185.146 77.931 C 185.010 78.470,185.002 78.798,185.119 78.985 C 185.219 79.146,185.266 80.110,185.234 81.337 C 185.204 82.481,185.164 84.054,185.147 84.833 C 185.113 86.352,184.953 86.835,184.250 87.538 C 183.902 87.886,183.773 88.223,183.669 89.063 C 183.509 90.353,183.432 90.500,182.917 90.500 C 182.457 90.500,182.485 91.489,182.961 92.037 C 183.400 92.543,183.102 97.861,182.582 98.795 C 182.273 99.351,182.200 99.692,182.250 100.358 C 182.294 100.948,182.240 101.284,182.073 101.450 C 181.937 101.587,181.833 102.008,181.833 102.429 L 181.833 103.167 187.417 103.167 L 193.000 103.167 193.000 102.328 C 193.000 101.776,192.923 101.460,192.774 101.403 C 192.563 101.322,192.557 101.169,192.704 99.735 C 192.714 99.635,192.565 99.223,192.373 98.818 C 191.908 97.837,191.653 92.650,192.049 92.193 C 192.614 91.539,192.547 90.836,191.893 90.563 C 191.292 90.312,191.290 90.307,191.387 89.489 C 191.444 89.011,191.418 88.667,191.325 88.667 C 191.238 88.667,191.167 88.514,191.167 88.327 C 191.167 88.140,191.006 87.769,190.810 87.504 C 190.471 87.046,190.460 86.915,190.584 84.886 C 190.656 83.711,190.707 82.603,190.698 82.424 C 190.689 82.245,190.760 82.005,190.855 81.890 C 191.017 81.695,190.965 80.453,190.727 78.792 C 190.649 78.250,190.681 78.167,190.968 78.167 C 191.331 78.167,191.500 77.864,191.500 77.212 C 191.500 76.940,191.718 76.572,192.097 76.204 C 192.493 75.819,192.667 75.519,192.613 75.312 C 192.568 75.141,192.599 74.958,192.682 74.907 C 192.994 74.714,192.813 74.348,192.227 73.986 C 191.643 73.625,191.612 73.622,191.396 73.917 C 191.041 74.402,190.395 74.014,190.171 73.182 C 190.072 72.815,189.817 72.305,189.604 72.049 C 188.691 70.952,188.500 69.179,189.292 69.150 L 189.750 69.133 189.333 69.010 C 189.104 68.943,188.935 68.800,188.958 68.694 C 188.981 68.587,188.917 68.500,188.816 68.500 C 188.714 68.500,188.673 68.390,188.725 68.256 C 188.798 68.064,188.715 68.032,188.339 68.107 C 187.910 68.193,187.851 68.153,187.788 67.727 L 187.717 67.250 187.692 67.727 C 187.669 68.158,187.618 68.197,187.171 68.132 C 186.791 68.076,186.715 68.107,186.845 68.265 C 186.962 68.405,186.961 68.505,186.841 68.579 C 186.744 68.638,186.707 68.854,186.759 69.058 C 186.867 69.489,186.588 70.333,186.337 70.333 C 186.244 70.333,186.167 70.251,186.167 70.150 C 186.167 70.049,186.062 69.731,185.934 69.442 C 185.625 68.745,185.297 67.153,185.207 65.917 C 185.168 65.367,185.070 64.838,184.991 64.741 C 184.789 64.495,184.992 63.833,185.269 63.833 C 185.396 63.833,185.500 63.683,185.500 63.500 C 185.500 63.278,185.389 63.167,185.167 63.167 C 184.822 63.167,184.707 62.765,185.000 62.583 C 185.287 62.406,185.182 61.876,184.841 61.787 C 184.617 61.728,184.427 61.836,184.232 62.134 M123.306 65.175 C 116.285 65.800,111.943 70.025,111.923 76.250 C 111.903 82.818,114.426 84.893,125.413 87.348 C 132.184 88.861,133.583 89.724,133.583 92.388 C 133.583 95.520,131.085 97.140,126.223 97.161 C 121.752 97.180,119.211 95.508,118.499 92.078 L 118.310 91.167 114.822 91.167 L 111.333 91.167 111.336 92.125 C 111.350 97.615,115.930 101.948,122.750 102.922 C 133.196 104.415,140.833 99.662,140.833 91.667 C 140.833 85.789,138.136 83.337,129.374 81.245 C 120.814 79.203,119.898 78.841,119.030 77.164 C 117.469 74.150,120.462 71.269,125.167 71.258 C 129.381 71.248,132.033 72.989,132.436 76.029 L 132.543 76.833 136.126 76.833 L 139.710 76.833 139.595 75.792 C 139.126 71.522,137.042 68.602,133.083 66.668 C 130.263 65.291,127.223 64.826,123.306 65.175 M364.167 65.182 C 356.055 65.875,351.228 71.828,352.907 79.067 C 353.963 83.622,356.435 85.183,366.000 87.335 C 373.004 88.910,374.423 89.764,374.397 92.386 C 374.367 95.520,371.815 97.148,366.917 97.158 C 362.480 97.167,360.006 95.553,359.313 92.198 L 359.100 91.167 355.526 91.167 L 351.952 91.167 352.063 92.356 C 352.593 98.063,356.450 101.743,363.123 102.910 C 374.378 104.879,383.051 98.625,381.441 89.701 C 380.543 84.729,378.368 83.264,368.167 80.764 C 360.391 78.858,359.494 78.335,359.504 75.715 C 359.525 69.980,371.232 69.567,372.984 75.239 C 373.176 75.860,373.333 76.475,373.333 76.604 C 373.333 76.801,373.911 76.833,376.870 76.795 L 380.406 76.750 380.355 75.929 C 379.965 69.593,373.325 64.520,366.083 65.023 C 365.900 65.036,365.037 65.108,364.167 65.182 M294.167 84.083 L 294.167 102.167 307.833 102.167 L 321.500 102.167 321.500 98.917 L 321.500 95.667 311.414 95.667 L 301.328 95.667 301.372 90.958 L 301.417 86.250 310.208 86.207 L 319.000 86.164 319.000 83.167 L 319.000 80.170 310.208 80.126 L 301.417 80.083 301.417 76.167 L 301.417 72.250 311.042 72.207 L 320.667 72.164 320.667 69.082 L 320.667 66.000 307.417 66.000 L 294.167 66.000 294.167 84.083 M233.500 84.255 L 233.500 102.363 242.458 102.290 C 253.469 102.200,254.571 101.998,257.692 99.493 C 266.076 92.764,266.101 74.246,257.733 68.488 C 254.663 66.376,254.061 66.284,242.875 66.209 L 233.500 66.147 233.500 84.255 M250.524 72.574 C 254.887 73.499,257.003 78.247,256.337 85.618 C 255.594 93.835,252.924 96.167,244.260 96.167 L 240.667 96.167 240.667 84.250 L 240.667 72.333 245.042 72.336 C 248.159 72.338,249.735 72.407,250.524 72.574 " stroke="none" fill="#ffffff" fill-rule="evenodd"></path><path id="path4" d="M79.958 24.412 C 79.798 24.633,79.736 24.856,79.820 24.909 C 79.905 24.961,80.009 24.872,80.051 24.710 C 80.124 24.433,80.129 24.433,80.147 24.708 C 80.168 25.020,80.580 25.108,80.748 24.837 C 81.098 24.271,80.352 23.870,79.958 24.412 M78.738 24.352 C 78.618 24.548,78.940 24.826,79.292 24.831 C 79.406 24.832,79.500 24.683,79.500 24.500 C 79.500 24.136,78.940 24.027,78.738 24.352 M44.500 103.589 C 44.500 103.858,44.760 103.919,44.906 103.684 C 44.957 103.602,44.886 103.492,44.749 103.439 C 44.598 103.381,44.500 103.440,44.500 103.589 " stroke="none" fill="#008000" fill-rule="evenodd"></path></g></svg>
