<svg width="7000" height="2000" viewBox="0 0 7000 2000" fill="none" xmlns="http://www.w3.org/2000/svg">
<path d="M1266.23 1568L1600.17 508.703H1949.39L2273.14 1568H1963.21L1784.96 916.853C1779.63 896.966 1775.02 879.748 1771.14 865.197C1767.75 850.161 1765.08 838.763 1763.14 831.003H1761.68C1759.26 838.763 1756.1 849.919 1752.22 864.47C1748.83 879.021 1744.71 896.239 1739.86 916.125L1573.25 1568H1266.23ZM1475.76 1389.75L1514.32 1187.5H2015.59L2058.52 1389.75H1475.76ZM2386.2 1568V508.703H2887.48C2997.58 508.703 3081.97 543.625 3140.66 613.469C3199.83 683.312 3229.42 774.497 3229.42 887.023C3229.42 999.549 3200.8 1090.49 3143.57 1159.85C3086.34 1228.72 2998.79 1263.16 2880.93 1263.16H2704.14V1568H2386.2ZM2704.14 1054.36H2801.63C2842.37 1054.36 2870.99 1038.84 2887.48 1007.79C2903.97 976.753 2912.21 938.921 2912.21 894.299C2912.21 849.191 2903.97 811.359 2887.48 780.803C2870.99 749.761 2842.37 734.24 2801.63 734.24H2704.14V1054.36ZM3330.11 758.977V508.703H4188.61V758.977H3920.87V1568H3598.57V758.977H3330.11ZM4270.38 1066.73V1009.98C4270.38 829.548 4313.07 698.591 4398.43 617.106C4484.28 535.137 4593.65 494.152 4726.55 494.152C4860.42 494.152 4970.03 535.137 5055.4 617.106C5140.76 698.591 5183.44 829.548 5183.44 1009.98V1066.73C5183.44 1247.16 5140.76 1378.35 5055.4 1460.32C4970.03 1541.81 4860.42 1582.55 4726.55 1582.55C4593.65 1582.55 4484.28 1541.81 4398.43 1460.32C4313.07 1378.35 4270.38 1247.16 4270.38 1066.73ZM4602.14 1168.58C4602.14 1242.79 4612.81 1295.42 4634.15 1326.46C4655.98 1357.5 4686.78 1373.02 4726.55 1373.02C4766.81 1373.02 4797.61 1357.5 4818.95 1326.46C4840.77 1295.42 4851.69 1242.79 4851.69 1168.58V910.305C4851.69 837.066 4840.77 785.168 4818.95 754.611C4797.61 724.055 4766.81 708.776 4726.55 708.776C4686.78 708.776 4655.98 724.055 4634.15 754.611C4612.81 785.168 4602.14 837.066 4602.14 910.305V1168.58ZM5342.34 1568V508.703H5829.06C5931.89 508.703 6014.58 540.472 6077.15 604.011C6139.72 667.549 6171.01 750.489 6171.01 852.829C6171.01 959.05 6137.3 1046.11 6069.88 1114.02C6002.46 1181.92 5920.73 1215.87 5824.7 1215.87H5660.27V1568H5342.34ZM5660.27 1015.8H5746.12C5784.44 1015.8 5811.12 1002.7 5826.15 976.511C5841.67 949.834 5849.43 915.64 5849.43 873.928C5849.43 831.73 5841.67 797.051 5826.15 769.89C5811.12 742.728 5784.44 728.905 5746.12 728.42H5660.27V1015.8ZM5870.53 1568L5700.29 1118.38L5973.12 1030.35L6214.66 1568H5870.53ZM6332.08 1568V508.703H6654.38V1568H6332.08Z" fill="black"/>
<path d="M1476.5 367.5L1476.27 368.159L1067.07 1584.16L1066.96 1584.5H749.103L749.327 1583.84L1162.93 367.839L1163.04 367.5H1476.5Z" fill="#53FDCA" stroke="#1F1F1F"/>
<path d="M971.695 504.5L971.474 505.159L561.71 1723.16L561.596 1723.5H243.302L243.526 1722.84L657.696 504.839L657.812 504.5H971.695Z" fill="#44DBAE" stroke="#1F1F1F"/>
</svg>
