<svg width="680" height="111" viewBox="0 0 680 111" fill="none" xmlns="http://www.w3.org/2000/svg">
<path d="M93.7918 17.0773C94.3667 17.6732 94.9272 18.2827 95.4748 18.9042C71.9344 51.8443 55.4807 83.4101 48.2066 109.355C40.6228 108.497 33.509 106.089 27.1904 102.454C39.5637 81.9885 63.1938 51.7041 93.7918 17.0773ZM97.7605 21.6764C104.88 30.907 109.118 42.473 109.118 55.0303C109.118 79.5311 92.997 100.266 70.7816 107.217C73.6831 79.551 82.8483 50.244 97.7605 21.6764ZM90.0667 13.5594C90.6905 14.0958 91.3014 14.6465 91.9003 15.2099C57.3262 46.4749 27.4519 70.2609 7.23334 82.6685C3.50511 76.3194 1.02002 69.1528 0.117554 61.501C25.8363 54.3151 57.1219 37.7099 90.0667 13.5594ZM54.4279 0.355057C66.7576 0.355128 78.1336 4.43507 87.2809 11.317C58.7643 26.6351 29.6746 35.9048 2.21628 38.7075C9.1605 16.484 29.9104 0.355057 54.4279 0.355057Z" fill="#171D1D"/>
<path d="M609.981 83.9735H630.863C631.609 91.2822 637.724 95.7569 646.226 95.7569C653.386 95.7569 659.352 92.7738 659.352 86.9566C659.352 82.7802 656.816 80.3937 650.999 79.2005L632.951 75.6207C621.466 73.2342 612.517 67.7154 612.517 54.4404C612.517 40.4196 625.344 29.0837 644.735 29.0837C665.318 29.0837 677.102 39.3755 678.742 54.5896H658.457C657.711 48.1758 652.938 43.8502 644.436 43.8502C637.575 43.8502 632.355 47.2809 632.355 52.5014C632.355 56.6778 635.189 58.6168 639.962 59.5117L658.755 63.2407C672.329 66.0746 679.637 73.3834 679.637 85.1668C679.637 100.828 664.722 110.673 646.077 110.673C625.195 110.673 611.473 100.082 609.981 83.9735Z" fill="#171D1D"/>
<path d="M578.83 19.0921V0H600.16V19.0921H578.83ZM599.861 30.8755V108.885H578.979V30.8755H599.861Z" fill="#171D1D"/>
<path d="M451.218 108.883V30.8736H472.1V40.7179C475.978 34.7517 483.734 29.0837 494.175 29.0837C502.826 29.0837 510.732 33.5584 515.057 40.7179C519.83 34.9008 527.885 29.0837 539.668 29.0837C556.075 29.0837 566.516 40.718 566.516 57.871V108.883H545.634V62.0474C545.634 53.098 541.906 46.6842 533.105 46.6842C525.946 46.6842 519.234 52.3522 519.234 62.4949V108.883H498.352V62.0474C498.352 53.098 494.623 46.6842 485.822 46.6842C478.663 46.6842 472.1 52.3522 472.1 62.4949V108.883H451.218Z" fill="#171D1D"/>
<path d="M440.644 83.9735C437.959 99.9333 424.237 110.673 405.89 110.673C383.368 110.673 367.557 93.967 367.557 69.9527C367.557 46.5351 384.263 29.0837 405.89 29.0837C428.264 29.0837 441.539 46.3859 441.539 68.312C441.539 70.1019 441.539 72.1901 441.092 74.7258H387.246C388.588 88.1499 396.195 94.5637 405.741 94.5637C414.243 94.5637 419.911 90.5364 421.701 83.9735H440.644ZM405.592 45.1927C395.449 45.1927 389.782 51.9047 387.693 61.5999H421.552C421.254 52.5014 415.437 45.1927 405.592 45.1927Z" fill="#171D1D"/>
<path d="M326.026 87.2542V47.5784H313.795V30.8728H326.026V10.8858H346.461V30.8728H364.359V47.5784H346.461V83.3761C346.461 89.6407 349.145 91.878 355.261 91.878H364.359V108.882H347.952C334.975 108.882 326.026 102.021 326.026 87.2542Z" fill="#171D1D"/>
<path d="M306.069 29.9803V50.8623H300.55C286.977 50.8623 278.027 60.7067 278.027 72.6392V108.884H257.146V30.8753H278.027V46.5368C282.651 35.7974 291.601 29.9803 302.34 29.9803H306.069Z" fill="#171D1D"/>
<path d="M184.586 0.000198364H209.048L250.663 108.885H227.991L218.296 82.7824H174.593L165.047 108.885H142.971L184.586 0.000198364ZM196.37 23.1195L181.156 64.8835H211.733L196.37 23.1195Z" fill="#171D1D"/>
</svg>
