<svg width="147" height="31" viewBox="0 0 147 31" fill="none" xmlns="http://www.w3.org/2000/svg">
<g clip-path="url(#clip0_1_11)">
<path d="M37.3848 15.0036C37.3848 8.39245 41.6475 3.39844 48.1818 3.39844C50.7298 3.39844 52.8756 4.14148 54.4413 5.35379C56.3438 6.81254 57.4479 8.98493 57.728 11.4682H52.2937C52.0173 9.48159 50.4842 7.96031 48.1528 7.96031C44.5937 7.96031 42.906 10.9716 42.906 14.9997C42.906 19.0277 44.9301 22.0116 48.1818 22.0116C50.606 22.0116 52.2009 20.461 52.4465 18.3198H57.8766C57.72 20.4747 56.7805 22.4946 55.2381 23.9904C53.5524 25.6349 51.3116 26.5031 48.2127 26.5031C41.7712 26.5148 37.3848 21.644 37.3848 15.0036Z" fill="#312652"/>
<path d="M62.9092 14.9722C62.9092 8.32399 67.112 3.39844 73.735 3.39844C80.358 3.39844 84.5975 8.33184 84.5975 14.9722C84.5975 21.6127 80.3947 26.5461 73.7387 26.5461C67.0827 26.5461 62.9092 21.6127 62.9092 14.9722ZM79.0765 14.9722C79.0765 10.9384 77.3269 7.83519 73.7696 7.83519C70.2128 7.83519 68.4302 10.9384 68.4302 14.9722C68.4302 19.0062 70.2416 22.0781 73.7696 22.0781C77.2981 22.0781 79.0685 19.0062 79.0685 14.9722H79.0765Z" fill="#312652"/>
<path d="M90.7051 3.83252H100.584C103.252 3.83252 105.223 4.57751 106.565 5.87979C107.977 7.21335 108.775 9.10808 108.775 11.3411C108.775 15.5921 105.859 18.6014 101.349 18.6014H96.2261V26.0182H90.7051V3.83252ZM100.245 14.2585C102.209 14.2585 103.314 13.0853 103.314 11.3098C103.314 9.53435 102.179 8.45498 100.245 8.45498H96.2261V14.2585H100.245Z" fill="#312652"/>
<path d="M114.725 3.83252H120.155V26.0182H114.725V3.83252Z" fill="#312652"/>
<path d="M133.501 3.83252H139.084L147 26.0182H141.293L140.006 22.0155H132.335L131.073 26.0182H125.617L133.501 3.83252ZM138.748 18.0754L137.091 12.7099C136.723 11.5621 136.232 9.58131 136.232 9.58131H136.17C136.17 9.58131 135.648 11.568 135.281 12.7099L133.586 18.0754H138.748Z" fill="#312652"/>
<path d="M7.28822 23.0419V7.36963H0V30.4136H22.783V23.0419H7.28822Z" fill="#312652"/>
<path d="M22.7811 7.37172H7.28632V0H30.0693V23.044H22.7811V7.37172Z" fill="#05A595"/>
</g>
<defs>
<clipPath id="clip0_1_11">
<rect width="147" height="31" fill="white"/>
</clipPath>
</defs>
</svg>
