<svg width="970" height="205" viewBox="0 0 970 205" fill="none" xmlns="http://www.w3.org/2000/svg">
<g clip-path="url(#clip0_2215_4130)">
<path d="M0 80.0016L79.196 0.805664L101.823 23.4331L22.6274 102.629L0 80.0016Z" fill="#0F0F0F"/>
<path d="M33.9409 181.825L113.137 102.629L135.764 125.257L56.5683 204.452L33.9409 181.825Z" fill="#0F0F0F"/>
<path d="M33.9683 113.943L79.2231 68.688L101.851 91.3154L56.5957 136.57L33.9683 113.943Z" fill="#0F0F0F"/>
<path d="M903.341 159.001V46.0494H930.917V65.2424H932.094C934.153 58.5261 937.658 53.3786 942.61 49.7998C947.61 46.221 953.297 44.4316 959.67 44.4316C961.19 44.4316 962.857 44.5052 964.671 44.6522C966.533 44.7993 968.102 45.0199 969.377 45.3141V71.1253C968.102 70.7331 966.215 70.3655 963.715 70.0223C961.214 69.6791 958.861 69.5075 956.655 69.5075C951.9 69.5075 947.635 70.537 943.86 72.5961C940.134 74.6551 937.192 77.4985 935.035 81.1263C932.878 84.7051 931.8 88.8721 931.8 93.6275V159.001H903.341Z" fill="#0F0F0F"/>
<path d="M687.212 93.1856V159.001H658.754V46.0488H685.962V65.5359H687.286C689.835 59.1137 694.002 54.0152 699.787 50.2404C705.572 46.4655 712.656 44.578 721.039 44.578C728.883 44.578 735.697 46.2694 741.482 49.6521C747.316 53.0347 751.826 57.8881 755.013 64.2123C758.248 70.5364 759.866 78.1597 759.866 87.0821V159.001H731.334V91.7884C731.383 84.4838 729.52 78.7725 725.745 74.6544C721.97 70.5364 716.774 68.4774 710.156 68.4774C705.645 68.4774 701.674 69.4579 698.243 71.4188C694.811 73.3798 692.115 76.1987 690.154 79.8755C688.242 83.5523 687.261 87.989 687.212 93.1856Z" fill="#0F0F0F"/>
<path d="M564.155 93.1856V159.001H535.696V46.0488H562.904V65.5359H564.228C566.777 59.1137 570.944 54.0152 576.729 50.2404C582.514 46.4655 589.598 44.578 597.981 44.578C605.825 44.578 612.64 46.2694 618.424 49.6521C624.258 53.0347 628.768 57.8881 631.955 64.2123C635.191 70.5364 636.809 78.1597 636.809 87.0821V159.001H608.276V91.7884C608.325 84.4838 606.462 78.7725 602.688 74.6544C598.913 70.5364 593.716 68.4774 587.098 68.4774C582.588 68.4774 578.617 69.4579 575.185 71.4188C571.753 73.3798 569.057 76.1987 567.096 79.8755C565.184 83.5523 564.204 87.989 564.155 93.1856Z" fill="#0F0F0F"/>
<path d="M451.557 161.207C444.399 161.207 437.977 159.932 432.29 157.383C426.604 154.834 422.118 151.059 418.833 146.058C415.549 141.009 413.906 134.783 413.906 127.38C413.906 121.056 415.058 115.786 417.362 111.57C419.716 107.354 422.902 103.971 426.922 101.422C430.942 98.8724 435.501 96.9605 440.6 95.6858C445.698 94.3622 451.018 93.4062 456.557 92.8179C463.176 92.1316 468.519 91.5188 472.588 90.9795C476.657 90.3912 479.623 89.4843 481.486 88.2586C483.349 87.033 484.281 85.1701 484.281 82.6699V82.2287C484.281 77.0811 482.712 73.0856 479.574 70.2422C476.437 67.3988 471.951 65.9771 466.117 65.9771C459.94 65.9771 455.038 67.3253 451.41 70.0216C447.831 72.718 445.429 75.9536 444.203 79.7284L417.657 76.7134C419.421 69.85 422.51 64.0162 426.922 59.2118C431.383 54.4074 436.923 50.7796 443.541 48.3284C450.209 45.8282 457.709 44.578 466.044 44.578C471.828 44.578 477.491 45.2644 483.03 46.6371C488.57 47.9607 493.571 50.1178 498.032 53.1083C502.542 56.0988 506.121 60.0697 508.768 65.0212C511.464 69.9236 512.813 75.9781 512.813 83.1846V159.001H485.531V143.411H484.648C482.981 146.696 480.653 149.711 477.662 152.456C474.721 155.152 471.069 157.285 466.705 158.854C462.391 160.422 457.342 161.207 451.557 161.207ZM459.278 140.837C464.328 140.837 468.74 139.832 472.515 137.822C476.29 135.812 479.207 133.116 481.266 129.733C483.374 126.35 484.428 122.625 484.428 118.556V105.76C483.545 106.447 482.148 107.059 480.236 107.599C478.373 108.138 476.29 108.628 473.985 109.069C471.681 109.511 469.377 109.903 467.073 110.246C464.818 110.589 462.808 110.883 461.043 111.128C457.219 111.668 453.812 112.55 450.822 113.776C447.831 114.952 445.478 116.595 443.762 118.703C442.095 120.811 441.262 123.483 441.262 126.718C441.262 131.326 442.953 134.832 446.336 137.234C449.718 139.636 454.033 140.837 459.278 140.837Z" fill="#0F0F0F"/>
<path d="M349.914 161.207C338.54 161.207 328.76 158.731 320.573 153.78C312.435 148.828 306.16 141.989 301.747 133.263C297.384 124.488 295.203 114.389 295.203 102.966C295.203 91.4452 297.409 81.2972 301.821 72.5219C306.282 63.7465 312.582 56.9076 320.72 52.0052C328.907 47.0538 338.589 44.578 349.767 44.578C359.228 44.578 367.563 46.3184 374.769 49.7991C381.976 53.2308 387.712 58.0842 391.977 64.3593C396.242 70.5854 398.619 77.8655 399.11 86.1996H372.048C371.117 80.7089 368.764 76.1742 364.989 72.5954C361.263 69.0166 356.336 67.2272 350.208 67.2272C345.011 67.2272 340.452 68.6244 336.53 71.4188C332.608 74.2132 329.569 78.2577 327.412 83.5523C325.255 88.7979 324.176 95.122 324.176 102.525C324.176 110.025 325.23 116.448 327.338 121.791C329.495 127.086 332.535 131.155 336.457 133.998C340.379 136.842 344.962 138.263 350.208 138.263C353.983 138.263 357.366 137.528 360.356 136.057C363.395 134.587 365.92 132.43 367.93 129.586C369.989 126.743 371.362 123.311 372.048 119.291H399.11C398.57 127.527 396.242 134.807 392.124 141.131C388.006 147.406 382.368 152.333 375.21 155.912C368.053 159.442 359.621 161.207 349.914 161.207Z" fill="#0F0F0F"/>
<path d="M277.159 76.8605L251.127 79.1401C250.539 76.6889 249.411 74.4338 247.744 72.3748C246.078 70.2668 243.871 68.5754 241.126 67.3008C238.381 66.0261 235.047 65.3888 231.125 65.3888C225.831 65.3888 221.394 66.5164 217.815 68.7715C214.236 71.0266 212.471 73.9681 212.52 77.5959C212.471 80.6354 213.623 83.1601 215.977 85.1701C218.33 87.1311 222.276 88.7489 227.816 90.0235L247.524 94.1416C258.358 96.3967 266.398 100.024 271.644 105.025C276.938 110.025 279.61 116.595 279.659 124.733C279.61 131.939 277.478 138.288 273.262 143.779C269.094 149.269 263.334 153.559 255.98 156.647C248.627 159.687 240.17 161.207 230.61 161.207C216.344 161.207 204.897 158.216 196.269 152.235C187.69 146.254 182.616 137.994 181.047 127.454L208.917 125.247C209.996 130.15 212.398 133.851 216.124 136.351C219.85 138.852 224.678 140.102 230.61 140.102C236.591 140.102 241.396 138.901 245.024 136.499C248.7 134.096 250.539 131.081 250.539 127.454C250.539 124.365 249.313 121.816 246.862 119.806C244.46 117.796 240.709 116.251 235.611 115.173L216.271 111.202C205.338 108.996 197.225 105.197 191.93 99.8039C186.685 94.3622 184.086 87.4988 184.135 79.2137C184.086 72.1052 185.998 65.9771 189.871 60.8296C193.793 55.633 199.259 51.6375 206.27 48.8432C213.28 45.9998 221.418 44.578 230.684 44.578C244.313 44.578 255.049 47.4705 262.893 53.2553C270.786 59.0402 275.541 66.9086 277.159 76.8605Z" fill="#0F0F0F"/>
<path fill-rule="evenodd" clip-rule="evenodd" d="M804.248 154.147C812.533 158.854 822.412 161.207 833.883 161.207C842.855 161.207 850.797 159.834 857.709 157.089C864.67 154.343 870.382 150.47 874.843 145.47C879.304 140.469 882.295 134.611 883.815 127.895L857.268 125.468C856.14 128.508 854.473 131.081 852.267 133.189C850.061 135.248 847.439 136.817 844.399 137.896C841.36 138.925 837.977 139.44 834.251 139.44C828.711 139.44 823.882 138.263 819.764 135.91C815.646 133.508 812.435 130.101 810.131 125.689C807.921 121.316 806.794 116.12 806.75 110.099H884.697V101.789C884.697 91.9845 883.324 83.5033 880.579 76.3457C877.883 69.1392 874.132 63.1827 869.328 58.4764C864.524 53.7701 858.959 50.2894 852.635 48.0342C846.36 45.7301 839.644 44.578 832.486 44.578C821.603 44.578 812.117 47.0538 804.028 52.0052C795.939 56.9076 789.663 63.7465 785.202 72.5219C780.741 81.2972 778.51 91.4943 778.51 103.113C778.51 114.977 780.741 125.272 785.202 133.998C789.663 142.676 796.012 149.392 804.248 154.147ZM806.793 91.5678H857.636C857.587 86.7144 856.508 82.4003 854.4 78.6254C852.341 74.8015 849.473 71.811 845.796 69.654C842.119 67.4479 837.83 66.3448 832.927 66.3448C827.78 66.3448 823.221 67.5704 819.25 70.0216C815.328 72.4728 812.264 75.7084 810.057 79.7284C808.111 83.3556 807.023 87.302 806.793 91.5678Z" fill="#0F0F0F"/>
</g>
<defs>
<clipPath id="clip0_2215_4130">
<rect width="970" height="205" fill="white"/>
</clipPath>
</defs>
</svg>
